<svg width="285" height="144" viewBox="0 0 285 144" fill="none" xmlns="http://www.w3.org/2000/svg">
<g filter="url(#filter0_d)">
<path d="M186.735 49.8703L189.439 50.6713L201.165 50.2404L186.735 49.8703ZM198.964 40.579L201.41 41.6078L201.666 40.3965L198.964 40.579ZM199.226 39.3385L201.666 40.3965L202.015 39.3295L199.226 39.3385ZM198.801 41.9728L201.251 42.9689L201.41 41.6078L198.801 41.9728ZM199.583 38.2456L202.015 39.3295L202.454 38.4012L199.583 38.2456ZM198.74 43.5258L201.192 44.4856L201.251 42.9689L198.74 43.5258ZM200.032 37.2946L202.454 38.4012L202.979 37.6062L200.032 37.2946ZM200.569 36.4799L202.979 37.6062L203.588 36.9392L200.569 36.4799ZM198.709 49.4184L201.165 50.2404L201.192 44.4856L198.709 49.4184ZM201.191 35.7963L203.588 36.9392L204.276 36.3951L201.191 35.7963ZM201.895 35.2383L204.276 36.3951L205.042 35.9688L201.895 35.2383ZM202.677 34.8008L205.042 35.9688L205.881 35.6553L202.677 34.8008ZM203.535 34.4787L205.881 35.6553L206.792 35.4496L203.535 34.4787ZM204.465 34.2668L206.792 35.4496L207.769 35.3467L204.465 34.2668ZM198.524 84.8268L201.002 84.8136L189.191 84.8066L198.524 84.8268ZM198.709 49.4184L186.735 49.8703L201.165 50.2404L198.709 49.4184ZM205.464 34.1603L207.769 35.3467L208.748 35.3429L205.464 34.1603ZM206.464 34.1551L208.748 35.3429L209.663 35.4465L206.464 34.1551ZM199.226 39.3385L198.964 40.579L201.666 40.3965L199.226 39.3385ZM207.399 34.2599L209.663 35.4465L210.509 35.6708L207.399 34.2599ZM198.964 40.579L198.801 41.9728L201.41 41.6078L198.964 40.579ZM199.583 38.2456L199.226 39.3385L202.015 39.3295L199.583 38.2456ZM198.801 41.9728L198.74 43.5258L201.251 42.9689L198.801 41.9728ZM200.032 37.2946L199.583 38.2456L202.454 38.4012L200.032 37.2946ZM186.461 84.8195L198.524 84.8268L189.191 84.8066L186.461 84.8195ZM200.569 36.4799L200.032 37.2946L202.979 37.6062L200.569 36.4799ZM198.74 43.5258L198.709 49.4184L201.192 44.4856L198.74 43.5258ZM199.172 73.0006L201.631 73.2679L205.902 73.2172L199.172 73.0006ZM208.263 34.4885L210.509 35.6708L211.283 36.0293L208.263 34.4885ZM201.191 35.7963L200.569 36.4799L203.588 36.9392L201.191 35.7963ZM201.895 35.2383L201.191 35.7963L204.276 36.3951L201.895 35.2383ZM202.677 34.8008L201.895 35.2383L205.042 35.9688L202.677 34.8008ZM198.478 93.497L200.963 93.2773L201.002 84.8136L198.478 93.497ZM203.535 34.4787L202.677 34.8008L205.881 35.6553L203.535 34.4787ZM198.523 95.0832L201.007 94.8256L200.963 93.2773L198.523 95.0832ZM198.674 96.5048L201.155 96.2132L201.007 94.8256L198.674 96.5048ZM204.465 34.2668L203.535 34.4787L206.792 35.4496L204.465 34.2668ZM198.926 97.7674L201.403 97.4456L201.155 96.2132L198.926 97.7674ZM203.536 72.9474L205.902 73.2172L207.286 73.2671L203.536 72.9474ZM199.276 98.8765L201.746 98.528L201.403 97.4456L199.276 98.8765ZM205.464 34.1603L204.465 34.2668L207.769 35.3467L205.464 34.1603ZM199.721 99.8376L202.182 99.466L201.746 98.528L199.721 99.8376ZM200.257 100.656L202.708 100.265L202.182 99.466L200.257 100.656ZM206.464 34.1551L205.464 34.1603L208.748 35.3429L206.464 34.1551ZM200.882 101.338L203.319 100.929L202.708 100.265L200.882 101.338ZM207.399 34.2599L206.464 34.1551L209.663 35.4465L207.399 34.2599ZM201.59 101.887L204.013 101.465L203.319 100.929L201.59 101.887ZM208.263 34.4885L207.399 34.2599L210.509 35.6708L208.263 34.4885ZM202.38 102.31L204.786 101.878L204.013 101.465L202.38 102.31ZM183.899 49.0301L186.735 49.8703L198.709 49.4184L183.899 49.0301ZM209.053 34.8547L208.263 34.4885L211.283 36.0293L209.053 34.8547ZM203.248 102.612L205.636 102.172L204.786 101.878L203.248 102.612ZM198.524 84.8268L198.478 93.497L201.002 84.8136L198.524 84.8268ZM203.536 72.9474L199.172 73.0006L205.902 73.2172L203.536 72.9474ZM204.19 102.797L206.557 102.352L205.636 102.172L204.19 102.797ZM220.512 26.1632L222.489 27.5586L220.724 25.8749L220.512 26.1632ZM198.478 93.497L198.523 95.0832L200.963 93.2773L198.478 93.497ZM198.523 95.0832L198.674 96.5048L201.007 94.8256L198.523 95.0832ZM205.203 102.872L207.549 102.425L206.557 102.352L205.203 102.872ZM198.674 96.5048L198.926 97.7674L201.155 96.2132L198.674 96.5048ZM198.926 97.7674L199.276 98.8765L201.403 97.4456L198.926 97.7674ZM206.219 102.842L208.542 102.395L207.549 102.425L206.219 102.842ZM204.95 72.9982L203.536 72.9474L207.286 73.2671L204.95 72.9982ZM222.05 28.22L223.994 29.5688L222.489 27.5586L222.05 28.22ZM199.276 98.8765L199.721 99.8376L201.746 98.528L199.276 98.8765ZM207.168 102.702L209.471 102.258L208.542 102.395L207.168 102.702ZM199.721 99.8376L200.257 100.656L202.182 99.466L199.721 99.8376ZM200.257 100.656L200.882 101.338L202.708 100.265L200.257 100.656ZM223.316 30.6055L225.233 31.8992L223.994 29.5688L223.316 30.6055ZM200.882 101.338L201.59 101.887L203.319 100.929L200.882 101.338ZM196.398 39.4994L198.964 40.579L199.226 39.3385L196.398 39.4994ZM196.666 38.2282L199.226 39.3385L199.583 38.2456L196.666 38.2282ZM196.23 40.9275L198.801 41.9728L198.964 40.579L196.23 40.9275ZM216.158 65.382L218.247 65.8373L219.754 65.0159L216.158 65.382ZM197.031 37.1081L199.583 38.2456L200.032 37.2946L197.031 37.1081ZM196.167 42.5186L198.74 43.5258L198.801 41.9728L196.167 42.5186ZM201.59 101.887L202.38 102.31L204.013 101.465L201.59 101.887ZM197.49 36.1333L200.032 37.2946L200.569 36.4799L197.49 36.1333ZM224.308 33.3124L226.204 34.5429L225.233 31.8992L224.308 33.3124ZM217.748 66.2367L219.803 66.6722L218.247 65.8373L217.748 66.2367ZM198.04 35.298L200.569 36.4799L201.191 35.7963L198.04 35.298ZM196.132 48.5557L198.709 49.4184L198.74 43.5258L196.132 48.5557ZM217.698 64.5396L219.754 65.0159L221.122 64.0567L217.698 64.5396ZM202.38 102.31L203.248 102.612L204.786 101.878L202.38 102.31ZM198.676 34.5968L201.191 35.7963L201.895 35.2383L198.676 34.5968ZM225.021 36.3332L226.902 37.4923L226.204 34.5429L225.021 36.3332ZM199.395 34.0242L201.895 35.2383L202.677 34.8008L199.395 34.0242ZM218.709 24.4414L220.512 26.1632L220.724 25.8749L218.709 24.4414ZM203.248 102.612L204.19 102.797L205.636 102.172L203.248 102.612ZM219.18 67.2511L221.204 67.6627L219.803 66.6722L219.18 67.2511ZM219.098 63.5561L221.122 64.0567L222.353 62.9583L219.098 63.5561ZM200.195 33.5749L202.677 34.8008L203.535 34.4787L200.195 33.5749ZM225.452 39.6596L227.325 40.7395L226.902 37.4923L225.452 39.6596ZM204.19 102.797L205.203 102.872L206.557 102.352L204.19 102.797ZM220.358 62.4299L222.353 62.9583L223.448 61.7194L220.358 62.4299ZM201.072 33.2437L203.535 34.4787L204.465 34.2668L201.072 33.2437ZM220.458 68.4211L222.454 68.805L221.204 67.6627L220.458 68.4211ZM225.597 43.283L227.469 44.2761L227.325 40.7395L225.597 43.283ZM221.478 61.1598L223.448 61.7194L224.408 60.3389L221.478 61.1598ZM220.512 26.1632L222.05 28.22L222.489 27.5586L220.512 26.1632ZM205.203 102.872L206.219 102.842L207.549 102.425L205.203 102.872ZM202.023 33.0254L204.465 34.2668L205.464 34.1603L202.023 33.0254ZM195.921 84.8408L198.524 84.8268L186.461 84.8195L195.921 84.8408ZM225.599 45.707L227.471 46.6419L227.469 44.2761L225.599 45.707ZM222.46 59.7446L224.408 60.3389L225.234 58.8158L222.46 59.7446ZM196.132 48.5557L183.899 49.0301L198.709 49.4184L196.132 48.5557ZM225.538 48.1588L227.413 49.0346L227.471 46.6419L225.538 48.1588ZM206.219 102.842L207.168 102.702L208.542 102.395L206.219 102.842ZM223.306 58.1833L225.234 58.8158L225.928 57.1491L223.306 58.1833ZM221.585 69.7427L223.557 70.0952L222.454 68.805L221.585 69.7427ZM225.352 50.4612L227.231 51.2814L227.413 49.0346L225.352 50.4612ZM224.016 56.4749L225.928 57.1491L226.491 55.3382L224.016 56.4749ZM203.044 32.9148L205.464 34.1603L206.464 34.1551L203.044 32.9148ZM225.037 52.6144L226.925 53.3825L227.231 51.2814L225.037 52.6144ZM224.593 54.6188L226.491 55.3382L226.925 53.3825L224.593 54.6188ZM222.05 28.22L223.316 30.6055L223.994 29.5688L222.05 28.22ZM204.066 32.9081L206.464 34.1551L207.399 34.2599L204.066 32.9081ZM222.564 71.2118L224.515 71.5291L223.557 70.0952L222.564 71.2118ZM196.666 38.2282L196.398 39.4994L199.226 39.3385L196.666 38.2282ZM205.022 33.0142L207.399 34.2599L208.263 34.4885L205.022 33.0142ZM196.398 39.4994L196.23 40.9275L198.964 40.579L196.398 39.4994ZM197.031 37.1081L196.666 38.2282L199.583 38.2456L197.031 37.1081ZM196.23 40.9275L196.167 42.5186L198.801 41.9728L196.23 40.9275ZM223.316 30.6055L224.308 33.3124L225.233 31.8992L223.316 30.6055ZM223.4 72.8242L225.332 73.1026L224.515 71.5291L223.4 72.8242ZM216.158 65.382L217.748 66.2367L218.247 65.8373L216.158 65.382ZM197.49 36.1333L197.031 37.1081L200.032 37.2946L197.49 36.1333ZM217.698 64.5396L216.158 65.382L219.754 65.0159L217.698 64.5396ZM183.596 84.8331L195.921 84.8408L186.461 84.8195L183.596 84.8331ZM198.04 35.298L197.49 36.1333L200.569 36.4799L198.04 35.298ZM214.147 115.125L216.303 114.375L218.623 113.244L214.147 115.125ZM196.167 42.5186L196.132 48.5557L198.74 43.5258L196.167 42.5186ZM196.591 72.7201L199.172 73.0006L203.536 72.9474L196.591 72.7201ZM205.905 33.2472L208.263 34.4885L209.053 34.8547L205.905 33.2472ZM198.676 34.5968L198.04 35.298L201.191 35.7963L198.676 34.5968ZM224.096 74.5753L226.013 74.8114L225.332 73.1026L224.096 74.5753ZM224.308 33.3124L225.021 36.3332L226.204 34.5429L224.308 33.3124ZM199.395 34.0242L198.676 34.5968L201.895 35.2383L199.395 34.0242ZM219.098 63.5561L217.698 64.5396L221.122 64.0567L219.098 63.5561ZM217.748 66.2367L219.18 67.2511L219.803 66.6722L217.748 66.2367ZM224.656 76.4609L226.562 76.6512L226.013 74.8114L224.656 76.4609ZM200.195 33.5749L199.395 34.0242L202.677 34.8008L200.195 33.5749ZM195.87 93.7277L198.478 93.497L198.524 84.8268L195.87 93.7277ZM216.52 113.967L218.623 113.244L220.684 111.771L216.52 113.967ZM220.358 62.4299L219.098 63.5561L222.353 62.9583L220.358 62.4299ZM225.021 36.3332L225.452 39.6596L226.902 37.4923L225.021 36.3332ZM225.084 78.4762L226.981 78.6175L226.562 76.6512L225.084 78.4762ZM201.072 33.2437L200.195 33.5749L203.535 34.4787L201.072 33.2437ZM195.915 95.3537L198.523 95.0832L198.478 93.497L195.915 95.3537ZM219.18 67.2511L220.458 68.4211L221.204 67.6627L219.18 67.2511ZM196.068 96.811L198.674 96.5048L198.523 95.0832L196.068 96.811ZM221.478 61.1598L220.358 62.4299L223.448 61.7194L221.478 61.1598ZM225.385 80.6167L227.276 80.7059L226.981 78.6175L225.385 80.6167ZM225.452 39.6596L225.597 43.283L227.325 40.7395L225.452 39.6596ZM202.023 33.0254L201.072 33.2437L204.465 34.2668L202.023 33.0254ZM196.324 98.1053L198.926 97.7674L198.674 96.5048L196.324 98.1053ZM218.629 112.459L220.684 111.771L222.483 109.964L218.629 112.459ZM201.051 72.6642L203.536 72.9474L204.95 72.9982L201.051 72.6642ZM225.563 82.8777L227.451 82.9117L227.276 80.7059L225.563 82.8777ZM222.46 59.7446L221.478 61.1598L224.408 60.3389L222.46 59.7446ZM225.597 43.283L225.599 45.707L227.469 44.2761L225.597 43.283ZM196.682 99.2425L199.276 98.8765L198.926 97.7674L196.682 99.2425ZM220.458 68.4211L221.585 69.7427L222.454 68.805L220.458 68.4211ZM203.044 32.9148L202.023 33.0254L205.464 34.1603L203.044 32.9148ZM225.623 85.2544L227.51 85.2303L227.451 82.9117L225.623 85.2544ZM223.306 58.1833L222.46 59.7446L225.234 58.8158L223.306 58.1833ZM225.599 45.707L225.538 48.1588L227.471 46.6419L225.599 45.707ZM197.136 100.228L199.721 99.8376L199.276 98.8765L197.136 100.228ZM224.016 56.4749L223.306 58.1833L225.928 57.1491L224.016 56.4749ZM225.538 48.1588L225.352 50.4612L227.413 49.0346L225.538 48.1588ZM220.469 110.608L222.483 109.964L224.013 107.831L220.469 110.608ZM224.593 54.6188L224.016 56.4749L226.491 55.3382L224.593 54.6188ZM225.352 50.4612L225.037 52.6144L227.231 51.2814L225.352 50.4612ZM225.037 52.6144L224.593 54.6188L226.925 53.3825L225.037 52.6144ZM197.684 101.067L200.257 100.656L199.721 99.8376L197.684 101.067ZM204.066 32.9081L203.044 32.9148L206.464 34.1551L204.066 32.9081ZM225.627 92.8056L227.517 92.5965L227.51 85.2303L225.627 92.8056ZM221.585 69.7427L222.564 71.2118L223.557 70.0952L221.585 69.7427ZM222.036 108.422L224.013 107.831L225.271 105.38L222.036 108.422ZM198.322 101.766L200.882 101.338L200.257 100.656L198.322 101.766ZM205.022 33.0142L204.066 32.9081L207.399 34.2599L205.022 33.0142ZM225.484 96.5183L227.379 96.2182L227.517 92.5965L225.484 96.5183ZM223.324 105.91L225.271 105.38L226.254 102.621L223.324 105.91ZM225.051 99.9477L226.957 99.5634L227.379 96.2182L225.051 99.9477ZM224.33 103.082L226.254 102.621L226.957 99.5634L224.33 103.082ZM222.564 71.2118L223.4 72.8242L224.515 71.5291L222.564 71.2118ZM199.046 102.33L201.59 101.887L200.882 101.338L199.046 102.33ZM205.905 33.2472L205.022 33.0142L208.263 34.4885L205.905 33.2472ZM199.854 102.764L202.38 102.31L201.59 101.887L199.854 102.764ZM180.921 48.1478L183.899 49.0301L196.132 48.5557L180.921 48.1478ZM223.4 72.8242L224.096 74.5753L225.332 73.1026L223.4 72.8242ZM206.713 33.6214L205.905 33.2472L209.053 34.8547L206.713 33.6214ZM216.52 113.967L214.147 115.125L218.623 113.244L216.52 113.967ZM200.74 103.073L203.248 102.612L202.38 102.31L200.74 103.073ZM195.921 84.8408L195.87 93.7277L198.524 84.8268L195.921 84.8408ZM224.096 74.5753L224.656 76.4609L226.013 74.8114L224.096 74.5753ZM201.051 72.6642L196.591 72.7201L203.536 72.9474L201.051 72.6642ZM201.704 103.264L204.19 102.797L203.248 102.612L201.704 103.264ZM224.656 76.4609L225.084 78.4762L226.562 76.6512L224.656 76.4609ZM218.436 24.6973L220.512 26.1632L218.709 24.4414L218.436 24.6973ZM195.87 93.7277L195.915 95.3537L198.478 93.497L195.87 93.7277ZM218.629 112.459L216.52 113.967L220.684 111.771L218.629 112.459ZM195.915 95.3537L196.068 96.811L198.523 95.0832L195.915 95.3537ZM225.084 78.4762L225.385 80.6167L226.981 78.6175L225.084 78.4762ZM202.739 103.341L205.203 102.872L204.19 102.797L202.739 103.341ZM196.068 96.811L196.324 98.1053L198.674 96.5048L196.068 96.811ZM225.385 80.6167L225.563 82.8777L227.276 80.7059L225.385 80.6167ZM196.324 98.1053L196.682 99.2425L198.926 97.7674L196.324 98.1053ZM203.778 103.311L206.219 102.842L205.203 102.872L203.778 103.311ZM220.469 110.608L218.629 112.459L222.483 109.964L220.469 110.608ZM202.497 72.7157L201.051 72.6642L204.95 72.9982L202.497 72.7157ZM225.563 82.8777L225.623 85.2544L227.451 82.9117L225.563 82.8777ZM220.008 26.8031L222.05 28.22L220.512 26.1632L220.008 26.8031ZM196.682 99.2425L197.136 100.228L199.276 98.8765L196.682 99.2425ZM204.749 103.168L207.168 102.702L206.219 102.842L204.749 103.168ZM225.623 85.2544L225.627 92.8056L227.51 85.2303L225.623 85.2544ZM197.136 100.228L197.684 101.067L199.721 99.8376L197.136 100.228ZM222.036 108.422L220.469 110.608L224.013 107.831L222.036 108.422ZM197.684 101.067L198.322 101.766L200.257 100.656L197.684 101.067ZM221.302 29.2462L223.316 30.6055L222.05 28.22L221.302 29.2462ZM223.324 105.91L222.036 108.422L225.271 105.38L223.324 105.91ZM225.627 92.8056L225.484 96.5183L227.517 92.5965L225.627 92.8056ZM198.322 101.766L199.046 102.33L200.882 101.338L198.322 101.766ZM224.33 103.082L223.324 105.91L226.254 102.621L224.33 103.082ZM225.484 96.5183L225.051 99.9477L227.379 96.2182L225.484 96.5183ZM225.051 99.9477L224.33 103.082L226.957 99.5634L225.051 99.9477ZM193.701 38.365L196.398 39.4994L196.666 38.2282L193.701 38.365ZM193.976 37.0617L196.666 38.2282L197.031 37.1081L193.976 37.0617ZM193.529 39.8291L196.23 40.9275L196.398 39.4994L193.529 39.8291ZM213.962 64.9036L216.158 65.382L217.698 64.5396L213.962 64.9036ZM194.35 35.913L197.031 37.1081L197.49 36.1333L194.35 35.913ZM193.463 41.4603L196.167 42.5186L196.23 40.9275L193.463 41.4603ZM199.046 102.33L199.854 102.764L201.59 101.887L199.046 102.33ZM194.82 34.9131L197.49 36.1333L198.04 35.298L194.82 34.9131ZM222.316 32.0195L224.308 33.3124L223.316 30.6055L222.316 32.0195ZM215.589 65.7791L217.748 66.2367L216.158 65.382L215.589 65.7791ZM195.382 34.0561L198.04 35.298L198.676 34.5968L195.382 34.0561ZM193.424 47.6492L196.132 48.5557L196.167 42.5186L193.424 47.6492ZM215.539 64.0392L217.698 64.5396L219.098 63.5561L215.539 64.0392ZM199.854 102.764L200.74 103.073L202.38 102.31L199.854 102.764ZM196.033 33.3364L198.676 34.5968L199.395 34.0242L196.033 33.3364ZM223.044 35.1152L225.021 36.3332L224.308 33.3124L223.044 35.1152ZM196.769 32.7484L199.395 34.0242L200.195 33.5749L196.769 32.7484ZM216.591 22.9358L218.436 24.6973L218.709 24.4414L216.591 22.9358ZM200.74 103.073L201.704 103.264L203.248 102.612L200.74 103.073ZM217.054 66.8184L219.18 67.2511L217.748 66.2367L217.054 66.8184ZM216.972 63.03L219.098 63.5561L220.358 62.4299L216.972 63.03ZM197.587 32.2867L200.195 33.5749L201.072 33.2437L197.587 32.2867ZM223.483 38.5247L225.452 39.6596L225.021 36.3332L223.483 38.5247ZM201.704 103.264L202.739 103.341L204.19 102.797L201.704 103.264ZM218.261 61.8746L220.358 62.4299L221.478 61.1598L218.261 61.8746ZM198.484 31.9459L201.072 33.2437L202.023 33.0254L198.484 31.9459ZM218.361 68.0175L220.458 68.4211L219.18 67.2511L218.361 68.0175ZM223.631 42.2393L225.597 43.283L225.452 39.6596L223.631 42.2393ZM219.408 60.5716L221.478 61.1598L222.46 59.7446L219.408 60.5716ZM248.87 32.9206L250.206 34.192L258.096 33.7867L248.87 32.9206ZM218.436 24.6973L220.008 26.8031L220.512 26.1632L218.436 24.6973ZM202.739 103.341L203.778 103.311L205.203 102.872L202.739 103.341ZM199.456 31.7207L202.023 33.0254L203.044 32.9148L199.456 31.7207ZM193.186 84.8554L195.921 84.8408L183.596 84.8331L193.186 84.8554ZM223.631 44.7246L225.599 45.707L225.597 43.283L223.631 44.7246ZM220.413 59.1199L222.46 59.7446L223.306 58.1833L220.413 59.1199ZM193.424 47.6492L180.921 48.1478L196.132 48.5557L193.424 47.6492ZM223.568 47.2383L225.538 48.1588L225.599 45.707L223.568 47.2383ZM203.778 103.311L204.749 103.168L206.219 102.842L203.778 103.311ZM221.279 57.5185L223.306 58.1833L224.016 56.4749L221.279 57.5185ZM219.513 69.3723L221.585 69.7427L220.458 68.4211L219.513 69.3723ZM223.376 49.5991L225.352 50.4612L225.538 48.1588L223.376 49.5991ZM222.007 55.7663L224.016 56.4749L224.593 54.6188L222.007 55.7663ZM200.5 31.6059L203.044 32.9148L204.066 32.9081L200.5 31.6059ZM223.053 51.8072L225.037 52.6144L225.352 50.4612L223.053 51.8072ZM222.598 53.8627L224.593 54.6188L225.037 52.6144L222.598 53.8627ZM220.008 26.8031L221.302 29.2462L222.05 28.22L220.008 26.8031ZM201.546 31.5975L204.066 32.9081L205.022 33.0142L201.546 31.5975ZM220.515 70.8784L222.564 71.2118L221.585 69.7427L220.515 70.8784ZM193.976 37.0617L193.701 38.365L196.666 38.2282L193.976 37.0617ZM202.523 31.7049L205.022 33.0142L205.905 33.2472L202.523 31.7049ZM193.701 38.365L193.529 39.8291L196.398 39.4994L193.701 38.365ZM194.35 35.913L193.976 37.0617L197.031 37.1081L194.35 35.913ZM193.529 39.8291L193.463 41.4603L196.23 40.9275L193.529 39.8291ZM221.302 29.2462L222.316 32.0195L223.316 30.6055L221.302 29.2462ZM221.369 72.5315L223.4 72.8242L222.564 71.2118L221.369 72.5315ZM213.962 64.9036L215.589 65.7791L216.158 65.382L213.962 64.9036ZM194.82 34.9131L194.35 35.913L197.49 36.1333L194.82 34.9131ZM215.539 64.0392L213.962 64.9036L217.698 64.5396L215.539 64.0392ZM180.587 84.8474L193.186 84.8554L183.596 84.8331L180.587 84.8474ZM195.382 34.0561L194.82 34.9131L198.04 35.298L195.382 34.0561ZM211.881 115.914L214.147 115.125L216.52 113.967L211.881 115.914ZM193.463 41.4603L193.424 47.6492L196.167 42.5186L193.463 41.4603ZM193.878 72.4252L196.591 72.7201L201.051 72.6642L193.878 72.4252ZM203.427 31.9425L205.905 33.2472L206.713 33.6214L203.427 31.9425ZM196.033 33.3364L195.382 34.0561L198.676 34.5968L196.033 33.3364ZM222.08 74.3272L224.096 74.5753L223.4 72.8242L222.08 74.3272ZM222.316 32.0195L223.044 35.1152L224.308 33.3124L222.316 32.0195ZM196.769 32.7484L196.033 33.3364L199.395 34.0242L196.769 32.7484ZM216.972 63.03L215.539 64.0392L219.098 63.5561L216.972 63.03ZM215.589 65.7791L217.054 66.8184L217.748 66.2367L215.589 65.7791ZM256.951 32.4944L258.096 33.7867L259.183 33.7827L256.951 32.4944ZM222.653 76.2608L224.656 76.4609L224.096 74.5753L222.653 76.2608ZM197.587 32.2867L196.769 32.7484L200.195 33.5749L197.587 32.2867ZM193.127 93.9702L195.87 93.7277L195.921 84.8408L193.127 93.9702ZM214.309 114.728L216.52 113.967L218.629 112.459L214.309 114.728ZM218.261 61.8746L216.972 63.03L220.358 62.4299L218.261 61.8746ZM223.044 35.1152L223.483 38.5247L225.021 36.3332L223.044 35.1152ZM258.064 32.4888L259.183 33.7827L260.194 33.8908L258.064 32.4888ZM223.09 78.3276L225.084 78.4762L224.656 76.4609L223.09 78.3276ZM198.484 31.9459L197.587 32.2867L201.072 33.2437L198.484 31.9459ZM193.172 95.638L195.915 95.3537L195.87 93.7277L193.172 95.638ZM249.265 102.621L250.611 102.16L250.206 34.192L249.265 102.621ZM217.054 66.8184L218.361 68.0175L219.18 67.2511L217.054 66.8184ZM193.328 97.1329L196.068 96.811L195.915 95.3537L193.328 97.1329ZM219.408 60.5716L218.261 61.8746L221.478 61.1598L219.408 60.5716ZM223.397 80.523L225.385 80.6167L225.084 78.4762L223.397 80.523ZM223.483 38.5247L223.631 42.2393L225.452 39.6596L223.483 38.5247ZM259.1 32.5982L260.194 33.8908L261.127 34.1181L259.1 32.5982ZM199.456 31.7207L198.484 31.9459L202.023 33.0254L199.456 31.7207ZM193.59 98.4606L196.324 98.1053L196.068 96.811L193.59 98.4606ZM216.468 113.182L218.629 112.459L220.469 110.608L216.468 113.182ZM198.439 72.3664L201.051 72.6642L202.497 72.7157L198.439 72.3664ZM223.578 82.842L225.563 82.8777L225.385 80.6167L223.578 82.842ZM220.413 59.1199L219.408 60.5716L222.46 59.7446L220.413 59.1199ZM223.631 42.2393L223.631 44.7246L225.597 43.283L223.631 42.2393ZM193.954 99.6272L196.682 99.2425L196.324 98.1053L193.954 99.6272ZM260.056 32.83L261.127 34.1181L261.978 34.4715L260.056 32.83ZM218.361 68.0175L219.513 69.3723L220.458 68.4211L218.361 68.0175ZM200.5 31.6059L199.456 31.7207L203.044 32.9148L200.5 31.6059ZM223.638 85.2798L225.623 85.2544L225.563 82.8777L223.638 85.2798ZM221.279 57.5185L220.413 59.1199L223.306 58.1833L221.279 57.5185ZM223.631 44.7246L223.568 47.2383L225.599 45.707L223.631 44.7246ZM194.419 100.638L197.136 100.228L196.682 99.2425L194.419 100.638ZM222.007 55.7663L221.279 57.5185L224.016 56.4749L222.007 55.7663ZM223.568 47.2383L223.376 49.5991L225.538 48.1588L223.568 47.2383ZM218.352 111.285L220.469 110.608L222.036 108.422L218.352 111.285ZM260.927 33.1913L261.978 34.4715L262.743 34.9583L260.927 33.1913ZM222.598 53.8627L222.007 55.7663L224.593 54.6188L222.598 53.8627ZM223.376 49.5991L223.053 51.8072L225.352 50.4612L223.376 49.5991ZM223.053 51.8072L222.598 53.8627L225.037 52.6144L223.053 51.8072ZM194.978 101.5L197.684 101.067L197.136 100.228L194.978 101.5ZM201.546 31.5975L200.5 31.6059L204.066 32.9081L201.546 31.5975ZM223.639 93.0254L225.627 92.8056L225.623 85.2544L223.639 93.0254ZM219.513 69.3723L220.515 70.8784L221.585 69.7427L219.513 69.3723ZM248.87 32.9206L249.265 102.621L250.206 34.192L248.87 32.9206ZM261.711 33.6894L262.743 34.9583L263.419 35.5853L261.711 33.6894ZM219.956 109.044L222.036 108.422L223.324 105.91L219.956 109.044ZM195.63 102.217L198.322 101.766L197.684 101.067L195.63 102.217ZM256.951 32.4944L248.87 32.9206L258.096 33.7867L256.951 32.4944ZM202.523 31.7049L201.546 31.5975L205.022 33.0142L202.523 31.7049ZM223.491 96.834L225.484 96.5183L225.627 92.8056L223.491 96.834ZM221.276 106.468L223.324 105.91L224.33 103.082L221.276 106.468ZM223.047 100.352L225.051 99.9477L225.484 96.5183L223.047 100.352ZM222.307 103.567L224.33 103.082L225.051 99.9477L222.307 103.567ZM220.515 70.8784L221.369 72.5315L222.564 71.2118L220.515 70.8784ZM196.371 102.795L199.046 102.33L198.322 101.766L196.371 102.795ZM203.427 31.9425L202.523 31.7049L205.905 33.2472L203.427 31.9425ZM197.196 103.241L199.854 102.764L199.046 102.33L197.196 103.241ZM177.791 47.2202L180.921 48.1478L193.424 47.6492L177.791 47.2202ZM221.369 72.5315L222.08 74.3272L223.4 72.8242L221.369 72.5315ZM204.252 32.3249L203.427 31.9425L206.713 33.6214L204.252 32.3249ZM214.309 114.728L211.881 115.914L216.52 113.967L214.309 114.728ZM198.103 103.559L200.74 103.073L199.854 102.764L198.103 103.559ZM193.186 84.8554L193.127 93.9702L195.921 84.8408L193.186 84.8554ZM222.08 74.3272L222.653 76.2608L224.096 74.5753L222.08 74.3272ZM258.064 32.4888L256.951 32.4944L259.183 33.7827L258.064 32.4888ZM198.439 72.3664L193.878 72.4252L201.051 72.6642L198.439 72.3664ZM199.088 103.755L201.704 103.264L200.74 103.073L199.088 103.755ZM222.653 76.2608L223.09 78.3276L224.656 76.4609L222.653 76.2608ZM216.252 23.1557L218.436 24.6973L216.591 22.9358L216.252 23.1557ZM193.127 93.9702L193.172 95.638L195.87 93.7277L193.127 93.9702ZM216.468 113.182L214.309 114.728L218.629 112.459L216.468 113.182ZM259.1 32.5982L258.064 32.4888L260.194 33.8908L259.1 32.5982ZM193.172 95.638L193.328 97.1329L195.915 95.3537L193.172 95.638ZM223.09 78.3276L223.397 80.523L225.084 78.4762L223.09 78.3276ZM200.148 103.835L202.739 103.341L201.704 103.264L200.148 103.835ZM193.328 97.1329L193.59 98.4606L196.068 96.811L193.328 97.1329ZM260.056 32.83L259.1 32.5982L261.127 34.1181L260.056 32.83ZM223.397 80.523L223.578 82.842L225.385 80.6167L223.397 80.523ZM193.59 98.4606L193.954 99.6272L196.324 98.1053L193.59 98.4606ZM201.211 103.805L203.778 103.311L202.739 103.341L201.211 103.805ZM218.352 111.285L216.468 113.182L220.469 110.608L218.352 111.285ZM199.918 72.4188L198.439 72.3664L202.497 72.7157L199.918 72.4188ZM223.578 82.842L223.638 85.2798L225.563 82.8777L223.578 82.842ZM217.859 25.3126L220.008 26.8031L218.436 24.6973L217.859 25.3126ZM257.474 102.776L258.623 102.307L250.611 102.16L257.474 102.776ZM193.954 99.6272L194.419 100.638L196.682 99.2425L193.954 99.6272ZM260.927 33.1913L260.056 32.83L261.978 34.4715L260.927 33.1913ZM202.204 103.658L204.749 103.168L203.778 103.311L202.204 103.658ZM223.638 85.2798L223.639 93.0254L225.623 85.2544L223.638 85.2798ZM194.419 100.638L194.978 101.5L197.136 100.228L194.419 100.638ZM219.956 109.044L218.352 111.285L222.036 108.422L219.956 109.044ZM261.711 33.6894L260.927 33.1913L262.743 34.9583L261.711 33.6894ZM194.978 101.5L195.63 102.217L197.684 101.067L194.978 101.5ZM262.404 34.3315L261.711 33.6894L263.419 35.5853L262.404 34.3315ZM219.183 27.8163L221.302 29.2462L220.008 26.8031L219.183 27.8163ZM221.276 106.468L219.956 109.044L223.324 105.91L221.276 106.468ZM223.639 93.0254L223.491 96.834L225.627 92.8056L223.639 93.0254ZM195.63 102.217L196.371 102.795L198.322 101.766L195.63 102.217ZM222.307 103.567L221.276 106.468L224.33 103.082L222.307 103.567ZM223.491 96.834L223.047 100.352L225.484 96.5183L223.491 96.834ZM223.047 100.352L222.307 103.567L225.051 99.9477L223.047 100.352ZM190.864 37.1717L193.701 38.365L193.976 37.0617L190.864 37.1717ZM191.146 35.8344L193.976 37.0617L194.35 35.913L191.146 35.8344ZM190.687 38.6737L193.529 39.8291L193.701 38.365L190.687 38.6737ZM211.653 64.4004L213.962 64.9036L215.539 64.0392L211.653 64.4004ZM191.53 34.6557L194.35 35.913L194.82 34.9131L191.53 34.6557ZM190.619 40.3469L193.463 41.4603L193.529 39.8291L190.619 40.3469ZM196.371 102.795L197.196 103.241L199.046 102.33L196.371 102.795ZM192.011 33.6294L194.82 34.9131L195.382 34.0561L192.011 33.6294ZM258.603 102.742L259.725 102.274L258.623 102.307L258.603 102.742ZM220.22 30.6593L222.316 32.0195L221.302 29.2462L220.22 30.6593ZM213.317 65.2977L215.589 65.7791L213.962 64.9036L213.317 65.2977ZM192.586 32.7496L195.382 34.0561L196.033 33.3364L192.586 32.7496ZM190.574 46.6955L193.424 47.6492L193.463 41.4603L190.574 46.6955ZM213.267 63.5127L215.539 64.0392L216.972 63.03L213.267 63.5127ZM197.196 103.241L198.103 103.559L199.854 102.764L197.196 103.241ZM193.252 32.0104L196.033 33.3364L196.769 32.7484L193.252 32.0104ZM259.653 102.593L260.749 102.128L259.725 102.274L259.653 102.593ZM220.964 33.8337L223.044 35.1152L222.316 32.0195L220.964 33.8337ZM194.006 31.4062L196.769 32.7484L197.587 32.2867L194.006 31.4062ZM214.365 21.3523L216.252 23.1557L216.591 22.9358L214.365 21.3523ZM260.619 102.32L261.692 101.862L260.749 102.128L260.619 102.32ZM198.103 103.559L199.088 103.755L200.74 103.073L198.103 103.559ZM214.816 66.3632L217.054 66.8184L215.589 65.7791L214.816 66.3632ZM214.734 62.4765L216.972 63.03L218.261 61.8746L214.734 62.4765ZM249.265 102.621L257.474 102.776L250.611 102.16L249.265 102.621ZM194.843 30.9314L197.587 32.2867L198.484 31.9459L194.843 30.9314ZM221.412 37.3306L223.483 38.5247L223.044 35.1152L221.412 37.3306ZM199.088 103.755L200.148 103.835L201.704 103.264L199.088 103.755ZM216.054 61.2903L218.261 61.8746L219.408 60.5716L216.054 61.2903ZM195.761 30.5804L198.484 31.9459L199.456 31.7207L195.761 30.5804ZM216.153 67.5929L218.361 68.0175L217.054 66.8184L216.153 67.5929ZM221.561 41.141L223.631 42.2393L223.483 38.5247L221.561 41.141ZM217.229 59.9528L219.408 60.5716L220.413 59.1199L217.229 59.9528ZM247.464 31.5829L248.87 32.9206L256.951 32.4944L247.464 31.5829ZM216.252 23.1557L217.859 25.3126L218.436 24.6973L216.252 23.1557ZM200.148 103.835L201.211 103.805L202.739 103.341L200.148 103.835ZM277.867 31.21L278.503 32.5619L277.413 29.8173L277.867 31.21ZM196.755 30.3479L199.456 31.7207L200.5 31.6059L196.755 30.3479ZM190.306 84.8709L193.186 84.8554L180.587 84.8474L190.306 84.8709ZM221.56 43.6907L223.631 44.7246L223.631 42.2393L221.56 43.6907ZM218.259 58.4626L220.413 59.1199L221.279 57.5185L218.259 58.4626ZM190.574 46.6955L177.791 47.2202L193.424 47.6492L190.574 46.6955ZM221.495 46.2697L223.568 47.2383L223.631 44.7246L221.495 46.2697ZM201.211 103.805L202.204 103.658L203.778 103.311L201.211 103.805ZM219.146 56.8189L221.279 57.5185L222.007 55.7663L219.146 56.8189ZM217.332 68.9824L219.513 69.3723L218.361 68.0175L217.332 68.9824ZM221.297 48.692L223.376 49.5991L223.568 47.2383L221.297 48.692ZM219.892 55.0206L222.007 55.7663L222.598 53.8627L219.892 55.0206ZM197.824 30.2285L200.5 31.6059L201.546 31.5975L197.824 30.2285ZM220.966 50.9577L223.053 51.8072L223.376 49.5991L220.966 50.9577ZM220.498 53.0671L222.598 53.8627L223.053 51.8072L220.498 53.0671ZM278.681 34.3649L279.297 35.6382L278.503 32.5619L278.681 34.3649ZM217.859 25.3126L219.183 27.8163L220.008 26.8031L217.859 25.3126ZM198.894 30.2183L201.546 31.5975L202.523 31.7049L198.894 30.2183ZM218.357 70.5275L220.515 70.8784L219.513 69.3723L218.357 70.5275ZM279.189 37.855L279.793 39.0407L279.297 35.6382L279.189 37.855ZM191.146 35.8344L190.864 37.1717L193.976 37.0617L191.146 35.8344ZM199.893 30.3269L202.523 31.7049L203.427 31.9425L199.893 30.3269ZM190.864 37.1717L190.687 38.6737L193.701 38.365L190.864 37.1717ZM191.53 34.6557L191.146 35.8344L194.35 35.913L191.53 34.6557ZM190.687 38.6737L190.619 40.3469L193.529 39.8291L190.687 38.6737ZM219.183 27.8163L220.22 30.6593L221.302 29.2462L219.183 27.8163ZM257.474 102.776L258.603 102.742L258.623 102.307L257.474 102.776ZM219.231 72.2235L221.369 72.5315L220.515 70.8784L219.231 72.2235ZM211.653 64.4004L213.317 65.2977L213.962 64.9036L211.653 64.4004ZM192.011 33.6294L191.53 34.6557L194.82 34.9131L192.011 33.6294ZM279.391 41.6741L279.99 42.7633L279.793 39.0407L279.391 41.6741ZM213.267 63.5127L211.653 64.4004L215.539 64.0392L213.267 63.5127ZM177.422 84.8624L190.306 84.8709L180.587 84.8474L177.422 84.8624ZM192.586 32.7496L192.011 33.6294L195.382 34.0561L192.586 32.7496ZM209.496 116.744L211.881 115.914L214.309 114.728L209.496 116.744ZM190.619 40.3469L190.574 46.6955L193.463 41.4603L190.619 40.3469ZM191.023 72.1148L193.878 72.4252L198.439 72.3664L191.023 72.1148ZM200.818 30.5693L203.427 31.9425L204.252 32.3249L200.818 30.5693ZM193.252 32.0104L192.586 32.7496L196.033 33.3364L193.252 32.0104ZM258.603 102.742L259.653 102.593L259.725 102.274L258.603 102.742ZM219.959 74.066L222.08 74.3272L221.369 72.5315L219.959 74.066ZM220.22 30.6593L220.964 33.8337L222.316 32.0195L220.22 30.6593ZM194.006 31.4062L193.252 32.0104L196.769 32.7484L194.006 31.4062ZM214.734 62.4765L213.267 63.5127L216.972 63.03L214.734 62.4765ZM213.317 65.2977L214.816 66.3632L215.589 65.7791L213.317 65.2977ZM255.746 31.1341L256.951 32.4944L258.064 32.4888L255.746 31.1341ZM259.653 102.593L260.619 102.32L260.749 102.128L259.653 102.593ZM220.544 76.0502L222.653 76.2608L222.08 74.3272L220.544 76.0502ZM194.843 30.9314L194.006 31.4062L197.587 32.2867L194.843 30.9314ZM190.241 94.2255L193.127 93.9702L193.186 84.8554L190.241 94.2255ZM211.982 115.529L214.309 114.728L216.468 113.182L211.982 115.529ZM216.054 61.2903L214.734 62.4765L218.261 61.8746L216.054 61.2903ZM220.964 33.8337L221.412 37.3306L223.044 35.1152L220.964 33.8337ZM256.886 31.1268L258.064 32.4888L259.1 32.5982L256.886 31.1268ZM220.991 78.1712L223.09 78.3276L222.653 76.2608L220.991 78.1712ZM195.761 30.5804L194.843 30.9314L198.484 31.9459L195.761 30.5804ZM190.286 95.9373L193.172 95.638L193.127 93.9702L190.286 95.9373ZM247.848 103.106L249.265 102.621L248.87 32.9206L247.848 103.106ZM214.816 66.3632L216.153 67.5929L217.054 66.8184L214.816 66.3632ZM190.444 97.4717L193.328 97.1329L193.172 95.638L190.444 97.4717ZM217.229 59.9528L216.054 61.2903L219.408 60.5716L217.229 59.9528ZM221.305 80.4243L223.397 80.523L223.09 78.3276L221.305 80.4243ZM221.412 37.3306L221.561 41.141L223.483 38.5247L221.412 37.3306ZM257.948 31.2376L259.1 32.5982L260.056 32.83L257.948 31.2376ZM276.749 28.3961L277.867 31.21L277.413 29.8173L276.749 28.3961ZM196.755 30.3479L195.761 30.5804L199.456 31.7207L196.755 30.3479ZM190.711 98.8347L193.59 98.4606L193.328 97.1329L190.711 98.8347ZM214.193 113.944L216.468 113.182L218.352 111.285L214.193 113.944ZM195.69 72.0529L198.439 72.3664L199.918 72.4188L195.69 72.0529ZM221.489 82.8044L223.578 82.842L223.397 80.523L221.489 82.8044ZM218.259 58.4626L217.229 59.9528L220.413 59.1199L218.259 58.4626ZM221.561 41.141L221.56 43.6907L223.631 42.2393L221.561 41.141ZM191.083 100.032L193.954 99.6272L193.59 98.4606L191.083 100.032ZM258.928 31.474L260.056 32.83L260.927 33.1913L258.928 31.474ZM216.153 67.5929L217.332 68.9824L218.361 68.0175L216.153 67.5929ZM197.824 30.2285L196.755 30.3479L200.5 31.6059L197.824 30.2285ZM221.549 85.3065L223.638 85.2798L223.578 82.842L221.549 85.3065ZM219.146 56.8189L218.259 58.4626L221.279 57.5185L219.146 56.8189ZM221.56 43.6907L221.495 46.2697L223.631 44.7246L221.56 43.6907ZM191.557 101.07L194.419 100.638L193.954 99.6272L191.557 101.07ZM277.867 31.21L278.681 34.3649L278.503 32.5619L277.867 31.21ZM219.892 55.0206L219.146 56.8189L222.007 55.7663L219.892 55.0206ZM221.495 46.2697L221.297 48.692L223.568 47.2383L221.495 46.2697ZM216.123 111.998L218.352 111.285L219.956 109.044L216.123 111.998ZM259.821 31.8435L260.927 33.1913L261.711 33.6894L259.821 31.8435ZM220.498 53.0671L219.892 55.0206L222.598 53.8627L220.498 53.0671ZM221.297 48.692L220.966 50.9577L223.376 49.5991L221.297 48.692ZM220.966 50.9577L220.498 53.0671L223.053 51.8072L220.966 50.9577ZM192.13 101.955L194.978 101.5L194.419 100.638L192.13 101.955ZM198.894 30.2183L197.824 30.2285L201.546 31.5975L198.894 30.2183ZM221.547 93.2568L223.639 93.0254L223.638 85.2798L221.547 93.2568ZM217.332 68.9824L218.357 70.5275L219.513 69.3723L217.332 68.9824ZM247.464 31.5829L247.848 103.106L248.87 32.9206L247.464 31.5829ZM260.625 32.3535L261.711 33.6894L262.404 34.3315L260.625 32.3535ZM217.767 109.698L219.956 109.044L221.276 106.468L217.767 109.698ZM278.681 34.3649L279.189 37.855L279.297 35.6382L278.681 34.3649ZM192.796 102.691L195.63 102.217L194.978 101.5L192.796 102.691ZM255.746 31.1341L247.464 31.5829L256.951 32.4944L255.746 31.1341ZM199.893 30.3269L198.894 30.2183L202.523 31.7049L199.893 30.3269ZM280.017 92.5674L280.607 92.3529L279.99 42.7633L280.017 92.5674ZM221.393 97.1663L223.491 96.834L223.639 93.0254L221.393 97.1663ZM219.12 107.054L221.276 106.468L222.307 103.567L219.12 107.054ZM220.936 100.777L223.047 100.352L223.491 96.834L220.936 100.777ZM220.177 104.077L222.307 103.567L223.047 100.352L220.177 104.077ZM218.357 70.5275L219.231 72.2235L220.515 70.8784L218.357 70.5275ZM193.554 103.286L196.371 102.795L195.63 102.217L193.554 103.286ZM279.189 37.855L279.391 41.6741L279.793 39.0407L279.189 37.855ZM200.818 30.5693L199.893 30.3269L203.427 31.9425L200.818 30.5693ZM194.398 103.744L197.196 103.241L196.371 102.795L194.398 103.744ZM174.495 46.2437L177.791 47.2202L190.574 46.6955L174.495 46.2437ZM219.231 72.2235L219.959 74.066L221.369 72.5315L219.231 72.2235ZM201.663 30.9604L200.818 30.5693L204.252 32.3249L201.663 30.9604ZM211.982 115.529L209.496 116.744L214.309 114.728L211.982 115.529ZM274.575 111.169L275.304 110.474L276.965 108.276L274.575 111.169ZM195.326 104.071L198.103 103.559L197.196 103.241L195.326 104.071ZM190.306 84.8709L190.241 94.2255L193.186 84.8554L190.306 84.8709ZM219.959 74.066L220.544 76.0502L222.08 74.3272L219.959 74.066ZM256.886 31.1268L255.746 31.1341L258.064 32.4888L256.886 31.1268ZM195.69 72.0529L191.023 72.1148L198.439 72.3664L195.69 72.0529ZM276.279 108.912L276.965 108.276L278.317 105.738L276.279 108.912ZM196.334 104.273L199.088 103.755L198.103 103.559L196.334 104.273ZM220.544 76.0502L220.991 78.1712L222.653 76.2608L220.544 76.0502ZM279.908 96.4835L280.501 96.1676L280.607 92.3529L279.908 96.4835ZM213.951 21.5321L216.252 23.1557L214.365 21.3523L213.951 21.5321ZM277.666 106.308L278.317 105.738L279.357 102.869L277.666 106.308ZM190.241 94.2255L190.286 95.9373L193.127 93.9702L190.241 94.2255ZM214.193 113.944L211.982 115.529L216.468 113.182L214.193 113.944ZM279.481 100.085L280.085 99.676L280.501 96.1676L279.481 100.085ZM257.948 31.2376L256.886 31.1268L259.1 32.5982L257.948 31.2376ZM278.733 103.363L279.357 102.869L280.085 99.676L278.733 103.363ZM190.286 95.9373L190.444 97.4717L193.172 95.638L190.286 95.9373ZM220.991 78.1712L221.305 80.4243L223.09 78.3276L220.991 78.1712ZM197.419 104.355L200.148 103.835L199.088 103.755L197.419 104.355ZM279.391 41.6741L280.017 92.5674L279.99 42.7633L279.391 41.6741ZM190.444 97.4717L190.711 98.8347L193.328 97.1329L190.444 97.4717ZM258.928 31.474L257.948 31.2376L260.056 32.83L258.928 31.474ZM221.305 80.4243L221.489 82.8044L223.397 80.523L221.305 80.4243ZM190.711 98.8347L191.083 100.032L193.59 98.4606L190.711 98.8347ZM198.507 104.325L201.211 103.805L200.148 103.835L198.507 104.325ZM216.123 111.998L214.193 113.944L218.352 111.285L216.123 111.998ZM197.203 72.1061L195.69 72.0529L199.918 72.4188L197.203 72.1061ZM221.489 82.8044L221.549 85.3065L223.578 82.842L221.489 82.8044ZM215.597 23.7428L217.859 25.3126L216.252 23.1557L215.597 23.7428ZM191.083 100.032L191.557 101.07L193.954 99.6272L191.083 100.032ZM256.263 103.269L257.474 102.776L249.265 102.621L256.263 103.269ZM259.821 31.8435L258.928 31.474L260.927 33.1913L259.821 31.8435ZM199.524 104.175L202.204 103.658L201.211 103.805L199.524 104.175ZM221.549 85.3065L221.547 93.2568L223.638 85.2798L221.549 85.3065ZM191.557 101.07L192.13 101.955L194.419 100.638L191.557 101.07ZM217.767 109.698L216.123 111.998L219.956 109.044L217.767 109.698ZM260.625 32.3535L259.821 31.8435L261.711 33.6894L260.625 32.3535ZM192.13 101.955L192.796 102.691L194.978 101.5L192.13 101.955ZM261.336 33.0114L260.625 32.3535L262.404 34.3315L261.336 33.0114ZM216.952 26.3101L219.183 27.8163L217.859 25.3126L216.952 26.3101ZM219.12 107.054L217.767 109.698L221.276 106.468L219.12 107.054ZM221.547 93.2568L221.393 97.1663L223.639 93.0254L221.547 93.2568ZM192.796 102.691L193.554 103.286L195.63 102.217L192.796 102.691ZM220.177 104.077L219.12 107.054L222.307 103.567L220.177 104.077ZM221.393 97.1663L220.936 100.777L223.491 96.834L221.393 97.1663ZM220.936 100.777L220.177 104.077L223.047 100.352L220.936 100.777ZM187.875 35.9147L190.864 37.1717L191.146 35.8344L187.875 35.9147ZM188.165 34.5417L191.146 35.8344L191.53 34.6557L188.165 34.5417ZM187.693 37.4566L190.687 38.6737L190.864 37.1717L187.693 37.4566ZM209.22 63.8703L211.653 64.4004L213.267 63.5127L209.22 63.8703ZM188.558 33.3313L191.53 34.6557L192.011 33.6294L188.558 33.3313ZM187.622 39.1741L190.619 40.3469L190.687 38.6737L187.622 39.1741ZM193.554 103.286L194.398 103.744L196.371 102.795L193.554 103.286ZM189.052 32.2772L192.011 33.6294L192.586 32.7496L189.052 32.2772ZM257.422 103.236L258.603 102.742L257.474 102.776L257.422 103.236ZM218.011 29.2264L220.22 30.6593L219.183 27.8163L218.011 29.2264ZM210.924 64.7906L213.317 65.2977L211.653 64.4004L210.924 64.7906ZM189.641 31.3733L192.586 32.7496L193.252 32.0104L189.641 31.3733ZM187.572 45.6907L190.574 46.6955L190.619 40.3469L187.572 45.6907ZM210.874 62.9581L213.267 63.5127L214.734 62.4765L210.874 62.9581ZM194.398 103.744L195.326 104.071L197.196 103.241L194.398 103.744ZM190.323 30.6135L193.252 32.0104L194.006 31.4062L190.323 30.6135ZM258.498 103.083L259.653 102.593L258.603 102.742L258.498 103.083ZM276.279 108.912L274.575 111.169L276.965 108.276L276.279 108.912ZM218.772 32.4835L220.964 33.8337L220.22 30.6593L218.772 32.4835ZM191.095 29.9922L194.006 31.4062L194.843 30.9314L191.095 29.9922ZM212.021 19.685L213.951 21.5321L214.365 21.3523L212.021 19.685ZM259.489 102.804L260.619 102.32L259.653 102.593L259.489 102.804ZM195.326 104.071L196.334 104.273L198.103 103.559L195.326 104.071ZM212.459 65.8837L214.816 66.3632L213.317 65.2977L212.459 65.8837Z" fill="#2D2323"/>
<path d="M175.955 30.1039L175.205 33.3914L174.737 36.9639L175.955 30.1039Z" fill="#332727"/>
<path d="M212.377 61.8934L214.734 62.4765L216.054 61.2904L212.377 61.8934ZM247.848 103.107L256.264 103.27L249.266 102.621L247.848 103.107ZM277.666 106.308L276.279 108.912L278.317 105.738L277.666 106.308ZM280.017 92.5674L279.908 96.4836L280.607 92.3529L280.017 92.5674ZM191.952 29.5035L194.843 30.9314L195.761 30.5805L191.952 29.5035Z" fill="#2D2323"/>
<path d="M178.299 24.4016L176.987 27.1056L175.955 30.104L178.299 24.4016ZM175.955 30.104L174.737 36.964L174.495 46.2438L175.955 30.104Z" fill="#332727"/>
<path d="M278.733 103.363L277.666 106.308L279.356 102.869L278.733 103.363ZM279.908 96.4835L279.481 100.085L280.501 96.1675L279.908 96.4835ZM219.23 36.0725L221.412 37.3306L220.964 33.8337L219.23 36.0725ZM196.334 104.273L197.419 104.355L199.088 103.755L196.334 104.273ZM279.481 100.085L278.733 103.363L280.085 99.676L279.481 100.085Z" fill="#2D2323"/>
<path d="M174.737 36.9641L174.552 40.8178L174.495 46.2438L174.737 36.9641Z" fill="#332727"/>
<path d="M213.729 60.6747L216.054 61.2903L217.229 59.9527L213.729 60.6747ZM192.891 29.1417L195.761 30.5804L196.755 30.3479L192.891 29.1417ZM213.828 67.1454L216.153 67.5928L214.816 66.3632L213.828 67.1454Z" fill="#2D2323"/>
<path d="M181.771 19.8994L178.299 24.4015L175.955 30.1039L181.771 19.8994Z" fill="#332727"/>
<path d="M219.381 39.9839L221.561 41.1411L221.412 37.3307L219.381 39.9839ZM214.933 59.3008L217.229 59.9528L218.259 58.4627L214.933 59.3008Z" fill="#2D2323"/>
<path d="M181.771 19.8994L175.955 30.1039L174.495 46.2437L181.771 19.8994Z" fill="#332727"/>
<path d="M245.983 30.1737L247.464 31.5829L255.746 31.1341L245.983 30.1737ZM213.951 21.5321L215.597 23.7428L216.252 23.1557L213.951 21.5321ZM197.419 104.355L198.507 104.325L200.148 103.835L197.419 104.355ZM277.197 29.7856L277.867 31.2101L276.749 28.3962L277.197 29.7856ZM193.91 28.9015L196.755 30.348L197.824 30.2285L193.91 28.9015ZM187.272 84.8872L190.306 84.8709L177.422 84.8625L187.272 84.8872Z" fill="#2D2323"/>
<path d="M181.771 19.8994L179.894 21.9973L178.3 24.4016L181.771 19.8994Z" fill="#332727"/>
<path d="M219.379 42.6014L221.56 43.6907L221.561 41.1411L219.379 42.6014ZM215.989 57.7701L218.259 58.4627L219.146 56.8189L215.989 57.7701ZM187.572 45.6908L174.495 46.2438L190.574 46.6955L187.572 45.6908ZM219.31 45.2491L221.495 46.2697L221.56 43.6907L219.31 45.2491ZM198.507 104.325L199.524 104.175L201.211 103.805L198.507 104.325ZM216.899 56.0818L219.146 56.8189L219.892 55.0207L216.899 56.0818ZM215.035 68.5716L217.332 68.9824L216.153 67.5929L215.035 68.5716ZM219.106 47.7361L221.297 48.692L221.495 46.2697L219.106 47.7361ZM217.664 54.2349L219.892 55.0207L220.498 53.0671L217.664 54.2349ZM195.003 28.7771L197.824 30.2285L198.894 30.2183L195.003 28.7771ZM218.766 50.0626L220.966 50.9577L221.297 48.692L218.766 50.0626ZM218.286 52.2287L220.498 53.0671L220.966 50.9577L218.286 52.2287ZM278.031 33.0231L278.681 34.3649L277.867 31.21L278.031 33.0231ZM215.597 23.7428L216.952 26.3101L217.859 25.3126L215.597 23.7428ZM196.099 28.7649L198.894 30.2183L199.893 30.3269L196.099 28.7649ZM216.084 70.1577L218.357 70.5275L217.332 68.9824L216.084 70.1577ZM278.552 36.6055L279.189 37.8551L278.681 34.3649L278.552 36.6055ZM188.165 34.5418L187.875 35.9147L191.146 35.8345L188.165 34.5418ZM197.122 28.8748L199.893 30.3269L200.818 30.5693L197.122 28.8748ZM187.875 35.9147L187.693 37.4566L190.864 37.1717L187.875 35.9147ZM188.558 33.3314L188.165 34.5418L191.53 34.6558L188.558 33.3314ZM187.693 37.4566L187.622 39.1742L190.687 38.6737L187.693 37.4566ZM216.952 26.3101L218.011 29.2265L219.183 27.8164L216.952 26.3101ZM256.263 103.27L257.422 103.236L257.474 102.776L256.263 103.27ZM216.978 71.899L219.231 72.2236L218.357 70.5275L216.978 71.899ZM209.22 63.8704L210.924 64.7906L211.653 64.4004L209.22 63.8704ZM189.052 32.2772L188.558 33.3314L192.011 33.6294L189.052 32.2772ZM278.759 40.5263L279.391 41.6742L279.189 37.8551L278.759 40.5263Z" fill="#2D2323"/>
<path d="M186.38 16.6516L183.932 18.1149L181.771 19.8994L186.38 16.6516Z" fill="#332727"/>
<path d="M210.874 62.9581L209.22 63.8704L213.267 63.5127L210.874 62.9581ZM174.089 84.8782L187.272 84.8871L177.422 84.8624L174.089 84.8782ZM189.641 31.3733L189.052 32.2772L192.586 32.7496L189.641 31.3733ZM206.982 117.618L209.496 116.744L211.982 115.529L206.982 117.618ZM187.622 39.1742L187.572 45.6908L190.619 40.347L187.622 39.1742ZM188.014 71.7878L191.023 72.1148L195.69 72.0529L188.014 71.7878ZM198.069 29.1221L200.818 30.5694L201.663 30.9604L198.069 29.1221ZM190.323 30.6136L189.641 31.3733L193.253 32.0105L190.323 30.6136ZM257.422 103.236L258.498 103.083L258.604 102.742L257.422 103.236ZM217.723 73.7908L219.959 74.066L219.231 72.2236L217.723 73.7908ZM218.012 29.2265L218.772 32.4836L220.22 30.6594L218.012 29.2265ZM191.095 29.9922L190.323 30.6136L194.006 31.4063L191.095 29.9922ZM212.377 61.8934L210.874 62.9581L214.734 62.4765L212.377 61.8934ZM210.924 64.7906L212.459 65.8837L213.317 65.2978L210.924 64.7906ZM254.475 29.7004L255.746 31.1341L256.886 31.1268L254.475 29.7004ZM258.498 103.083L259.489 102.804L259.653 102.593L258.498 103.083ZM218.321 75.8282L220.544 76.0502L219.959 74.066L218.321 75.8282ZM191.952 29.5035L191.095 29.9922L194.843 30.9314L191.952 29.5035ZM187.198 94.4946L190.241 94.2255L190.306 84.8709L187.198 94.4946ZM209.529 116.372L211.982 115.529L214.193 113.944L209.529 116.372Z" fill="#2D2323"/>
<path d="M192.148 14.7249L186.38 16.6516L181.771 19.8994L192.148 14.7249Z" fill="#332727"/>
<path d="M213.729 60.6747L212.377 61.8934L216.054 61.2903L213.729 60.6747ZM218.772 32.4835L219.23 36.0725L220.964 33.8337L218.772 32.4835ZM255.645 29.6912L256.886 31.1268L257.948 31.2376L255.645 29.6912ZM218.778 78.0064L220.991 78.1712L220.544 76.0502L218.778 78.0064ZM192.891 29.1417L191.952 29.5035L195.761 30.5804L192.891 29.1417ZM187.243 96.2528L190.286 95.9373L190.241 94.2254L187.243 96.2528ZM246.354 103.618L247.848 103.106L247.464 31.5829L246.354 103.618ZM212.459 65.8837L213.828 67.1454L214.816 66.3632L212.459 65.8837ZM187.404 97.8288L190.444 97.4716L190.286 95.9373L187.404 97.8288ZM214.933 59.3007L213.729 60.6747L217.229 59.9528L214.933 59.3007ZM219.098 80.3203L221.305 80.4243L220.991 78.1712L219.098 80.3203Z" fill="#2D2323"/>
<path d="M174.495 46.2437L187.875 35.9146L188.165 34.5417L174.495 46.2437Z" fill="#332727"/>
<path d="M219.23 36.0725L219.381 39.9839L221.412 37.3306L219.23 36.0725ZM256.735 29.8033L257.948 31.2376L258.928 31.474L256.735 29.8033Z" fill="#2D2323"/>
<path d="M174.495 46.2438L187.693 37.4566L187.875 35.9147L174.495 46.2438ZM174.495 46.2438L188.165 34.5417L188.558 33.3313L174.495 46.2438Z" fill="#332727"/>
<path d="M276.05 26.8987L277.197 29.7855L276.749 28.3961L276.05 26.8987ZM193.91 28.9014L192.891 29.1417L196.755 30.3479L193.91 28.9014Z" fill="#2D2323"/>
<path d="M174.495 46.2438L187.622 39.1742L187.693 37.4567L174.495 46.2438ZM174.495 46.2438L188.558 33.3314L189.052 32.2773L174.495 46.2438Z" fill="#332727"/>
<path d="M187.676 99.2289L190.711 98.8346L190.444 97.4717L187.676 99.2289ZM211.795 114.747L214.193 113.944L216.124 111.998L211.795 114.747ZM192.791 71.7224L195.69 72.0529L197.203 72.1061L192.791 71.7224Z" fill="#2D2323"/>
<path d="M174.495 46.2437L189.052 32.2772L189.641 31.3732L174.495 46.2437Z" fill="#332727"/>
<path d="M219.286 82.7647L221.489 82.8043L221.305 80.4243L219.286 82.7647ZM215.99 57.7701L214.933 59.3007L218.259 58.4627L215.99 57.7701Z" fill="#2D2323"/>
<path d="M174.495 46.2438L187.572 45.6908L187.622 39.1741L174.495 46.2438ZM174.495 46.2438L189.641 31.3732L190.323 30.6135L174.495 46.2438Z" fill="#332727"/>
<path d="M219.381 39.9839L219.379 42.6013L221.561 41.141L219.381 39.9839ZM188.057 100.459L191.083 100.032L190.711 98.8346L188.057 100.459Z" fill="#2D2323"/>
<path d="M192.148 14.7249L189.117 15.5184L186.38 16.6516L192.148 14.7249Z" fill="#332727"/>
<path d="M257.739 30.0446L258.928 31.474L259.821 31.8434L257.739 30.0446Z" fill="#2D2323"/>
<path d="M204.739 15.2891L181.771 19.8994L174.495 46.2437L204.739 15.2891Z" fill="#332727"/>
<path d="M213.828 67.1455L215.035 68.5716L216.153 67.5929L213.828 67.1455ZM195.003 28.7771L193.91 28.9015L197.824 30.2285L195.003 28.7771ZM219.346 85.3346L221.549 85.3065L221.489 82.8044L219.346 85.3346ZM216.899 56.0818L215.99 57.7701L219.147 56.8189L216.899 56.0818ZM219.379 42.6014L219.31 45.2491L221.561 43.6907L219.379 42.6014Z" fill="#2D2323"/>
<path d="M174.089 84.8782L174 93.325L174.104 97.2684L174.089 84.8782Z" fill="#332727"/>
<path d="M188.541 101.526L191.557 101.07L191.083 100.032L188.541 101.526ZM277.197 29.7855L278.031 33.0231L277.867 31.21L277.197 29.7855ZM217.664 54.2349L216.899 56.0818L219.892 55.0206L217.664 54.2349ZM219.31 45.2491L219.107 47.7361L221.495 46.2697L219.31 45.2491ZM213.774 112.749L216.124 111.998L217.767 109.698L213.774 112.749ZM258.656 30.4226L259.822 31.8435L260.625 32.3535L258.656 30.4226ZM218.286 52.2286L217.664 54.2349L220.498 53.0671L218.286 52.2286ZM219.107 47.7361L218.766 50.0625L221.297 48.692L219.107 47.7361ZM218.766 50.0625L218.286 52.2286L220.966 50.9577L218.766 50.0625ZM189.126 102.435L192.13 101.955L191.557 101.07L189.126 102.435ZM196.099 28.7648L195.003 28.7771L198.894 30.2183L196.099 28.7648ZM219.34 93.5008L221.547 93.2568L221.549 85.3064L219.34 93.5008ZM215.035 68.5716L216.084 70.1576L217.333 68.9824L215.035 68.5716ZM259.48 30.9451L260.625 32.3535L261.336 33.0114L259.48 30.9451ZM245.983 30.1736L246.354 103.618L247.464 31.5829L245.983 30.1736ZM215.46 110.388L217.767 109.698L219.12 107.054L215.46 110.388ZM278.031 33.0231L278.552 36.6055L278.681 34.3649L278.031 33.0231ZM189.808 103.192L192.796 102.691L192.13 101.955L189.808 103.192ZM254.475 29.7004L245.983 30.1736L255.746 31.1341L254.475 29.7004ZM197.122 28.8747L196.099 28.7648L199.894 30.3269L197.122 28.8747ZM279.396 92.7935L280.017 92.5673L279.391 41.6741L279.396 92.7935ZM219.181 97.5166L221.393 97.1662L221.547 93.2568L219.181 97.5166ZM216.847 107.673L219.12 107.054L220.178 104.077L216.847 107.673ZM218.711 101.226L220.936 100.777L221.393 97.1662L218.711 101.226Z" fill="#2D2323"/>
<path d="M174.104 97.2683L174.503 100.924L175.196 104.286L174.104 97.2683Z" fill="#332727"/>
<path d="M217.932 104.615L220.177 104.077L220.936 100.777L217.932 104.615ZM216.084 70.1576L216.978 71.8989L218.357 70.5275L216.084 70.1576ZM190.583 103.803L193.554 103.286L192.796 102.691L190.583 103.803ZM278.552 36.6056L278.759 40.5263L279.189 37.8551L278.552 36.6056ZM198.069 29.1222L197.122 28.8748L200.818 30.5694L198.069 29.1222Z" fill="#2D2323"/>
<path d="M204.739 15.2891L174.495 46.2437L190.323 30.6135L204.739 15.2891Z" fill="#332727"/>
<path d="M191.448 104.273L194.398 103.743L193.554 103.286L191.448 104.273Z" fill="#2D2323"/>
<path d="M204.739 15.2891L192.148 14.7249L181.771 19.8994L204.739 15.2891Z" fill="#332727"/>
<path d="M216.978 71.8989L217.723 73.7907L219.231 72.2235L216.978 71.8989ZM198.933 29.5223L198.069 29.1221L201.663 30.9604L198.933 29.5223Z" fill="#2D2323"/>
<path d="M174.104 97.2683L175.196 104.286L177.466 110.098L174.104 97.2683Z" fill="#332727"/>
<path d="M209.529 116.372L206.982 117.618L211.982 115.529L209.529 116.372ZM273.806 111.901L274.575 111.169L276.279 108.912L273.806 111.901ZM192.398 104.61L195.326 104.071L194.398 103.744L192.398 104.61ZM187.272 84.8871L187.198 94.4946L190.306 84.8708L187.272 84.8871Z" fill="#2D2323"/>
<path d="M187.198 94.4946L174.089 84.8782L174.104 97.2684L187.198 94.4946Z" fill="#332727"/>
<path d="M217.723 73.7908L218.321 75.8282L219.959 74.066L217.723 73.7908ZM255.645 29.6912L254.475 29.7004L256.886 31.1268L255.645 29.6912ZM192.791 71.7224L188.014 71.7878L195.69 72.0529L192.791 71.7224ZM275.556 109.584L276.279 108.912L277.666 106.308L275.556 109.584ZM193.43 104.818L196.334 104.273L195.326 104.071L193.43 104.818Z" fill="#2D2323"/>
<path d="M175.196 104.286L176.183 107.346L177.465 110.098L175.196 104.286Z" fill="#332727"/>
<path d="M218.321 75.8282L218.778 78.0065L220.544 76.0502L218.321 75.8282Z" fill="#2D2323"/>
<path d="M198.829 14.2182L195.478 14.2816L192.149 14.7258L198.829 14.2182Z" fill="#332727"/>
<path d="M279.283 96.8167L279.908 96.4835L280.017 92.5673L279.283 96.8167ZM211.526 19.8198L213.951 21.5321L212.021 19.685L211.526 19.8198ZM276.98 106.909L277.666 106.308L278.733 103.363L276.98 106.909ZM187.198 94.4946L187.243 96.2528L190.241 94.2255L187.198 94.4946ZM211.795 114.747L209.529 116.372L214.193 113.944L211.795 114.747ZM278.844 100.517L279.481 100.085L279.908 96.4835L278.844 100.517ZM256.735 29.8033L255.645 29.6911L257.948 31.2376L256.735 29.8033ZM278.076 103.884L278.733 103.363L279.481 100.085L278.076 103.884ZM187.243 96.2528L187.404 97.8288L190.286 95.9373L187.243 96.2528ZM218.778 78.0064L219.098 80.3203L220.991 78.1712L218.778 78.0064ZM194.541 104.903L197.419 104.355L196.334 104.273L194.541 104.903ZM278.759 40.5263L279.396 92.7935L279.391 41.6741L278.759 40.5263ZM187.404 97.8288L187.676 99.2289L190.444 97.4716L187.404 97.8288ZM257.739 30.0445L256.735 29.8033L258.928 31.474L257.739 30.0445ZM219.098 80.3203L219.286 82.7647L221.305 80.4243L219.098 80.3203ZM187.676 99.2289L188.056 100.459L190.711 98.8346L187.676 99.2289Z" fill="#2D2323"/>
<path d="M187.198 94.4946L174.104 97.2684L177.466 110.098L187.198 94.4946Z" fill="#332727"/>
<path d="M195.655 104.873L198.507 104.325L197.419 104.355L195.655 104.873ZM213.774 112.749L211.795 114.747L216.123 111.998L213.774 112.749ZM194.341 71.7766L192.791 71.7224L197.203 72.1061L194.341 71.7766ZM219.286 82.7647L219.346 85.3346L221.489 82.8044L219.286 82.7647Z" fill="#2D2323"/>
<path d="M204.739 15.2891L190.323 30.6135L191.095 29.9921L204.739 15.2891Z" fill="#332727"/>
<path d="M213.21 22.0871L215.597 23.7428L213.951 21.5321L213.21 22.0871ZM188.057 100.459L188.541 101.526L191.083 100.032L188.057 100.459ZM254.987 103.791L256.264 103.27L247.848 103.107L254.987 103.791ZM258.656 30.4226L257.739 30.0446L259.822 31.8435L258.656 30.4226Z" fill="#2D2323"/>
<path d="M187.198 94.4946L187.272 84.8871L174.089 84.8782L187.198 94.4946ZM204.739 15.2891L191.095 29.9922L191.952 29.5034L204.739 15.2891Z" fill="#332727"/>
<path d="M196.696 104.719L199.524 104.175L198.507 104.325L196.696 104.719ZM219.346 85.3346L219.34 93.5008L221.549 85.3065L219.346 85.3346ZM188.541 101.526L189.126 102.434L191.557 101.07L188.541 101.526Z" fill="#2D2323"/>
<path d="M204.739 15.2891L191.952 29.5034L192.891 29.1417L204.739 15.2891ZM204.739 15.2891L198.829 14.2182L192.149 14.7249L204.739 15.2891Z" fill="#332727"/>
<path d="M215.459 110.388L213.774 112.749L217.767 109.698L215.459 110.388ZM259.48 30.9451L258.656 30.4226L260.625 32.3535L259.48 30.9451Z" fill="#2D2323"/>
<path d="M177.465 110.098L179.044 112.534L180.92 114.643L177.465 110.098ZM204.739 15.2891L192.891 29.1417L193.91 28.9014L204.739 15.2891Z" fill="#332727"/>
<path d="M189.126 102.435L189.808 103.192L192.13 101.955L189.126 102.435ZM260.209 31.6196L259.48 30.9451L261.336 33.0114L260.209 31.6196ZM214.597 24.7213L216.952 26.3101L215.597 23.7428L214.597 24.7213ZM216.847 107.673L215.459 110.388L219.12 107.055L216.847 107.673ZM219.34 93.5009L219.181 97.5167L221.547 93.2569L219.34 93.5009Z" fill="#2D2323"/>
<path d="M204.739 15.2891L193.91 28.9014L195.003 28.7771L204.739 15.2891Z" fill="#332727"/>
<path d="M189.808 103.192L190.583 103.803L192.796 102.691L189.808 103.192ZM217.932 104.615L216.847 107.673L220.177 104.077L217.932 104.615ZM219.181 97.5166L218.711 101.226L221.393 97.1663L219.181 97.5166Z" fill="#2D2323"/>
<path d="M188.124 57.1569L188.014 71.7878L192.791 71.7225L188.124 57.1569Z" fill="#332727"/>
<path d="M218.711 101.226L217.932 104.615L220.936 100.777L218.711 101.226Z" fill="#2D2323"/>
<path d="M204.739 15.2891L195.003 28.777L196.099 28.7648L204.739 15.2891Z" fill="#332727"/>
<path d="M206.654 63.3112L209.22 63.8703L210.874 62.958L206.654 63.3112ZM190.583 103.803L191.448 104.274L193.554 103.286L190.583 103.803ZM256.175 103.756L257.422 103.236L256.263 103.269L256.175 103.756ZM215.682 27.7148L218.011 29.2265L216.952 26.3101L215.682 27.7148Z" fill="#2D2323"/>
<path d="M204.739 15.2891L196.099 28.7649L197.122 28.8748L204.739 15.2891Z" fill="#332727"/>
<path d="M208.4 64.2553L210.924 64.79L209.221 63.8703L208.4 64.2553Z" fill="#2D2323"/>
<path d="M187.243 96.2528L187.198 94.4946L177.465 110.098L187.243 96.2528ZM177.465 110.098L180.92 114.643L185.572 117.849L177.465 110.098ZM187.404 97.8288L187.243 96.2528L177.465 110.098L187.404 97.8288ZM204.739 15.2891L201.918 14.5554L198.829 14.2182L204.739 15.2891Z" fill="#332727"/>
<path d="M208.349 62.3727L210.874 62.9575L212.377 61.8934L208.349 62.3727Z" fill="#2D2323"/>
<path d="M204.739 15.2891L197.122 28.8748L198.069 29.1221L204.739 15.2891Z" fill="#332727"/>
<path d="M191.448 104.273L192.398 104.609L194.398 103.743L191.448 104.273ZM257.28 103.6L258.499 103.083L257.422 103.236L257.28 103.6Z" fill="#2D2323"/>
<path d="M187.676 99.2289L187.404 97.8288L177.465 110.098L187.676 99.2289ZM188.124 57.1569L192.791 71.7224L194.341 71.7766L188.124 57.1569Z" fill="#332727"/>
<path d="M275.556 109.584L273.806 111.901L276.279 108.912L275.556 109.584Z" fill="#2D2323"/>
<path d="M188.056 100.459L187.676 99.2289L177.465 110.098L188.056 100.459ZM204.739 15.2891L198.069 29.1221L198.933 29.5222L204.739 15.2891Z" fill="#332727"/>
<path d="M216.46 31.0591L218.772 32.4835L218.011 29.2264L216.46 31.0591ZM209.548 17.9269L211.526 19.8199L212.021 19.6851L209.548 17.9269Z" fill="#2D2323"/>
<path d="M188.541 101.526L188.056 100.459L177.465 110.098L188.541 101.526Z" fill="#332727"/>
<path d="M258.297 103.314L259.489 102.804L258.498 103.083L258.297 103.314ZM192.398 104.61L193.43 104.818L195.326 104.071L192.398 104.61ZM209.971 65.3777L212.459 65.8837L210.924 64.7906L209.971 65.3777ZM209.89 61.2782L212.377 61.8934L213.729 60.6747L209.89 61.2782Z" fill="#2D2323"/>
<path d="M204.739 15.2891L198.933 29.5222L199.712 30.0904L204.739 15.2891Z" fill="#332727"/>
<path d="M246.354 103.618L254.987 103.79L247.848 103.106L246.354 103.618ZM276.98 106.909L275.556 109.584L277.666 106.308L276.98 106.909ZM279.396 92.7935L279.283 96.8166L280.017 92.5673L279.396 92.7935Z" fill="#2D2323"/>
<path d="M188.124 57.1569L194.341 71.7766L195.745 71.9897L188.124 57.1569ZM189.126 102.435L188.541 101.526L177.465 110.098L189.126 102.435ZM193.664 56.9923L188.124 57.1569L199.938 74.6188L193.664 56.9923ZM204.739 15.2891L199.712 30.0905L200.4 30.8422L204.739 15.2891Z" fill="#332727"/>
<path d="M278.076 103.884L276.98 106.909L278.733 103.363L278.076 103.884ZM279.283 96.8168L278.844 100.517L279.908 96.4836L279.283 96.8168Z" fill="#2D2323"/>
<path d="M180.92 114.643L183.095 116.419L185.572 117.849L180.92 114.643ZM189.808 103.192L189.126 102.435L177.465 110.098L189.808 103.192Z" fill="#332727"/>
<path d="M216.927 34.7451L219.23 36.0725L218.772 32.4835L216.927 34.7451ZM193.43 104.818L194.541 104.904L196.334 104.273L193.43 104.818ZM278.844 100.517L278.076 103.884L279.481 100.085L278.844 100.517ZM211.277 60.0252L213.729 60.6747L214.933 59.3007L211.277 60.0252Z" fill="#2D2323"/>
<path d="M188.124 57.1569L195.745 71.9897L197.005 72.3712L188.124 57.1569ZM204.739 15.2891L200.4 30.8422L200.993 31.7926L204.739 15.2891ZM190.583 103.803L189.808 103.192L177.465 110.098L190.583 103.803Z" fill="#332727"/>
<path d="M211.374 66.673L213.828 67.1448L212.459 65.8837L211.374 66.673Z" fill="#2D2323"/>
<path d="M204.739 15.2891L200.993 31.7926L201.487 32.9572L204.739 15.2891Z" fill="#332727"/>
<path d="M217.08 38.763L219.381 39.9839L219.23 36.0725L217.08 38.763ZM212.511 58.6127L214.933 59.3007L215.989 57.7701L212.511 58.6127ZM244.421 28.687L245.983 30.1737L254.475 29.7004L244.421 28.687ZM211.526 19.8199L213.21 22.0871L213.951 21.5321L211.526 19.8199ZM194.541 104.904L195.655 104.873L197.419 104.355L194.541 104.904Z" fill="#2D2323"/>
<path d="M191.448 104.274L190.583 103.803L177.465 110.098L191.448 104.274ZM188.124 57.1569L197.005 72.3712L198.123 72.9304L188.124 57.1569ZM204.739 15.2891L201.487 32.9572L201.876 34.3512L204.739 15.2891Z" fill="#332727"/>
<path d="M276.49 28.2825L277.197 29.7856L276.05 26.8987L276.49 28.2825ZM217.077 41.4519L219.379 42.6014L219.381 39.9839L217.077 41.4519ZM213.595 57.0393L215.99 57.7701L216.899 56.0818L213.595 57.0393Z" fill="#2D2323"/>
<path d="M204.739 15.2891L201.876 34.3512L202.156 35.9898L204.739 15.2891ZM192.398 104.61L191.448 104.274L177.465 110.098L192.398 104.61ZM188.124 57.1569L198.123 72.9304L199.1 73.6765L188.124 57.1569ZM204.739 15.2891L202.156 35.9898L202.324 37.8882L204.739 15.2891Z" fill="#332727"/>
<path d="M217.005 44.1721L219.31 45.2491L219.379 42.6014L217.005 44.1721ZM195.655 104.873L196.696 104.719L198.507 104.325L195.655 104.873ZM214.528 55.304L216.899 56.0818L217.664 54.2349L214.528 55.304ZM212.61 68.1381L215.035 68.5716L213.828 67.1455L212.61 68.1381Z" fill="#2D2323"/>
<path d="M204.739 15.2891L202.324 37.8882L202.374 40.0615L204.739 15.2891Z" fill="#332727"/>
<path d="M216.795 46.7274L219.106 47.7361L219.31 45.2491L216.795 46.7274Z" fill="#2D2323"/>
<path d="M193.43 104.818L192.398 104.61L177.465 110.098L193.43 104.818Z" fill="#332727"/>
<path d="M215.313 53.4058L217.664 54.2349L218.285 52.2286L215.313 53.4058Z" fill="#2D2323"/>
<path d="M194.951 56.8973L193.664 56.9923L201.207 77.1282L194.951 56.8973Z" fill="#332727"/>
<path d="M216.444 49.118L218.766 50.0626L219.106 47.7361L216.444 49.118Z" fill="#2D2323"/>
<path d="M188.124 57.1569L199.1 73.6766L199.938 74.6188L188.124 57.1569Z" fill="#332727"/>
<path d="M215.951 51.3439L218.286 52.2286L218.766 50.0625L215.951 51.3439ZM277.346 31.6072L278.031 33.0231L277.197 29.7855L277.346 31.6072Z" fill="#2D2323"/>
<path d="M204.739 15.2891L202.374 40.0614L202.348 45.8027L204.739 15.2891Z" fill="#332727"/>
<path d="M213.21 22.0871L214.597 24.7213L215.597 23.7428L213.21 22.0871Z" fill="#2D2323"/>
<path d="M194.541 104.904L193.43 104.818L177.465 110.098L194.541 104.904ZM196.151 56.6842L194.951 56.8973L201.207 77.1281L196.151 56.6842ZM209.548 17.9269L207.284 16.4147L204.739 15.2891L209.548 17.9269Z" fill="#332727"/>
<path d="M213.684 69.7668L216.084 70.1569L215.035 68.5716L213.684 69.7668Z" fill="#2D2323"/>
<path d="M177.465 110.098L185.572 117.849L198.273 119.898L177.465 110.098Z" fill="#332727"/>
<path d="M277.881 35.2869L278.552 36.6056L278.031 33.0231L277.881 35.2869Z" fill="#2D2323"/>
<path d="M197.26 56.3425L196.151 56.6842L201.642 78.7133L197.26 56.3425Z" fill="#332727"/>
<path d="M214.598 24.7213L215.682 27.7148L216.952 26.3101L214.598 24.7213ZM254.987 103.791L256.175 103.756L256.264 103.27L254.987 103.791ZM214.601 71.5564L216.978 71.899L216.084 70.1577L214.601 71.5564ZM206.655 63.3112L208.4 64.2556L209.221 63.8704L206.655 63.3112Z" fill="#2D2323"/>
<path d="M198.272 55.8619L197.26 56.3425L201.642 78.7133L198.272 55.8619Z" fill="#332727"/>
<path d="M278.093 39.3148L278.759 40.5262L278.552 36.6056L278.093 39.3148Z" fill="#2D2323"/>
<path d="M193.664 56.9924L199.938 74.6188L200.64 75.7663L193.664 56.9924Z" fill="#332727"/>
<path d="M208.349 62.373L206.654 63.3112L210.874 62.9581L208.349 62.373ZM204.329 118.541L206.982 117.618L209.529 116.372L204.329 118.541Z" fill="#2D2323"/>
<path d="M185.572 117.849L188.354 118.925L191.443 119.634L185.572 117.849ZM193.664 56.9923L200.64 75.7663L201.207 77.1281L193.664 56.9923ZM199.184 55.2319L198.272 55.8619L201.946 80.5306L199.184 55.2319ZM213.21 22.087L209.549 17.9269L204.739 15.2891L213.21 22.087Z" fill="#332727"/>
<path d="M256.175 103.757L257.28 103.601L257.422 103.236L256.175 103.757Z" fill="#2D2323"/>
<path d="M204.739 15.2891L202.348 45.8027L202.174 84.8972L204.739 15.2891Z" fill="#332727"/>
<path d="M215.363 73.4994L217.723 73.7898L216.978 71.899L215.363 73.4994Z" fill="#2D2323"/>
<path d="M199.989 54.4424L199.183 55.2319L201.946 80.5306L199.989 54.4424Z" fill="#332727"/>
<path d="M215.682 27.7149L216.46 31.0592L218.012 29.2265L215.682 27.7149ZM209.89 61.2782L208.349 62.373L212.377 61.8934L209.89 61.2782ZM208.4 64.2556L209.971 65.3777L210.924 64.7906L208.4 64.2556ZM253.134 28.1873L254.475 29.7005L255.645 29.6912L253.134 28.1873Z" fill="#2D2323"/>
<path d="M200.684 53.4832L199.989 54.4424L202.123 82.589L200.684 53.4832Z" fill="#332727"/>
<path d="M257.28 103.601L258.297 103.314L258.498 103.083L257.28 103.601Z" fill="#2D2323"/>
<path d="M196.151 56.6842L201.207 77.1282L201.642 78.7133L196.151 56.6842Z" fill="#332727"/>
<path d="M215.975 75.5939L218.321 75.8282L217.723 73.7907L215.975 75.5939Z" fill="#2D2323"/>
<path d="M201.265 52.3445L200.684 53.4832L202.123 82.589L201.265 52.3445ZM201.725 51.0165L201.265 52.3445L202.123 82.589L201.725 51.0165ZM202.348 45.8027L202.271 47.7547L202.174 84.8972L202.348 45.8027ZM202.271 47.7547L202.062 49.4897L202.174 84.8972L202.271 47.7547ZM202.062 49.4897L201.725 51.0165L202.174 84.8972L202.062 49.4897Z" fill="#332727"/>
<path d="M206.941 117.263L209.529 116.372L211.795 114.747L206.941 117.263ZM211.277 60.0253L209.89 61.2782L213.729 60.6747L211.277 60.0253ZM216.46 31.0592L216.927 34.7451L218.772 32.4836L216.46 31.0592ZM254.335 28.1758L255.645 29.6912L256.735 29.8033L254.335 28.1758ZM216.443 77.8324L218.778 78.0064L218.321 75.8282L216.443 77.8324Z" fill="#2D2323"/>
<path d="M198.272 55.8619L201.642 78.7133L201.946 80.5306L198.272 55.8619Z" fill="#332727"/>
<path d="M244.776 104.159L246.354 103.618L245.983 30.1736L244.776 104.159Z" fill="#2D2323"/>
<path d="M213.21 22.087L211.526 19.8199L209.548 17.9269L213.21 22.087Z" fill="#332727"/>
<path d="M209.971 65.3777L211.374 66.6734L212.459 65.8836L209.971 65.3777ZM212.511 58.6127L211.277 60.0252L214.933 59.3007L212.511 58.6127ZM216.77 80.2105L219.098 80.3203L218.778 78.0064L216.77 80.2105ZM216.927 34.7451L217.08 38.7629L219.23 36.0725L216.927 34.7451ZM255.453 28.2893L256.734 29.8033L257.739 30.0446L255.453 28.2893Z" fill="#2D2323"/>
<path d="M185.572 117.849L191.443 119.634L198.273 119.898L185.572 117.849Z" fill="#332727"/>
<path d="M275.313 25.3189L276.49 28.2825L276.05 26.8988L275.313 25.3189Z" fill="#2D2323"/>
<path d="M199.989 54.4424L201.946 80.5306L202.123 82.589L199.989 54.4424ZM204.739 15.2891L202.174 84.8972L202.137 93.1571L204.739 15.2891ZM202.067 95.3507L206.655 63.3112L204.739 15.2891L202.067 95.3507Z" fill="#332727"/>
<path d="M209.264 115.594L211.795 114.747L213.774 112.749L209.264 115.594Z" fill="#2D2323"/>
<path d="M216.927 34.7451L213.21 22.087L204.739 15.2891L216.927 34.7451Z" fill="#332727"/>
<path d="M216.961 82.7229L219.286 82.7647L219.098 80.3203L216.961 82.7229ZM213.595 57.0393L212.511 58.6127L215.989 57.77L213.595 57.0393ZM217.08 38.7629L217.076 41.4518L219.381 39.9838L217.08 38.7629Z" fill="#2D2323"/>
<path d="M204.739 15.2891L202.137 93.1571L202.067 95.3507L204.739 15.2891ZM201.725 51.0165L202.123 82.589L202.174 84.8972L201.725 51.0165Z" fill="#332727"/>
<path d="M256.484 28.5356L257.739 30.0446L258.656 30.4226L256.484 28.5356ZM211.374 66.6734L212.61 68.1381L213.828 67.1454L211.374 66.6734ZM217.021 85.3643L219.346 85.3346L219.286 82.7647L217.021 85.3643ZM214.528 55.3039L213.595 57.0393L216.899 56.0818L214.528 55.3039ZM217.076 41.4519L217.005 44.1721L219.379 42.6013L217.076 41.4519Z" fill="#2D2323"/>
<path d="M194.541 104.904L177.465 110.098L215.561 105.184L194.541 104.904Z" fill="#332727"/>
<path d="M276.49 28.2825L277.346 31.6072L277.197 29.7855L276.49 28.2825ZM215.313 53.4057L214.528 55.3039L217.664 54.2348L215.313 53.4057Z" fill="#2D2323"/>
<path d="M206.654 63.3112L214.528 55.3039L204.739 15.2891L206.654 63.3112Z" fill="#332727"/>
<path d="M217.005 44.1721L216.795 46.7274L219.31 45.2491L217.005 44.1721ZM211.294 113.542L213.774 112.749L215.459 110.388L211.294 113.542ZM257.425 28.9226L258.656 30.4226L259.48 30.9451L257.425 28.9226ZM215.951 51.3439L215.313 53.4057L218.286 52.2287L215.951 51.3439ZM216.795 46.7274L216.444 49.118L219.106 47.7361L216.795 46.7274ZM216.444 49.118L215.951 51.3439L218.766 50.0625L216.444 49.118ZM217.011 93.7584L219.34 93.5008L219.346 85.3346L217.011 93.7584ZM212.61 68.1381L213.684 69.7674L215.035 68.5716L212.61 68.1381ZM258.271 29.4581L259.48 30.9451L260.209 31.6196L258.271 29.4581ZM244.421 28.6869L244.776 104.159L245.983 30.1736L244.421 28.6869ZM213.023 111.116L215.459 110.388L216.847 107.673L213.023 111.116ZM277.346 31.6072L277.881 35.2869L278.031 33.0231L277.346 31.6072ZM253.134 28.1872L244.421 28.6869L254.475 29.7004L253.134 28.1872Z" fill="#2D2323"/>
<path d="M214.528 55.3039L216.927 34.7451L204.739 15.2891L214.528 55.3039ZM191.443 119.634L194.844 119.966L198.273 119.898L191.443 119.634Z" fill="#332727"/>
<path d="M278.739 93.0325L279.396 92.7936L278.759 40.5262L278.739 93.0325ZM216.845 97.8865L219.181 97.5166L219.34 93.5008L216.845 97.8865Z" fill="#2D2323"/>
<path d="M215.682 27.7148L214.598 24.7213L213.21 22.0871L215.682 27.7148Z" fill="#332727"/>
<path d="M214.447 108.327L216.847 107.673L217.932 104.615L214.447 108.327Z" fill="#2D2323"/>
<path d="M177.465 110.098L198.273 119.898L215.561 105.184L177.465 110.098Z" fill="#332727"/>
<path d="M216.361 101.699L218.711 101.226L219.181 97.5166L216.361 101.699ZM215.561 105.184L217.932 104.615L218.711 101.226L215.561 105.184ZM213.684 69.7673L214.601 71.5563L216.084 70.1576L213.684 69.7673ZM277.881 35.2868L278.093 39.3148L278.552 36.6055L277.881 35.2868Z" fill="#2D2323"/>
<path d="M202.067 95.3507L201.88 97.2766L206.654 63.3112L202.067 95.3507ZM216.927 34.7451L215.682 27.7149L213.21 22.0871L216.927 34.7451ZM206.654 63.3112L208.349 62.373L209.89 61.2782L206.654 63.3112Z" fill="#332727"/>
<path d="M214.601 71.5563L215.363 73.5002L216.978 71.8989L214.601 71.5563Z" fill="#2D2323"/>
<path d="M209.971 65.3777L208.4 64.2556L206.655 63.3112L209.971 65.3777Z" fill="#332727"/>
<path d="M206.941 117.263L204.329 118.541L209.529 116.372L206.941 117.263ZM272.994 112.673L273.806 111.901L275.556 109.584L272.994 112.673ZM215.363 73.5002L215.975 75.5939L217.723 73.7907L215.363 73.5002Z" fill="#2D2323"/>
<path d="M206.655 63.3112L209.89 61.2782L214.528 55.304L206.655 63.3112Z" fill="#332727"/>
<path d="M254.335 28.1758L253.135 28.1872L255.645 29.6903L254.335 28.1758Z" fill="#2D2323"/>
<path d="M216.927 34.7451L216.46 31.0592L215.682 27.7149L216.927 34.7451Z" fill="#332727"/>
<path d="M274.792 110.293L275.556 109.584L276.98 106.909L274.792 110.293Z" fill="#2D2323"/>
<path d="M212.61 68.1382L209.971 65.3777L206.655 63.3112L212.61 68.1382Z" fill="#332727"/>
<path d="M215.975 75.5939L216.443 77.8324L218.321 75.8282L215.975 75.5939Z" fill="#2D2323"/>
<path d="M195.655 104.873L194.541 104.904L215.561 105.183L195.655 104.873Z" fill="#332727"/>
<path d="M278.623 97.1685L279.283 96.8167L279.396 92.7936L278.623 97.1685Z" fill="#2D2323"/>
<path d="M209.89 61.2782L211.277 60.0253L212.511 58.6127L209.89 61.2782Z" fill="#332727"/>
<path d="M276.255 107.544L276.98 106.909L278.076 103.884L276.255 107.544ZM209.264 115.594L206.941 117.263L211.795 114.747L209.264 115.594ZM278.171 100.972L278.844 100.517L279.283 96.8167L278.171 100.972ZM255.453 28.2893L254.335 28.1758L256.735 29.8033L255.453 28.2893ZM277.381 104.434L278.076 103.884L278.844 100.517L277.381 104.434Z" fill="#2D2323"/>
<path d="M196.696 104.719L195.655 104.873L215.561 105.184L196.696 104.719Z" fill="#332727"/>
<path d="M216.443 77.8324L216.77 80.2104L218.778 78.0064L216.443 77.8324Z" fill="#2D2323"/>
<path d="M209.89 61.2782L212.511 58.6127L214.528 55.304L209.89 61.2782Z" fill="#332727"/>
<path d="M278.093 39.3148L278.739 93.0325L278.759 40.5263L278.093 39.3148Z" fill="#2D2323"/>
<path d="M197.661 104.428L196.696 104.719L215.561 105.184L197.661 104.428ZM217.077 41.4519L217.08 38.7629L216.927 34.7451L217.077 41.4519Z" fill="#332727"/>
<path d="M256.484 28.5356L255.453 28.2893L257.739 30.0446L256.484 28.5356ZM216.77 80.2104L216.961 82.7228L219.098 80.3202L216.77 80.2104Z" fill="#2D2323"/>
<path d="M212.61 68.1381L211.374 66.6734L209.971 65.3777L212.61 68.1381ZM212.511 58.6127L213.595 57.0393L214.528 55.304L212.511 58.6127ZM198.545 103.984L197.661 104.428L215.561 105.184L198.545 103.984ZM216.795 46.7274L217.076 41.4519L216.927 34.7451L216.795 46.7274ZM214.528 55.304L216.795 46.7274L216.927 34.7451L214.528 55.304Z" fill="#332727"/>
<path d="M211.294 113.542L209.264 115.594L213.774 112.749L211.294 113.542ZM216.961 82.7228L217.021 85.3642L219.286 82.7647L216.961 82.7228Z" fill="#2D2323"/>
<path d="M198.273 119.898L201.438 119.422L204.329 118.541L198.273 119.898ZM199.342 103.371L198.545 103.984L215.561 105.184L199.342 103.371Z" fill="#332727"/>
<path d="M253.638 104.34L254.987 103.79L246.354 103.618L253.638 104.34Z" fill="#2D2323"/>
<path d="M215.975 75.5939L212.61 68.1381L206.655 63.3112L215.975 75.5939Z" fill="#332727"/>
<path d="M257.425 28.9224L256.484 28.5356L258.656 30.4217L257.425 28.9224Z" fill="#2D2323"/>
<path d="M216.795 46.7274L217.005 44.172L217.076 41.4518L216.795 46.7274ZM201.88 97.2765L215.561 105.184L206.654 63.3112L201.88 97.2765ZM214.528 55.3039L215.313 53.4057L215.951 51.3439L214.528 55.3039ZM200.049 102.576L199.342 103.371L215.561 105.184L200.049 102.576ZM214.528 55.3039L215.951 51.3439L216.795 46.7274L214.528 55.3039ZM215.951 51.3439L216.444 49.1179L216.795 46.7274L215.951 51.3439ZM200.661 101.584L200.049 102.576L215.561 105.184L200.661 101.584Z" fill="#332727"/>
<path d="M217.021 85.3643L217.011 93.7584L219.346 85.3346L217.021 85.3643Z" fill="#2D2323"/>
<path d="M201.172 100.379L200.661 101.584L215.561 105.184L201.172 100.379Z" fill="#332727"/>
<path d="M213.023 111.116L211.294 113.542L215.459 110.388L213.023 111.116ZM258.271 29.4581L257.425 28.9225L259.48 30.9451L258.271 29.4581Z" fill="#2D2323"/>
<path d="M201.58 98.9481L201.172 100.379L215.561 105.184L201.58 98.9481ZM201.88 97.2766L201.58 98.9481L215.561 105.184L201.88 97.2766Z" fill="#332727"/>
<path d="M259.019 30.1501L258.271 29.4581L260.209 31.6196L259.019 30.1501ZM214.447 108.327L213.023 111.116L216.847 107.673L214.447 108.327ZM217.011 93.7584L216.845 97.8865L219.34 93.5008L217.011 93.7584Z" fill="#2D2323"/>
<path d="M214.601 71.5563L213.684 69.7674L212.61 68.1381L214.601 71.5563ZM198.273 119.898L204.329 118.541L209.264 115.594L198.273 119.898Z" fill="#332727"/>
<path d="M215.561 105.184L214.447 108.327L217.932 104.615L215.561 105.184ZM216.846 97.8865L216.361 101.699L219.181 97.5165L216.846 97.8865ZM216.361 101.699L215.561 105.184L218.711 101.226L216.361 101.699Z" fill="#2D2323"/>
<path d="M215.975 75.5939L214.601 71.5563L212.61 68.1381L215.975 75.5939Z" fill="#332727"/>
<path d="M254.858 104.307L256.175 103.756L254.987 103.791L254.858 104.307Z" fill="#2D2323"/>
<path d="M215.561 105.184L215.975 75.5939L206.655 63.3112L215.561 105.184ZM215.975 75.5939L215.363 73.5002L214.601 71.5564L215.975 75.5939Z" fill="#332727"/>
<path d="M255.993 104.146L257.28 103.6L256.175 103.756L255.993 104.146ZM274.792 110.293L272.994 112.674L275.556 109.584L274.792 110.293Z" fill="#2D2323"/>
<path d="M204.329 118.541L206.941 117.263L209.264 115.594L204.329 118.541ZM198.273 119.898L209.264 115.594L215.561 105.184L198.273 119.898Z" fill="#332727"/>
<path d="M257.037 103.852L258.297 103.314L257.28 103.6L257.037 103.852ZM244.776 104.159L253.638 104.341L246.354 103.619L244.776 104.159ZM276.255 107.544L274.792 110.293L276.98 106.909L276.255 107.544ZM278.739 93.0325L278.623 97.1686L279.396 92.7936L278.739 93.0325ZM277.381 104.434L276.255 107.544L278.076 103.884L277.381 104.434Z" fill="#2D2323"/>
<path d="M216.77 80.2104L216.443 77.8324L215.975 75.5939L216.77 80.2104Z" fill="#332727"/>
<path d="M278.623 97.1685L278.171 100.972L279.283 96.8167L278.623 97.1685ZM278.171 100.972L277.381 104.434L278.844 100.517L278.171 100.972Z" fill="#2D2323"/>
<path d="M217.021 85.3643L216.77 80.2104L215.975 75.5939L217.021 85.3643Z" fill="#332727"/>
<path d="M242.77 27.1161L244.421 28.686L253.134 28.1866L242.77 27.1161Z" fill="#2D2323"/>
<path d="M217.021 85.3643L216.961 82.7229L216.77 80.2104L217.021 85.3643Z" fill="#332727"/>
<path d="M275.743 26.6942L276.49 28.2825L275.313 25.3189L275.743 26.6942Z" fill="#2D2323"/>
<path d="M215.561 105.184L217.021 85.3643L215.975 75.5939L215.561 105.184ZM209.264 115.594L211.294 113.542L213.023 111.116L209.264 115.594ZM209.264 115.594L213.023 111.116L215.561 105.184L209.264 115.594Z" fill="#332727"/>
<path d="M276.622 30.1108L277.346 31.6072L276.49 28.2825L276.622 30.1108Z" fill="#2D2323"/>
<path d="M216.845 97.8865L217.011 93.7584L217.021 85.3643L216.845 97.8865ZM215.561 105.184L216.845 97.8865L217.021 85.3643L215.561 105.184ZM213.023 111.116L214.447 108.327L215.561 105.184L213.023 111.116Z" fill="#332727"/>
<path d="M277.171 33.8931L277.881 35.2868L277.346 31.6072L277.171 33.8931Z" fill="#2D2323"/>
<path d="M215.561 105.184L216.361 101.699L216.845 97.8865L215.561 105.184Z" fill="#332727"/>
<path d="M253.638 104.341L254.858 104.306L254.987 103.79L253.638 104.341ZM277.388 38.0343L278.093 39.3148L277.881 35.2868L277.388 38.0343ZM254.858 104.306L255.993 104.146L256.175 103.756L254.858 104.306ZM251.717 26.5876L253.134 28.1871L254.335 28.1758L251.717 26.5876ZM255.993 104.146L257.037 103.852L257.28 103.6L255.993 104.146ZM252.95 26.5739L254.335 28.1758L255.453 28.2892L252.95 26.5739ZM243.108 104.731L244.776 104.159L244.421 28.6869L243.108 104.731ZM254.098 26.6887L255.453 28.2892L256.484 28.5355L254.098 26.6887ZM274.533 23.6495L275.742 26.6941L275.313 25.3188L274.533 23.6495ZM255.158 26.9401L256.484 28.5355L257.425 28.9225L255.158 26.9401Z" fill="#2D2323"/>
<path d="M242.77 27.1161L227.279 13.0564L227.383 119.978L242.77 27.1161Z" fill="#332727"/>
<path d="M275.743 26.6942L276.622 30.1108L276.49 28.2825L275.743 26.6942ZM256.124 27.3366L257.425 28.9226L258.271 29.4581L256.124 27.3366ZM256.993 27.8859L258.271 29.4581L259.019 30.1502L256.993 27.8859ZM242.77 27.1162L243.108 104.731L244.421 28.687L242.77 27.1162Z" fill="#2D2323"/>
<path d="M227.279 13.0564L242.77 27.1161L251.717 26.5876L227.279 13.0564Z" fill="#332727"/>
<path d="M276.622 30.1108L277.171 33.8932L277.346 31.6072L276.622 30.1108ZM251.717 26.5877L242.77 27.1162L253.134 28.1872L251.717 26.5877ZM278.044 93.2851L278.739 93.0324L278.093 39.3149L278.044 93.2851ZM277.171 33.8932L277.388 38.0344L277.881 35.2869L277.171 33.8932Z" fill="#2D2323"/>
<path d="M255.751 11.1212L251.911 11.214L227.279 13.0564L255.751 11.1212Z" fill="#332727"/>
<path d="M272.136 113.491L272.995 112.674L274.792 110.293L272.136 113.491Z" fill="#2D2323"/>
<path d="M227.279 13.0564L251.717 26.5877L252.95 26.574L227.279 13.0564Z" fill="#332727"/>
<path d="M252.95 26.5739L251.717 26.5877L254.335 28.1758L252.95 26.5739ZM273.984 111.043L274.792 110.293L276.255 107.544L273.984 111.043Z" fill="#2D2323"/>
<path d="M227.279 13.0564L252.95 26.574L254.099 26.6888L227.279 13.0564Z" fill="#332727"/>
<path d="M277.925 97.5407L278.623 97.1686L278.739 93.0325L277.925 97.5407ZM275.489 108.215L276.255 107.544L277.382 104.434L275.489 108.215Z" fill="#2D2323"/>
<path d="M227.279 13.0564L254.099 26.6887L255.158 26.9402L227.279 13.0564Z" fill="#332727"/>
<path d="M277.459 101.455L278.171 100.973L278.623 97.1686L277.459 101.455ZM254.098 26.6887L252.95 26.5739L255.453 28.2893L254.098 26.6887ZM276.647 105.016L277.381 104.434L278.171 100.973L276.647 105.016Z" fill="#2D2323"/>
<path d="M227.279 13.0564L255.158 26.9403L256.124 27.3366L227.279 13.0564Z" fill="#332727"/>
<path d="M277.388 38.0343L278.044 93.285L278.093 39.3148L277.388 38.0343Z" fill="#2D2323"/>
<path d="M262.5 12.1686L255.751 11.1212L227.279 13.0564L262.5 12.1686Z" fill="#332727"/>
<path d="M255.158 26.9403L254.099 26.6888L256.484 28.5356L255.158 26.9403ZM252.211 104.923L253.638 104.341L244.776 104.159L252.211 104.923ZM256.124 27.3366L255.158 26.9403L257.425 28.9226L256.124 27.3366ZM256.993 27.8859L256.124 27.3366L258.271 29.4582L256.993 27.8859ZM257.761 28.5963L256.993 27.8859L259.019 30.1502L257.761 28.5963Z" fill="#2D2323"/>
<path d="M243.108 104.731L242.77 27.1161L227.383 119.978L243.108 104.731ZM272.129 19.1423L227.279 13.0564L256.124 27.3365L272.129 19.1423Z" fill="#332727"/>
<path d="M253.465 104.89L254.858 104.307L253.638 104.341L253.465 104.89Z" fill="#2D2323"/>
<path d="M272.129 19.1423L262.5 12.1686L227.279 13.0564L272.129 19.1423Z" fill="#332727"/>
<path d="M254.631 104.724L255.993 104.146L254.858 104.307L254.631 104.724ZM273.984 111.043L272.136 113.491L274.792 110.293L273.984 111.043ZM255.704 104.422L257.037 103.852L255.993 104.146L255.704 104.422ZM243.108 104.731L252.211 104.923L244.776 104.159L243.108 104.731ZM275.488 108.215L273.984 111.043L276.255 107.544L275.488 108.215ZM278.044 93.2851L277.925 97.5407L278.739 93.0325L278.044 93.2851ZM276.647 105.016L275.488 108.215L277.381 104.434L276.647 105.016ZM277.925 97.5407L277.459 101.455L278.623 97.1686L277.925 97.5407ZM277.459 101.455L276.647 105.016L278.171 100.973L277.459 101.455ZM274.952 25.013L275.743 26.6941L274.534 23.6495L274.952 25.013Z" fill="#2D2323"/>
<path d="M262.5 12.1682L259.283 11.4396L255.751 11.1212L262.5 12.1682Z" fill="#332727"/>
<path d="M275.856 28.5268L276.622 30.1108L275.743 26.6942L275.856 28.5268Z" fill="#2D2323"/>
<path d="M252.211 104.923L243.108 104.731L227.383 119.978L252.211 104.923Z" fill="#332727"/>
<path d="M276.419 32.4178L277.171 33.8932L276.622 30.1108L276.419 32.4178ZM252.211 104.923L253.465 104.889L253.638 104.341L252.211 104.923ZM276.642 36.6788L277.388 38.0344L277.171 33.8932L276.642 36.6788ZM253.465 104.889L254.631 104.724L254.858 104.307L253.465 104.889Z" fill="#2D2323"/>
<path d="M272.129 19.1423L256.124 27.3365L256.993 27.8859L272.129 19.1423Z" fill="#332727"/>
<path d="M254.631 104.725L255.704 104.423L255.993 104.146L254.631 104.725Z" fill="#2D2323"/>
<path d="M272.129 19.1423L256.993 27.8858L257.761 28.5962L272.129 19.1423ZM272.129 19.1423L257.761 28.5962L258.424 29.4758L272.129 19.1423ZM267.97 14.8498L265.397 13.3061L262.499 12.1686L267.97 14.8498ZM272.129 19.1423L258.424 29.4758L258.979 30.5324L272.129 19.1423ZM272.129 19.1423L258.979 30.5324L259.42 31.7741L272.129 19.1423ZM272.129 19.1423L259.42 31.7741L259.744 33.2087L272.129 19.1423Z" fill="#332727"/>
<path d="M273.709 21.8829L274.952 25.0131L274.534 23.6496L273.709 21.8829Z" fill="#2D2323"/>
<path d="M272.129 19.1423L259.744 33.2087L259.948 34.844L272.129 19.1423ZM252.211 104.923L227.383 119.978L260.152 120.393L252.211 104.923ZM272.129 19.1423L259.948 34.844L260.027 36.6878L272.129 19.1423ZM272.129 19.1423L267.97 14.8498L262.499 12.1686L272.129 19.1423Z" fill="#332727"/>
<path d="M274.952 25.0131L275.856 28.5268L275.742 26.6942L274.952 25.0131Z" fill="#2D2323"/>
<path d="M227.383 119.978L252.609 120.924L260.152 120.392L227.383 119.978Z" fill="#332727"/>
<path d="M275.856 28.5268L276.419 32.4178L276.622 30.1107L275.856 28.5268ZM277.309 93.5527L278.044 93.2851L277.388 38.0343L277.309 93.5527Z" fill="#2D2323"/>
<path d="M272.129 19.1423L270.215 16.7965L267.97 14.8499L272.129 19.1423Z" fill="#332727"/>
<path d="M276.419 32.4178L276.642 36.6788L277.171 33.8931L276.419 32.4178Z" fill="#2D2323"/>
<path d="M272.129 19.1423L260.027 36.6878L260.493 94.1966L272.129 19.1423Z" fill="#332727"/>
<path d="M271.226 114.357L272.136 113.491L273.984 111.043L271.226 114.357ZM273.128 111.837L273.984 111.043L275.488 108.215L273.128 111.837ZM277.185 97.935L277.925 97.5407L278.044 93.2851L277.185 97.935Z" fill="#2D2323"/>
<path d="M253.465 104.889L252.211 104.923L260.152 120.393L253.465 104.889Z" fill="#332727"/>
<path d="M274.677 108.926L275.489 108.215L276.647 105.016L274.677 108.926Z" fill="#2D2323"/>
<path d="M274.952 25.013L273.709 21.8829L272.129 19.1423L274.952 25.013Z" fill="#332727"/>
<path d="M276.705 101.965L277.459 101.455L277.925 97.5407L276.705 101.965ZM275.869 105.633L276.647 105.016L277.459 101.455L275.869 105.633Z" fill="#2D2323"/>
<path d="M254.631 104.724L253.465 104.889L260.152 120.393L254.631 104.724ZM272.129 19.1423L260.493 94.1966L260.443 96.0908L272.129 19.1423ZM260.443 96.0908L260.264 97.7788L272.129 19.1423L260.443 96.0908Z" fill="#332727"/>
<path d="M276.642 36.6788L277.309 93.5529L277.388 38.0344L276.642 36.6788Z" fill="#2D2323"/>
<path d="M255.704 104.422L254.631 104.724L260.152 120.393L255.704 104.422ZM276.419 32.4178L274.952 25.013L272.129 19.1423L276.419 32.4178ZM256.681 103.975L255.704 104.422L260.152 120.393L256.681 103.975ZM260.264 97.7788L260.152 120.393L272.129 19.1423L260.264 97.7788ZM257.556 103.373L256.681 103.975L260.152 120.393L257.556 103.373ZM258.325 102.609L257.556 103.373L260.152 120.393L258.325 102.609ZM252.609 120.924L256.542 120.868L260.152 120.393L252.609 120.924ZM258.985 101.675L258.325 102.609L260.152 120.393L258.985 101.675ZM259.531 100.564L258.985 101.675L260.152 120.393L259.531 100.564ZM276.419 32.4178L275.856 28.5268L274.952 25.013L276.419 32.4178ZM259.958 99.2674L259.531 100.564L260.152 120.393L259.958 99.2674ZM260.264 97.7788L259.958 99.2674L260.152 120.393L260.264 97.7788ZM276.705 101.965L276.419 32.4178L272.129 19.1423L276.705 101.965Z" fill="#332727"/>
<path d="M273.128 111.837L271.226 114.357L273.984 111.043L273.128 111.837Z" fill="#2D2323"/>
<path d="M260.152 120.393L276.705 101.965L272.129 19.1423L260.152 120.393Z" fill="#332727"/>
<path d="M274.676 108.926L273.128 111.837L275.488 108.215L274.676 108.926ZM277.309 93.5527L277.185 97.935L278.044 93.2851L277.309 93.5527ZM275.869 105.632L274.676 108.926L276.647 105.016L275.869 105.632ZM277.185 97.935L276.705 101.965L277.925 97.5407L277.185 97.935Z" fill="#2D2323"/>
<path d="M260.152 120.393L263.432 119.5L266.374 118.194L260.152 120.393Z" fill="#332727"/>
<path d="M276.705 101.965L275.869 105.632L277.459 101.455L276.705 101.965Z" fill="#2D2323"/>
<path d="M277.309 93.5527L276.642 36.6788L276.419 32.4178L277.309 93.5527ZM260.152 120.393L266.374 118.194L271.227 114.357L260.152 120.393ZM260.152 120.393L271.227 114.357L276.705 101.965L260.152 120.393ZM276.705 101.965L277.309 93.5527L276.419 32.4178L276.705 101.965ZM266.374 118.194L268.974 116.478L271.227 114.357L266.374 118.194ZM271.227 114.357L273.128 111.837L274.677 108.926L271.227 114.357ZM271.227 114.357L274.677 108.926L276.705 101.965L271.227 114.357ZM276.705 101.965L277.185 97.9349L277.309 93.5527L276.705 101.965ZM274.677 108.926L275.869 105.632L276.705 101.965L274.677 108.926Z" fill="#332727"/>
<path d="M199.351 37.584C199.351 45.648 195.751 48.24 189.847 48.24H183.655V62.64H188.983C196.183 62.64 199.351 66.096 199.351 75.456V83.376C199.351 92.304 196.183 94.752 191.143 94.752C186.103 94.752 182.935 92.016 182.935 84.816V75.456H167.959V83.808C167.959 99.936 176.023 109.152 191.575 109.152C207.127 109.152 215.191 99.936 215.191 83.808V75.888C215.191 65.664 212.023 58.176 204.103 54.72C211.735 51.552 215.191 44.784 215.191 33.984V31.392C215.191 15.264 207.127 6.048 191.575 6.048C176.023 6.048 167.959 15.264 167.959 31.392V36.864H182.935V30.384C182.935 23.184 186.103 20.448 191.143 20.448C196.183 20.448 199.351 22.896 199.351 31.968V37.584ZM225.916 108H250.972C266.812 108 274.588 99.216 274.588 83.088V32.112C274.588 15.984 266.812 7.19999 250.972 7.19999H225.916V108ZM250.684 21.6C255.724 21.6 258.748 24.192 258.748 31.392V83.808C258.748 91.008 255.724 93.6 250.684 93.6H241.756V21.6H250.684Z" fill="#F782E4"/>
<path d="M10.0001 66.2378L131 66.2378" stroke="#9C0F86" stroke-width="10" stroke-linecap="round"/>
</g>
<defs>
<filter id="filter0_d" x="0.963623" y="6.048" width="283.643" height="122.876" filterUnits="userSpaceOnUse" color-interpolation-filters="sRGB">
<feFlood flood-opacity="0" result="BackgroundImageFix"/>
<feColorMatrix in="SourceAlpha" type="matrix" values="0 0 0 0 0 0 0 0 0 0 0 0 0 0 0 0 0 0 127 0" result="hardAlpha"/>
<feOffset dy="4"/>
<feGaussianBlur stdDeviation="2"/>
<feComposite in2="hardAlpha" operator="out"/>
<feColorMatrix type="matrix" values="0 0 0 0 0 0 0 0 0 0 0 0 0 0 0 0 0 0 0.25 0"/>
<feBlend mode="normal" in2="BackgroundImageFix" result="effect1_dropShadow"/>
<feBlend mode="normal" in="SourceGraphic" in2="effect1_dropShadow" result="shape"/>
</filter>
</defs>
</svg>
