<svg id="Layer_1" data-name="Layer 1" xmlns="http://www.w3.org/2000/svg" xmlns:xlink="http://www.w3.org/1999/xlink" viewBox="0 0 251.23 153.82"><defs><style>.cls-1{fill:none;}.cls-2{isolation:isolate;}.cls-3{clip-path:url(#clip-path);}.cls-4{fill:#2e0712;}.cls-5{fill:#300712;}.cls-6{fill:#320713;}.cls-7{fill:#340814;}.cls-8{fill:#350814;}.cls-9{fill:#370815;}.cls-10{fill:#390816;}.cls-11{fill:#3b0916;}.cls-12{fill:#3d0917;}.cls-13{fill:#3e0918;}.cls-14{fill:#400918;}.cls-15{fill:#802737;}.cls-16{clip-path:url(#clip-path-2);}.cls-17{fill:#852839;}.cls-18{fill:#8a2a3b;}.cls-19{fill:#8f2b3d;}.cls-20{fill:#942d3f;}.cls-21{fill:#992e41;}.cls-22{fill:#9e3044;}.cls-23{fill:#a33146;}.cls-24{fill:#a83348;}.cls-25{fill:#ad344a;}.cls-26{fill:#b3364c;}.cls-27{fill:#440a1a;}.cls-28{fill:#2d0711;}.cls-29{clip-path:url(#clip-path-3);}.cls-30{clip-path:url(#clip-path-4);}.cls-31{clip-path:url(#clip-path-5);}.cls-32{fill:#b8374e;}.cls-33{fill:#bd3951;}.cls-34{clip-path:url(#clip-path-6);}.cls-35{clip-path:url(#clip-path-7);}.cls-36{fill:#420a19;}.cls-37{clip-path:url(#clip-path-8);}.cls-38{clip-path:url(#clip-path-9);}.cls-39{clip-path:url(#clip-path-10);}.cls-40{clip-path:url(#clip-path-11);}.cls-41{clip-path:url(#clip-path-12);}.cls-42{clip-path:url(#clip-path-13);}.cls-43{clip-path:url(#clip-path-14);}.cls-44{clip-path:url(#clip-path-15);}.cls-45{clip-path:url(#clip-path-16);}.cls-46{clip-path:url(#clip-path-17);}.cls-47{clip-path:url(#clip-path-18);}.cls-48{clip-path:url(#clip-path-19);}.cls-49{clip-path:url(#clip-path-20);}.cls-50{clip-path:url(#clip-path-21);}.cls-51{clip-path:url(#clip-path-22);}.cls-52{clip-path:url(#clip-path-23);}.cls-53{clip-path:url(#clip-path-24);}.cls-54{clip-path:url(#clip-path-25);}.cls-55{clip-path:url(#clip-path-26);}.cls-56{clip-path:url(#clip-path-27);}.cls-57{clip-path:url(#clip-path-28);}.cls-58{clip-path:url(#clip-path-29);}.cls-59{clip-path:url(#clip-path-30);}.cls-60{clip-path:url(#clip-path-31);}.cls-61{fill:#d03f59;}.cls-62{fill:#480b1c;}.cls-63{clip-path:url(#clip-path-32);}.cls-64{fill:#011525;}.cls-65{fill:#234858;}.cls-66{fill:#356d85;}.cls-67{clip-path:url(#clip-path-33);}.cls-68{fill:#244a5b;}.cls-69{clip-path:url(#clip-path-34);}.cls-70{fill:#011626;}.cls-71{fill:#012038;}.cls-72{clip-path:url(#clip-path-35);}.cls-73{clip-path:url(#clip-path-36);}.cls-74{fill:#2b596d;}.cls-75{fill:#2d5c70;}.cls-76{fill:#2e5e74;}.cls-77{fill:#306177;}.cls-78{fill:#31647a;}.cls-79{clip-path:url(#clip-path-37);}.cls-80{fill:#011a2e;}.cls-81{fill:#011b2f;}.cls-82{fill:#011c31;}.cls-83{fill:#011d32;}.cls-84{fill:#011d34;}.cls-85{fill:#011e35;}.cls-86{fill:#011f37;}.cls-87{clip-path:url(#clip-path-38);}.cls-88{fill:#32677e;}.cls-89{clip-path:url(#clip-path-39);}.cls-90{clip-path:url(#clip-path-40);}.cls-91{clip-path:url(#clip-path-41);}.cls-92{fill:#01192c;}.cls-93{fill:#01182b;}.cls-94{fill:#011829;}.cls-95{fill:#011728;}.cls-96{clip-path:url(#clip-path-42);}.cls-97{fill:#346a82;}.cls-98{clip-path:url(#clip-path-43);}.cls-99{clip-path:url(#clip-path-44);}.cls-100{clip-path:url(#clip-path-45);}.cls-101{fill:#2a5669;}.cls-102{fill:#295366;}.cls-103{fill:#275062;}.cls-104{fill:#264d5f;}.cls-105{fill:#01223c;}.cls-106{clip-path:url(#clip-path-46);}.cls-107{fill:#39748e;}.cls-108{clip-path:url(#clip-path-47);}</style><clipPath id="clip-path" transform="translate(-38.46 -34.82)"><path class="cls-1" d="M121.67,42.75l14.79,9.06c-7.83-4.79-18.1-7.13-30.59-6.94A56.85,56.85,0,0,0,82.61,50,42.56,42.56,0,0,0,65.72,63.62a35,35,0,0,0-6.65,19L44.28,73.55a34.93,34.93,0,0,1,6.65-19A42.48,42.48,0,0,1,67.82,41a56.88,56.88,0,0,1,23.26-5.17C103.58,35.62,113.84,38,121.67,42.75Z"/></clipPath><clipPath id="clip-path-2" transform="translate(-38.46 -34.82)"><path class="cls-1" d="M94.7,72.87h0a12.87,12.87,0,0,0-5.17,9.28L74.75,73.08a12.84,12.84,0,0,1,5.16-9.27,18.06,18.06,0,0,1,11.31-4,17.22,17.22,0,0,1,9.4,2.21l14.78,9.06a17.18,17.18,0,0,0-9.4-2.21A18,18,0,0,0,94.7,72.87Z"/></clipPath><clipPath id="clip-path-3" transform="translate(-38.46 -34.82)"><path class="cls-1" d="M100.11,62.85l14.79,9.07A16.31,16.31,0,0,0,106,69.83a17.12,17.12,0,0,0-10.7,3.8,11.79,11.79,0,0,0-4.8,9L75.67,73.56a11.84,11.84,0,0,1,4.8-9,17.15,17.15,0,0,1,10.71-3.8A16.38,16.38,0,0,1,100.11,62.85Z"/></clipPath><clipPath id="clip-path-4" transform="translate(-38.46 -34.82)"><path class="cls-1" d="M138.37,53.07,123.59,44c-.63-.44-1.26-.86-1.92-1.26l14.79,9.06C137.11,52.22,137.75,52.63,138.37,53.07Z"/></clipPath><clipPath id="clip-path-5" transform="translate(-38.46 -34.82)"><path class="cls-1" d="M85.21,151.45l-3.54-2.17-6.06-3.72-.78-.48-.77-.47-.77-.47-2.18-1.33c-.21-.13-.45-.42-.69-.42a15.63,15.63,0,0,1-.34-3.38l14.79,9.06A15,15,0,0,0,85.21,151.45Z"/></clipPath><clipPath id="clip-path-6" transform="translate(-38.46 -34.82)"><path class="cls-1" d="M85.21,151.45c0,.14.06.28.1.42l-14.79-9.06c0-.14-.06-.28-.1-.42Z"/></clipPath><clipPath id="clip-path-7" transform="translate(-38.46 -34.82)"><path class="cls-1" d="M100.62,62l14.78,9.06a12.37,12.37,0,0,1,2.6,2.12c2.75,3,4,6.84,3.85,11.56-.49,12.12-6.84,18.36-18.84,18.54L88.23,94.21c12-.19,18.34-6.42,18.84-18.54.19-4.72-1.11-8.61-3.86-11.56A12.31,12.31,0,0,0,100.62,62Z"/></clipPath><clipPath id="clip-path-8" transform="translate(-38.46 -34.82)"><path class="cls-1" d="M70.77,180.24,56,171.18A33.82,33.82,0,0,1,44.4,159.71a36.53,36.53,0,0,1-5-20.23l14.79,9.06a36.53,36.53,0,0,0,5,20.23A33.82,33.82,0,0,0,70.77,180.24Z"/></clipPath><clipPath id="clip-path-9" transform="translate(-38.46 -34.82)"><path class="cls-1" d="M85.31,151.87a14,14,0,0,0,2,4.45l-14.79-9.06a14,14,0,0,1-2-4.45l7.4,4.53,3.83,2.35,1.83,1.12C84.1,151.13,85,151.38,85.31,151.87Z"/></clipPath><clipPath id="clip-path-10" transform="translate(-38.46 -34.82)"><path class="cls-1" d="M107.26,126.65a29.83,29.83,0,0,0-4.73-.27l-14.78-9.06a29.77,29.77,0,0,1,4.72.27Z"/></clipPath><clipPath id="clip-path-11" transform="translate(-38.46 -34.82)"><path class="cls-1" d="M107.26,126.65l-.05,0-.35-.22-.4-.24-14-8.57h0l14.79,9.06Z"/></clipPath><clipPath id="clip-path-12" transform="translate(-38.46 -34.82)"><path class="cls-1" d="M89.61,159,74.82,150a17.16,17.16,0,0,1-2.28-2.68l14.78,9.06A16.28,16.28,0,0,0,89.61,159Z"/></clipPath><clipPath id="clip-path-13" transform="translate(-38.46 -34.82)"><path class="cls-1" d="M89.61,159c.37.35.74.68,1.13,1L76,150.94q-.58-.47-1.14-1L89.61,159Z"/></clipPath><clipPath id="clip-path-14" transform="translate(-38.46 -34.82)"><path class="cls-1" d="M92.92,160.31l-14.78-9.06a15.72,15.72,0,0,1-2.65-2,13.53,13.53,0,0,1-4.43-10.7l14.78,9.06a13.58,13.58,0,0,0,4.43,10.7A16,16,0,0,0,92.92,160.31Z"/></clipPath><clipPath id="clip-path-15" transform="translate(-38.46 -34.82)"><path class="cls-1" d="M114.42,129a19.68,19.68,0,0,0-7.15-2.32l-14.79-9.06a19.61,19.61,0,0,1,7.16,2.32Z"/></clipPath><clipPath id="clip-path-16" transform="translate(-38.46 -34.82)"><path class="cls-1" d="M99.49,121l14.78,9.06c-3-1.86-7-2.76-11.78-2.69L87.71,118.3C92.51,118.23,96.46,119.13,99.49,121Z"/></clipPath><clipPath id="clip-path-17" transform="translate(-38.46 -34.82)"><path class="cls-1" d="M100,120.13l14.78,9.06a15.31,15.31,0,0,1,2,1.5c3.39,3,5,8.11,4.67,15.27a17.66,17.66,0,0,1-5.6,12.59c-3.5,3.29-8.13,5-13.77,5.1a17.81,17.81,0,0,1-9.72-2.48l-14.78-9.06a17.78,17.78,0,0,0,9.72,2.48c5.63-.09,10.26-1.81,13.76-5.1a17.71,17.71,0,0,0,5.61-12.59c.29-7.16-1.29-12.3-4.68-15.27A13.15,13.15,0,0,0,100,120.13Z"/></clipPath><clipPath id="clip-path-18" transform="translate(-38.46 -34.82)"><path class="cls-1" d="M90.74,160a16.06,16.06,0,0,0,1.46,1L77.41,152a16,16,0,0,1-1.45-1l7.39,4.53,1.94,1.19,1.9,1.17L89,159C89.54,159.27,90.25,159.66,90.74,160Z"/></clipPath><clipPath id="clip-path-19" transform="translate(-38.46 -34.82)"><path class="cls-1" d="M92.2,161.05,77.42,152h0L92.2,161Z"/></clipPath><clipPath id="clip-path-20" transform="translate(-38.46 -34.82)"><path class="cls-1" d="M92.2,161.05l.2.12-14.79-9.06-.19-.13,11.15,6.84C89.78,159.56,91,160.29,92.2,161.05Z"/></clipPath><clipPath id="clip-path-21" transform="translate(-38.46 -34.82)"><path class="cls-1" d="M114.42,129c-1.08-.64-2.14-1.31-3.21-2q-5.79-3.54-11.57-7.09h0L114.44,129Z"/></clipPath><clipPath id="clip-path-22" transform="translate(-38.46 -34.82)"><path class="cls-1" d="M114.78,129.19l-.34-.21-14.79-9.06.35.21Z"/></clipPath><clipPath id="clip-path-23" transform="translate(-38.46 -34.82)"><path class="cls-1" d="M146.38,100.44a41.37,41.37,0,0,1-15.95,13.08l-14.79-9.06a41.39,41.39,0,0,0,16-13.09,31.25,31.25,0,0,0,6-16.84c.5-12.2-3.4-21.86-11.6-28.71-.76-.63-1.54-1.24-2.36-1.81l14.78,9.06c.82.57,1.61,1.18,2.37,1.82,8.19,6.84,12.1,16.5,11.6,28.7A31.31,31.31,0,0,1,146.38,100.44Z"/></clipPath><clipPath id="clip-path-24" transform="translate(-38.46 -34.82)"><path class="cls-1" d="M122.21,41.91,137,51a35.78,35.78,0,0,1,4.38,3.14c8.42,7,12.44,17,11.92,29.47a32.21,32.21,0,0,1-6.15,17.4,41.78,41.78,0,0,1-15.31,12.9L117,104.82a41.7,41.7,0,0,0,15.31-12.9,32.22,32.22,0,0,0,6.16-17.4C139,62,135,52.08,126.59,45.05A36.25,36.25,0,0,0,122.21,41.91Z"/></clipPath><clipPath id="clip-path-25" transform="translate(-38.46 -34.82)"><path class="cls-1" d="M122.73,108.75l14.79,9.06a38.68,38.68,0,0,0-7.09-3.38l-14.78-9.07A39.27,39.27,0,0,1,122.73,108.75Z"/></clipPath><clipPath id="clip-path-26" transform="translate(-38.46 -34.82)"><path class="cls-1" d="M137.52,117.81c.77.47,1.51,1,2.23,1.49L125,110.24c-.71-.52-1.46-1-2.23-1.49Z"/></clipPath><clipPath id="clip-path-27" transform="translate(-38.46 -34.82)"><path class="cls-1" d="M142.73,121.75,128,112.69a30.94,30.94,0,0,0-3-2.45l14.79,9.06A30.81,30.81,0,0,1,142.73,121.75Z"/></clipPath><clipPath id="clip-path-28" transform="translate(-38.46 -34.82)"><path class="cls-1" d="M145.12,124.25l-14.78-9.06c-.51-.6-1.05-1.18-1.6-1.73l14.78,9.06C144.08,123.08,144.61,123.65,145.12,124.25Z"/></clipPath><clipPath id="clip-path-29" transform="translate(-38.46 -34.82)"><path class="cls-1" d="M123.24,107.88,138,117a32.12,32.12,0,0,1,9.44,8.69l-14.79-9.06A32.16,32.16,0,0,0,123.24,107.88Z"/></clipPath><clipPath id="clip-path-30" transform="translate(-38.46 -34.82)"><path class="cls-1" d="M147.19,127l-14.79-9.06c-.16-.25-.33-.49-.5-.73-.49-.69-1-1.36-1.56-2l8.07,5,3.62,2.21,1.38.85.88.54a4.21,4.21,0,0,0,.83.51c.55.64,1.07,1.31,1.57,2C146.86,126.49,147,126.73,147.19,127Z"/></clipPath><clipPath id="clip-path-31" transform="translate(-38.46 -34.82)"><path class="cls-1" d="M75.69,182.83a43.93,43.93,0,0,1-4.92-2.59L56,171.18a45.65,45.65,0,0,0,4.92,2.59,56.64,56.64,0,0,0,24.34,4.82c15-.23,27.39-4.17,36.88-11.7s14.51-17.52,15-29.79c.31-7.55-1.28-14-4.73-19.18L147.19,127c3.44,5.18,5,11.63,4.73,19.19-.51,12.26-5.55,22.29-15,29.78S115,187.42,100,187.65h0A56.6,56.6,0,0,1,75.69,182.83Z"/></clipPath><clipPath id="clip-path-32" transform="translate(-38.46 -34.82)"><path class="cls-1" d="M70.25,181.1,55.47,172a44.68,44.68,0,0,0,5,2.64,57.44,57.44,0,0,0,24.72,4.89c15.2-.24,27.81-4.24,37.48-11.91s14.89-18,15.4-30.57c.34-8.13-1.48-15-5.4-20.51l14.79,9.06c3.92,5.47,5.73,12.38,5.4,20.51-.52,12.59-5.69,22.87-15.41,30.57S115.19,188.4,100,188.63a57.5,57.5,0,0,1-24.72-4.89A45.57,45.57,0,0,1,70.25,181.1Z"/></clipPath><clipPath id="clip-path-33" transform="translate(-38.46 -34.82)"><path class="cls-1" d="M243.08,75.75c-4.14-2.54-9.22-3.78-15.17-3.69L213.13,63c6-.09,11,1.14,15.16,3.68Z"/></clipPath><clipPath id="clip-path-34" transform="translate(-38.46 -34.82)"><path class="cls-1" d="M227.77,67.54l14.79,9.06c-4-2.45-8.92-3.64-14.69-3.56L213.09,64A26.87,26.87,0,0,1,227.77,67.54Z"/></clipPath><clipPath id="clip-path-35" transform="translate(-38.46 -34.82)"><path class="cls-1" d="M246.89,46.38l14.79,9.06-1-.58c-9.23-5.39-19.92-8-31.77-7.84L214.15,38c11.86-.18,22.54,2.46,31.77,7.85Z"/></clipPath><clipPath id="clip-path-36" transform="translate(-38.46 -34.82)"><path class="cls-1" d="M275.77,68.05,261,59a52.22,52.22,0,0,0-14.09-12.61l14.79,9.06A52.39,52.39,0,0,1,275.77,68.05Z"/></clipPath><clipPath id="clip-path-37" transform="translate(-38.46 -34.82)"><path class="cls-1" d="M228.29,66.68l14.79,9.07a22.56,22.56,0,0,1,6.78,6.44c4.8,6.82,6.94,17.15,6.39,30.71l-14.79-9.06c.55-13.56-1.59-23.89-6.38-30.71A22.75,22.75,0,0,0,228.29,66.68Z"/></clipPath><clipPath id="clip-path-38" transform="translate(-38.46 -34.82)"><path class="cls-1" d="M275.77,68.05a57,57,0,0,1,6.2,10L267.19,69A57.22,57.22,0,0,0,261,59l8.13,5,3.33,2,.87.53.43.27.84.51.41.25A6.28,6.28,0,0,1,275.77,68.05Z"/></clipPath><clipPath id="clip-path-39" transform="translate(-38.46 -34.82)"><path class="cls-1" d="M247.44,45.55l14.78,9.06a54.38,54.38,0,0,1,20.61,23L268,68.51A54.3,54.3,0,0,0,247.44,45.55Z"/></clipPath><clipPath id="clip-path-40" transform="translate(-38.46 -34.82)"><path class="cls-1" d="M225,185.82l-.82,0-14.78-9.06.81,0Z"/></clipPath><clipPath id="clip-path-41" transform="translate(-38.46 -34.82)"><path class="cls-1" d="M241.21,109.89,256,119c-.56,13.62-3.55,24.08-8.91,31.1s-12.94,10.7-22.44,10.85l-14.79-9.06c9.5-.15,17-3.8,22.44-10.85S240.65,123.51,241.21,109.89Z"/></clipPath><clipPath id="clip-path-42" transform="translate(-38.46 -34.82)"><path class="cls-1" d="M282,78.05c4.9,10,7.15,21.44,6.7,34L273.88,103c.46-12.52-1.8-24-6.69-34C271.62,71.71,278.47,74.2,282,78.05Z"/></clipPath><clipPath id="clip-path-43" transform="translate(-38.46 -34.82)"><path class="cls-1" d="M288.41,118.45a82.92,82.92,0,0,1-2.71,18.12q-7.38-4.55-14.78-9.07a82.74,82.74,0,0,0,2.7-18.11Z"/></clipPath><clipPath id="clip-path-44" transform="translate(-38.46 -34.82)"><path class="cls-1" d="M285.46,137.44l-14.78-9.06.24-.88q7.4,4.53,14.78,9.07Q285.6,137,285.46,137.44Z"/></clipPath><clipPath id="clip-path-45" transform="translate(-38.46 -34.82)"><path class="cls-1" d="M279.19,152.76A63.87,63.87,0,0,1,263.1,172l-14.79-9.06a64,64,0,0,0,16.1-19.19,72.08,72.08,0,0,0,6.27-15.32l14.78,9.06A71,71,0,0,1,279.19,152.76Z"/></clipPath><clipPath id="clip-path-46" transform="translate(-38.46 -34.82)"><path class="cls-1" d="M268,68.51l14.79,9.06c5,10.15,7.25,21.73,6.8,34.43l-14.78-9.06C275.3,90.24,273,78.66,268,68.51Z"/></clipPath><clipPath id="clip-path-47" transform="translate(-38.46 -34.82)"><path class="cls-1" d="M274.58,109.37l14.79,9.06A77.55,77.55,0,0,1,280,153.22a64.53,64.53,0,0,1-55.86,33.6l-14.78-9.06a64.59,64.59,0,0,0,55.86-33.6A77.58,77.58,0,0,0,274.58,109.37Z"/></clipPath></defs><title>Untitled-1</title><g class="cls-2"><g class="cls-2"><g class="cls-3"><g class="cls-2"><path class="cls-4" d="M121.67,42.75l14.79,9.06c-7.83-4.79-18.1-7.13-30.59-6.94A56.85,56.85,0,0,0,82.61,50a47.23,47.23,0,0,0-7.18,4.11L60.64,45.08A48.05,48.05,0,0,1,67.82,41a56.88,56.88,0,0,1,23.26-5.17c12.5-.19,22.76,2.14,30.59,6.94" transform="translate(-38.46 -34.82)"/><path class="cls-5" d="M60.64,45.08l14.79,9.07a41,41,0,0,0-4.23,3.36L56.41,48.45a42.53,42.53,0,0,1,4.23-3.37" transform="translate(-38.46 -34.82)"/><path class="cls-6" d="M56.41,48.45,71.2,57.51a40.08,40.08,0,0,0-2.91,2.92L53.51,51.36c.91-1,1.88-2,2.9-2.91" transform="translate(-38.46 -34.82)"/><path class="cls-7" d="M53.51,51.36l14.78,9.07c-.8.89-1.56,1.81-2.27,2.77L51.24,54.14c.71-1,1.47-1.88,2.27-2.78" transform="translate(-38.46 -34.82)"/><path class="cls-8" d="M51.24,54.14,66,63.2l-.3.42c-.53.73-1,1.47-1.5,2.23L49.44,56.78c.46-.75,1-1.49,1.49-2.22l.31-.42" transform="translate(-38.46 -34.82)"/><path class="cls-9" d="M49.44,56.78l14.78,9.07c-.52.84-1,1.71-1.45,2.59L48,59.38c.44-.88.93-1.75,1.45-2.6" transform="translate(-38.46 -34.82)"/><path class="cls-10" d="M48,59.38l14.78,9.06q-.68,1.34-1.23,2.73L46.76,62.1c.37-.92.78-1.83,1.23-2.72" transform="translate(-38.46 -34.82)"/><path class="cls-11" d="M46.76,62.1l14.78,9.07c-.39,1-.74,2-1,3L45.72,65.1c.3-1,.64-2,1-3" transform="translate(-38.46 -34.82)"/><path class="cls-12" d="M45.72,65.1,60.5,74.16a34.63,34.63,0,0,0-.85,3.55L44.86,68.65a34.66,34.66,0,0,1,.86-3.55" transform="translate(-38.46 -34.82)"/><path class="cls-13" d="M44.86,68.65l14.79,9.06a38.93,38.93,0,0,0-.58,4.76L44.29,73.41a37.06,37.06,0,0,1,.57-4.76" transform="translate(-38.46 -34.82)"/><path class="cls-14" d="M44.29,73.41l14.78,9.06v.14L44.28,73.55v-.14" transform="translate(-38.46 -34.82)"/></g></g></g><polygon class="cls-15" points="36.28 38.27 51.07 47.33 20.6 47.8 5.82 38.74 36.28 38.27"/><g class="cls-2"><g class="cls-16"><g class="cls-2"><path class="cls-17" d="M100.62,62l14.78,9.06a17.18,17.18,0,0,0-9.4-2.21,18.15,18.15,0,0,0-10.27,3.25L81,63a18,18,0,0,1,10.27-3.25,17.22,17.22,0,0,1,9.4,2.21" transform="translate(-38.46 -34.82)"/><path class="cls-18" d="M81,63l14.78,9.06c-.35.25-.69.51-1,.78s-.56.46-.82.69L79.09,64.5c.26-.24.54-.47.82-.69s.68-.53,1-.78" transform="translate(-38.46 -34.82)"/><path class="cls-19" d="M79.09,64.5l14.79,9.06c-.4.36-.77.74-1.12,1.12L78,65.62a14.65,14.65,0,0,1,1.11-1.12" transform="translate(-38.46 -34.82)"/><path class="cls-20" d="M78,65.62l14.78,9.06q-.42.48-.81,1L77.17,66.61a12.51,12.51,0,0,1,.81-1" transform="translate(-38.46 -34.82)"/><path class="cls-21" d="M77.17,66.61,92,75.67q-.33.45-.63.93L76.54,67.54a9.5,9.5,0,0,1,.63-.93" transform="translate(-38.46 -34.82)"/><path class="cls-22" d="M76.54,67.54,91.32,76.6c-.18.3-.35.61-.51.92L76,68.46c.16-.31.33-.62.52-.92" transform="translate(-38.46 -34.82)"/><path class="cls-23" d="M76,68.46l14.79,9.06a10.38,10.38,0,0,0-.43,1L75.59,69.41c.13-.32.27-.64.43-1" transform="translate(-38.46 -34.82)"/><path class="cls-24" d="M75.59,69.41l14.79,9.07c-.14.34-.26.69-.37,1L75.23,70.46a10,10,0,0,1,.36-1" transform="translate(-38.46 -34.82)"/><path class="cls-25" d="M75.23,70.46,90,79.52a10.16,10.16,0,0,0-.29,1.24L74.93,71.69c.08-.41.18-.83.3-1.23" transform="translate(-38.46 -34.82)"/><path class="cls-26" d="M74.93,71.69l14.79,9.07a12.25,12.25,0,0,0-.19,1.39L74.75,73.08a12.88,12.88,0,0,1,.18-1.39" transform="translate(-38.46 -34.82)"/></g></g></g><polygon class="cls-27" points="37.21 38.75 52 47.81 51.98 48.3 37.19 39.23 37.21 38.75"/><polygon class="cls-28" points="37.19 39.23 51.98 48.3 19.61 48.8 4.82 39.73 37.19 39.23"/><g class="cls-2"><g class="cls-29"><g class="cls-2"><path class="cls-4" d="M100.11,62.85l14.79,9.07A16.31,16.31,0,0,0,106,69.83a17.21,17.21,0,0,0-9.74,3.07L81.44,63.84a17.09,17.09,0,0,1,9.74-3.07,16.38,16.38,0,0,1,8.93,2.08" transform="translate(-38.46 -34.82)"/><path class="cls-5" d="M81.44,63.84,96.22,72.9c-.32.23-.65.47-1,.73l-.76.64L79.72,65.21c.24-.22.49-.43.75-.64s.64-.5,1-.73" transform="translate(-38.46 -34.82)"/><path class="cls-6" d="M79.72,65.21,94.5,74.27c-.37.34-.71.68-1,1L78.68,66.25a12.76,12.76,0,0,1,1-1" transform="translate(-38.46 -34.82)"/><path class="cls-7" d="M78.68,66.25l14.78,9.06c-.26.3-.51.6-.75.92L77.93,67.17a10.77,10.77,0,0,1,.75-.92" transform="translate(-38.46 -34.82)"/><path class="cls-8" d="M77.93,67.17l14.78,9.06c-.2.28-.4.56-.58.86L77.34,68c.19-.29.38-.57.59-.85" transform="translate(-38.46 -34.82)"/><path class="cls-9" d="M77.34,68l14.79,9.07a8.76,8.76,0,0,0-.47.85L76.87,68.87c.14-.28.3-.57.47-.85" transform="translate(-38.46 -34.82)"/><path class="cls-10" d="M76.87,68.87l14.79,9.07a8.76,8.76,0,0,0-.4.88L76.47,69.76c.12-.3.25-.6.4-.89" transform="translate(-38.46 -34.82)"/><path class="cls-11" d="M76.47,69.76l14.79,9.06a9.9,9.9,0,0,0-.34,1L76.14,70.72a9.86,9.86,0,0,1,.33-1" transform="translate(-38.46 -34.82)"/><path class="cls-12" d="M76.14,70.72l14.78,9.06a10.92,10.92,0,0,0-.27,1.13L75.87,71.85a10.92,10.92,0,0,1,.27-1.13" transform="translate(-38.46 -34.82)"/><path class="cls-13" d="M75.87,71.85l14.78,9.06a12.62,12.62,0,0,0-.18,1.52L75.68,73.37a10.89,10.89,0,0,1,.19-1.52" transform="translate(-38.46 -34.82)"/><path class="cls-14" d="M75.68,73.37l14.79,9.06c0,.07,0,.13,0,.2L75.67,73.56a1.15,1.15,0,0,0,0-.19" transform="translate(-38.46 -34.82)"/></g></g></g><polygon class="cls-27" points="35.42 59.61 50.21 68.67 49.26 91.79 34.47 82.73 35.42 59.61"/><polygon class="cls-28" points="49.77 59.39 64.55 68.45 50.21 68.67 35.42 59.61 49.77 59.39"/><g class="cls-2"><g class="cls-30"><g class="cls-2"><path class="cls-22" d="M121.67,42.75l14.79,9.06,0,0-14.79-9.07,0,0" transform="translate(-38.46 -34.82)"/><path class="cls-23" d="M121.72,42.78l14.79,9.07c1,.63,2,1.3,3,2l-14.79-9.06c-.94-.72-1.93-1.39-3-2" transform="translate(-38.46 -34.82)"/></g></g></g><polygon class="cls-28" points="31.62 104.19 46.41 113.26 15.77 113.73 0.98 104.67 31.62 104.19"/><polygon class="cls-27" points="32.62 103.2 47.4 112.26 47.38 112.75 32.59 103.69 32.62 103.2"/><g class="cls-2"><g class="cls-31"><g class="cls-2"><path class="cls-32" d="M70.08,139l14.79,9.06a14.85,14.85,0,0,0,.34,3.36l-14.79-9.06a14.85,14.85,0,0,1-.34-3.36" transform="translate(-38.46 -34.82)"/><path class="cls-33" d="M70.42,142.37l14.79,9.06c.06.31.14.62.23.92l-14.79-9.06c-.08-.31-.16-.61-.23-.92" transform="translate(-38.46 -34.82)"/></g></g></g><g class="cls-2"><g class="cls-34"><g class="cls-2"><path class="cls-33" d="M70.42,142.37l14.79,9.06c.06.31.14.62.23.92l-14.79-9.06c-.08-.31-.16-.61-.23-.92" transform="translate(-38.46 -34.82)"/></g></g></g><polygon class="cls-15" points="49.28 82.5 64.07 91.56 49.26 91.79 34.47 82.73 49.28 82.5"/><polygon class="cls-28" points="49.24 83.48 64.03 92.55 48.27 92.79 33.48 83.73 49.24 83.48"/><g class="cls-2"><g class="cls-35"><g class="cls-2"><path class="cls-9" d="M100.62,62l14.78,9.06h0L100.64,62h0" transform="translate(-38.46 -34.82)"/><path class="cls-10" d="M100.64,62l14.78,9.06c.35.22.69.45,1,.7L101.65,62.7a12.07,12.07,0,0,0-1-.7" transform="translate(-38.46 -34.82)"/><path class="cls-11" d="M101.65,62.7l14.79,9.06a12.66,12.66,0,0,1,1,.83l-14.79-9.06a11,11,0,0,0-1-.83" transform="translate(-38.46 -34.82)"/><path class="cls-12" d="M102.63,63.53l14.79,9.06c.2.19.39.38.58.58l.45.51-14.79-9.06q-.21-.25-.45-.51c-.19-.2-.38-.4-.58-.58" transform="translate(-38.46 -34.82)"/><path class="cls-13" d="M103.66,64.62l14.79,9.06a14.13,14.13,0,0,1,1.14,1.56l-14.78-9.06a15.65,15.65,0,0,0-1.15-1.56" transform="translate(-38.46 -34.82)"/><path class="cls-14" d="M104.81,66.18l14.78,9.06a13.94,13.94,0,0,1,1.61,3.6l-14.79-9.07a14,14,0,0,0-1.6-3.59" transform="translate(-38.46 -34.82)"/><path class="cls-36" d="M106.41,69.77l14.79,9.07q.15.52.27,1.08l-14.78-9.07c-.08-.36-.17-.72-.28-1.08" transform="translate(-38.46 -34.82)"/><path class="cls-14" d="M106.69,70.85l14.78,9.07a18.71,18.71,0,0,1,.38,4.81c0,.18,0,.35,0,.53L107,76.2l0-.53a19.25,19.25,0,0,0-.38-4.82" transform="translate(-38.46 -34.82)"/><path class="cls-13" d="M107,76.2l14.79,9.06a31,31,0,0,1-.45,3.79L106.6,80A29.4,29.4,0,0,0,107,76.2" transform="translate(-38.46 -34.82)"/><path class="cls-12" d="M106.6,80l14.78,9.06a23.48,23.48,0,0,1-.56,2.37L106,82.36A24.14,24.14,0,0,0,106.6,80" transform="translate(-38.46 -34.82)"/><path class="cls-11" d="M106,82.36l14.79,9.06c-.18.59-.37,1.16-.59,1.71l-14.79-9.06c.22-.55.42-1.12.59-1.71" transform="translate(-38.46 -34.82)"/><path class="cls-10" d="M105.44,84.07l14.79,9.06c-.19.48-.4,1-.63,1.4l-14.79-9.07a14.67,14.67,0,0,0,.63-1.39" transform="translate(-38.46 -34.82)"/><path class="cls-9" d="M104.81,85.46l14.79,9.07c-.21.41-.43.81-.67,1.2l-14.79-9.06c.24-.39.46-.79.67-1.21" transform="translate(-38.46 -34.82)"/><path class="cls-8" d="M104.14,86.67l14.79,9.06c-.23.38-.48.74-.74,1.09l-14.78-9.06c.25-.35.5-.72.73-1.09" transform="translate(-38.46 -34.82)"/><path class="cls-7" d="M103.41,87.76l14.78,9.06c-.27.36-.55.7-.84,1l-14.79-9.06c.3-.33.58-.67.85-1" transform="translate(-38.46 -34.82)"/><path class="cls-6" d="M102.56,88.79l14.79,9.06a14.58,14.58,0,0,1-1,1l-14.79-9.06a14.58,14.58,0,0,0,1-1" transform="translate(-38.46 -34.82)"/><path class="cls-5" d="M101.52,89.83l14.79,9.06a14.29,14.29,0,0,1-1.43,1.14L100.09,91a14.2,14.2,0,0,0,1.43-1.13" transform="translate(-38.46 -34.82)"/><path class="cls-4" d="M100.09,91,114.88,100c-3,2.08-7,3.17-11.87,3.24L88.23,94.21q7.35-.12,11.86-3.25" transform="translate(-38.46 -34.82)"/></g></g></g><g class="cls-2"><g class="cls-37"><g class="cls-2"><path class="cls-14" d="M39.44,139.48l14.79,9.06a40.55,40.55,0,0,0,.82,9.65l-14.78-9.06a40.54,40.54,0,0,1-.83-9.65" transform="translate(-38.46 -34.82)"/><path class="cls-36" d="M40.27,149.13l14.78,9.06c.18.85.4,1.7.64,2.53L40.9,151.66c-.24-.83-.45-1.68-.63-2.53" transform="translate(-38.46 -34.82)"/><path class="cls-14" d="M40.9,151.66l14.79,9.06a33.92,33.92,0,0,0,3.5,8.05c.13.22.25.43.39.63l-14.79-9.06-.39-.63a34.33,34.33,0,0,1-3.5-8.05" transform="translate(-38.46 -34.82)"/><path class="cls-13" d="M44.79,160.34l14.79,9.06a31.29,31.29,0,0,0,2.6,3.57L47.4,163.9a29.3,29.3,0,0,1-2.61-3.56" transform="translate(-38.46 -34.82)"/><path class="cls-12" d="M47.4,163.9,62.18,173a35.16,35.16,0,0,0,2.6,2.73L50,166.64a32,32,0,0,1-2.6-2.74" transform="translate(-38.46 -34.82)"/><path class="cls-11" d="M50,166.64l14.78,9.06a36,36,0,0,0,2.8,2.36L52.79,169c-1-.75-1.91-1.54-2.79-2.36" transform="translate(-38.46 -34.82)"/><path class="cls-10" d="M52.79,169l14.79,9.06c1,.75,2,1.47,3.13,2.14l-14.78-9.06A37.61,37.61,0,0,1,52.79,169" transform="translate(-38.46 -34.82)"/><path class="cls-9" d="M55.93,171.14l14.78,9.06.06,0L56,171.18l0,0" transform="translate(-38.46 -34.82)"/></g></g></g><g class="cls-2"><g class="cls-38"><g class="cls-2"><path class="cls-33" d="M70.42,142.37l14.79,9.06c.06.31.14.62.23.92l-14.79-9.06c-.08-.31-.16-.61-.23-.92" transform="translate(-38.46 -34.82)"/><path class="cls-32" d="M70.65,143.29l14.79,9.06a13.88,13.88,0,0,0,1.61,3.56l-14.79-9.07a14.17,14.17,0,0,1-1.61-3.55" transform="translate(-38.46 -34.82)"/><path class="cls-26" d="M72.26,146.84l14.79,9.07a15.94,15.94,0,0,0,1.28,1.75L73.55,148.6a15.24,15.24,0,0,1-1.29-1.76" transform="translate(-38.46 -34.82)"/></g></g></g><g class="cls-2"><g class="cls-39"><g class="cls-2"><path class="cls-17" d="M100,120.13l14.78,9.06c-3.17-1.94-7.28-2.89-12.25-2.81l-14.78-9.06c5-.08,9.08.86,12.25,2.81" transform="translate(-38.46 -34.82)"/></g></g></g><g class="cls-2"><g class="cls-40"><g class="cls-2"><path class="cls-17" d="M100,120.13l14.78,9.06c-3.17-1.94-7.28-2.89-12.25-2.81l-14.78-9.06c5-.08,9.08.86,12.25,2.81" transform="translate(-38.46 -34.82)"/></g></g></g><g class="cls-2"><g class="cls-41"><g class="cls-2"><path class="cls-26" d="M72.26,146.84l14.79,9.07a15.94,15.94,0,0,0,1.28,1.75L73.55,148.6a15.24,15.24,0,0,1-1.29-1.76" transform="translate(-38.46 -34.82)"/><path class="cls-25" d="M73.55,148.6l14.78,9.06c.4.46.82.91,1.28,1.35l.11.11-14.78-9.06-.12-.11a17.71,17.71,0,0,1-1.27-1.35" transform="translate(-38.46 -34.82)"/></g></g></g><g class="cls-2"><g class="cls-42"><g class="cls-2"><path class="cls-25" d="M73.55,148.6l14.78,9.06c.4.46.82.91,1.28,1.35l.11.11-14.78-9.06-.12-.11a17.71,17.71,0,0,1-1.27-1.35" transform="translate(-38.46 -34.82)"/><path class="cls-24" d="M74.94,150.06l14.78,9.06c.43.4.88.78,1.34,1.13l-14.79-9.06c-.46-.35-.9-.73-1.33-1.13" transform="translate(-38.46 -34.82)"/></g></g></g><g class="cls-2"><g class="cls-43"><g class="cls-2"><path class="cls-14" d="M71.06,138.51l14.78,9.06a14.16,14.16,0,0,0,.29,3.53L71.34,142a14.16,14.16,0,0,1-.28-3.53" transform="translate(-38.46 -34.82)"/><path class="cls-36" d="M71.34,142l14.79,9.06c.06.29.13.57.21.85l-14.78-9.06c-.08-.28-.15-.56-.22-.85" transform="translate(-38.46 -34.82)"/><path class="cls-14" d="M71.56,142.89,86.34,152a12.82,12.82,0,0,0,1.53,3.4l-14.79-9.06a13.27,13.27,0,0,1-1.52-3.4" transform="translate(-38.46 -34.82)"/><path class="cls-13" d="M73.08,146.29l14.79,9.06A13.4,13.4,0,0,0,89.08,157l-14.79-9.07a15.36,15.36,0,0,1-1.21-1.64" transform="translate(-38.46 -34.82)"/><path class="cls-12" d="M74.29,147.93,89.08,157a15.6,15.6,0,0,0,1.19,1.27l.11.1L75.6,149.31l-.11-.1c-.43-.42-.83-.84-1.2-1.28" transform="translate(-38.46 -34.82)"/><path class="cls-11" d="M75.6,149.31l14.78,9.06a16,16,0,0,0,1.27,1.07l-14.78-9.06a16,16,0,0,1-1.27-1.07" transform="translate(-38.46 -34.82)"/><path class="cls-10" d="M76.87,150.38l14.78,9.06a14.62,14.62,0,0,0,1.25.86l-14.79-9.06a14.47,14.47,0,0,1-1.24-.86" transform="translate(-38.46 -34.82)"/><path class="cls-9" d="M78.11,151.24,92.9,160.3h0l-14.78-9.06h0" transform="translate(-38.46 -34.82)"/></g></g></g><g class="cls-2"><g class="cls-44"><g class="cls-2"><path class="cls-17" d="M100,120.13l14.78,9.06c-3.17-1.94-7.28-2.89-12.25-2.81l-14.78-9.06c5-.08,9.08.86,12.25,2.81" transform="translate(-38.46 -34.82)"/></g></g></g><g class="cls-2"><g class="cls-45"><g class="cls-2"><path class="cls-4" d="M99.49,121l14.78,9.06c-3-1.86-7-2.76-11.78-2.69L87.71,118.3c4.8-.07,8.75.83,11.78,2.69" transform="translate(-38.46 -34.82)"/></g></g></g><g class="cls-2"><g class="cls-46"><g class="cls-2"><path class="cls-9" d="M100,120.13l14.78,9.06h0L100,120.14h0" transform="translate(-38.46 -34.82)"/><path class="cls-10" d="M100,120.14l14.78,9.06A13.16,13.16,0,0,1,116,130L101.24,121a14.65,14.65,0,0,0-1.22-.84" transform="translate(-38.46 -34.82)"/><path class="cls-11" d="M101.24,121,116,130c.28.21.54.42.8.65l.28.25-14.79-9.06-.28-.25a9.73,9.73,0,0,0-.79-.65" transform="translate(-38.46 -34.82)"/><path class="cls-12" d="M102.31,121.88l14.79,9.06c.3.29.59.59.87.92l-14.79-9.06a8.44,8.44,0,0,0-.87-.92" transform="translate(-38.46 -34.82)"/><path class="cls-13" d="M103.18,122.8,118,131.86a11.94,11.94,0,0,1,1,1.33l-14.78-9.06a12,12,0,0,0-1-1.33" transform="translate(-38.46 -34.82)"/><path class="cls-14" d="M104.16,124.13l14.78,9.06a14.81,14.81,0,0,1,1.69,3.89L105.85,128a15.14,15.14,0,0,0-1.69-3.89" transform="translate(-38.46 -34.82)"/><path class="cls-36" d="M105.85,128l14.78,9.06a13.6,13.6,0,0,1,.33,1.33l-14.78-9.06c-.1-.46-.21-.9-.33-1.33" transform="translate(-38.46 -34.82)"/><path class="cls-14" d="M106.18,129.35,121,138.41a30.12,30.12,0,0,1,.53,7.55c0,.12,0,.23,0,.34l-14.79-9.06c0-.11,0-.23,0-.34a31.1,31.1,0,0,0-.53-7.55" transform="translate(-38.46 -34.82)"/><path class="cls-13" d="M106.69,137.24l14.79,9.06a22.07,22.07,0,0,1-.32,2.62l-14.78-9.06a22.08,22.08,0,0,0,.31-2.62" transform="translate(-38.46 -34.82)"/><path class="cls-12" d="M106.38,139.86l14.78,9.06a18.47,18.47,0,0,1-.44,1.85l-14.79-9.06a18.49,18.49,0,0,0,.45-1.85" transform="translate(-38.46 -34.82)"/><path class="cls-11" d="M105.93,141.71l14.79,9.06c-.16.52-.33,1-.53,1.53l-14.79-9.06c.2-.5.38-1,.53-1.53" transform="translate(-38.46 -34.82)"/><path class="cls-10" d="M105.4,143.24l14.79,9.06c-.19.46-.39.91-.61,1.35l-14.79-9.06c.22-.44.43-.89.61-1.35" transform="translate(-38.46 -34.82)"/><path class="cls-9" d="M104.79,144.59l14.79,9.06c-.22.43-.46.85-.71,1.27l-14.79-9.07c.26-.41.49-.83.71-1.26" transform="translate(-38.46 -34.82)"/><path class="cls-8" d="M104.08,145.85l14.79,9.07q-.39.63-.84,1.23l-14.79-9.06c.3-.4.58-.81.84-1.24" transform="translate(-38.46 -34.82)"/><path class="cls-7" d="M103.24,147.09,118,156.15c-.33.44-.67.86-1,1.28l-14.79-9.07a15.58,15.58,0,0,0,1-1.27" transform="translate(-38.46 -34.82)"/><path class="cls-6" d="M102.2,148.36,117,157.43c-.35.38-.72.76-1.1,1.12l-.26.24-14.78-9.07.25-.23c.39-.36.75-.74,1.1-1.13" transform="translate(-38.46 -34.82)"/><path class="cls-5" d="M100.85,149.72l14.78,9.07a17.16,17.16,0,0,1-1.76,1.4l-14.78-9.07a16.62,16.62,0,0,0,1.76-1.4" transform="translate(-38.46 -34.82)"/><path class="cls-4" d="M99.09,151.12l14.78,9.07a20.7,20.7,0,0,1-11.75,3.46,17.81,17.81,0,0,1-9.72-2.48l-14.78-9.06a17.78,17.78,0,0,0,9.72,2.48,20.75,20.75,0,0,0,11.75-3.47" transform="translate(-38.46 -34.82)"/></g></g></g><g class="cls-2"><g class="cls-47"><g class="cls-2"><path class="cls-24" d="M74.94,150.06l14.78,9.06c.43.4.88.78,1.34,1.13l-14.79-9.06c-.46-.35-.9-.73-1.33-1.13" transform="translate(-38.46 -34.82)"/><path class="cls-23" d="M76.27,151.19l14.79,9.06c.43.33.87.63,1.32.91l-14.79-9.07c-.45-.27-.89-.58-1.32-.9" transform="translate(-38.46 -34.82)"/></g></g></g><g class="cls-2"><g class="cls-48"><g class="cls-2"><path class="cls-23" d="M76.27,151.19l14.79,9.06c.43.33.87.63,1.32.91l-14.79-9.07c-.45-.27-.89-.58-1.32-.9" transform="translate(-38.46 -34.82)"/></g></g></g><g class="cls-2"><g class="cls-49"><g class="cls-2"><path class="cls-23" d="M76.27,151.19l14.79,9.06c.43.33.87.63,1.32.91l-14.79-9.07c-.45-.27-.89-.58-1.32-.9" transform="translate(-38.46 -34.82)"/><path class="cls-22" d="M77.59,152.09l14.79,9.07h0l-14.78-9.06,0,0" transform="translate(-38.46 -34.82)"/></g></g></g><g class="cls-2"><g class="cls-50"><g class="cls-2"><path class="cls-17" d="M100,120.13l14.78,9.06c-3.17-1.94-7.28-2.89-12.25-2.81l-14.78-9.06c5-.08,9.08.86,12.25,2.81" transform="translate(-38.46 -34.82)"/></g></g></g><g class="cls-2"><g class="cls-51"><g class="cls-2"><path class="cls-17" d="M100,120.13l14.78,9.06c-3.17-1.94-7.28-2.89-12.25-2.81l-14.78-9.06c5-.08,9.08.86,12.25,2.81" transform="translate(-38.46 -34.82)"/></g></g></g><polygon class="cls-17" points="77.18 69.65 91.96 78.71 90.9 79.23 76.12 70.17 77.18 69.65"/><polygon class="cls-28" points="77.18 70.55 91.97 79.61 90.9 79.23 76.12 70.17 77.18 70.55"/><g class="cls-2"><g class="cls-52"><g class="cls-2"><path class="cls-23" d="M121.72,42.78l14.79,9.07c1,.63,2,1.3,3,2l-14.79-9.06c-.94-.72-1.93-1.39-3-2" transform="translate(-38.46 -34.82)"/><path class="cls-24" d="M124.68,44.81l14.79,9.06c.43.33.86.67,1.27,1s1,.86,1.48,1.3l-14.79-9.06c-.48-.45-1-.88-1.48-1.31s-.83-.68-1.27-1" transform="translate(-38.46 -34.82)"/><path class="cls-25" d="M127.43,47.13l14.79,9.06a35.53,35.53,0,0,1,2.54,2.68L130,49.81a32.13,32.13,0,0,0-2.55-2.68" transform="translate(-38.46 -34.82)"/><path class="cls-26" d="M130,49.81l14.78,9.06a30.53,30.53,0,0,1,2.54,3.47l-14.78-9.06A30.53,30.53,0,0,0,130,49.81" transform="translate(-38.46 -34.82)"/><path class="cls-32" d="M132.52,53.28l14.78,9.06a31.46,31.46,0,0,1,3.6,8.1l-14.78-9.07a31.54,31.54,0,0,0-3.6-8.09" transform="translate(-38.46 -34.82)"/><path class="cls-33" d="M136.12,61.37l14.78,9.07c.21.72.4,1.47.57,2.22L136.68,63.6c-.16-.76-.35-1.5-.56-2.23" transform="translate(-38.46 -34.82)"/><path class="cls-32" d="M136.68,63.6l14.79,9.06a42.84,42.84,0,0,1,.87,10.93c0,.16,0,.31,0,.46L137.53,75c0-.15,0-.3,0-.46a42.8,42.8,0,0,0-.87-10.93" transform="translate(-38.46 -34.82)"/><path class="cls-26" d="M137.53,75l14.79,9.06a29.06,29.06,0,0,1-.45,3.72L137.08,78.7a28.69,28.69,0,0,0,.45-3.71" transform="translate(-38.46 -34.82)"/><path class="cls-25" d="M137.08,78.7l14.79,9.07c-.19,1-.43,2-.72,3l-14.79-9.06c.29-1,.53-2,.72-3" transform="translate(-38.46 -34.82)"/><path class="cls-24" d="M136.36,81.68l14.79,9.06q-.41,1.35-.93,2.67l-14.79-9.06a26.4,26.4,0,0,0,.93-2.67" transform="translate(-38.46 -34.82)"/><path class="cls-23" d="M135.43,84.35l14.79,9.06c-.35.87-.74,1.73-1.16,2.58l-14.79-9.07c.43-.85.82-1.7,1.16-2.57" transform="translate(-38.46 -34.82)"/><path class="cls-22" d="M134.27,86.92,149.06,96c-.44.87-.93,1.73-1.46,2.59l-14.78-9.06c.53-.86,1-1.72,1.45-2.6" transform="translate(-38.46 -34.82)"/><path class="cls-21" d="M132.82,89.52l14.78,9.06c-.38.62-.79,1.24-1.22,1.86l-.53.73-14.79-9.06c.18-.24.36-.49.53-.74.43-.61.84-1.23,1.23-1.85" transform="translate(-38.46 -34.82)"/><path class="cls-20" d="M131.06,92.11l14.79,9.06c-.64.86-1.33,1.7-2,2.51L129,94.61c.73-.8,1.41-1.64,2.05-2.5" transform="translate(-38.46 -34.82)"/><path class="cls-19" d="M129,94.61l14.79,9.07c-.85.94-1.76,1.85-2.72,2.73l-14.79-9.06A37,37,0,0,0,129,94.61" transform="translate(-38.46 -34.82)"/><path class="cls-18" d="M126.29,97.35l14.79,9.06a42.17,42.17,0,0,1-4.19,3.32l-14.78-9.06a42,42,0,0,0,4.18-3.32" transform="translate(-38.46 -34.82)"/><path class="cls-17" d="M122.11,100.67l14.78,9.06a48.74,48.74,0,0,1-6.46,3.79l-14.79-9.06a48.86,48.86,0,0,0,6.47-3.79" transform="translate(-38.46 -34.82)"/></g></g></g><g class="cls-2"><g class="cls-53"><g class="cls-2"><path class="cls-9" d="M122.21,41.91,137,51l0,0-14.78-9.06-.05,0" transform="translate(-38.46 -34.82)"/><path class="cls-10" d="M122.26,41.94,137,51a36.18,36.18,0,0,1,3,2.08L125.29,44q-1.46-1.09-3-2.07" transform="translate(-38.46 -34.82)"/><path class="cls-11" d="M125.29,44l14.79,9.07c.44.33.87.67,1.29,1s1,.88,1.51,1.34L128.1,46.38c-.49-.45-1-.9-1.51-1.33s-.86-.7-1.3-1" transform="translate(-38.46 -34.82)"/><path class="cls-12" d="M128.1,46.38l14.78,9.07a30.94,30.94,0,0,1,2.63,2.75l-14.79-9.06a34,34,0,0,0-2.62-2.76" transform="translate(-38.46 -34.82)"/><path class="cls-13" d="M130.72,49.14l14.79,9.06a31.16,31.16,0,0,1,2.61,3.58l-14.78-9.07a33.35,33.35,0,0,0-2.62-3.57" transform="translate(-38.46 -34.82)"/><path class="cls-14" d="M133.34,52.71l14.78,9.07a32.18,32.18,0,0,1,3.7,8.32L137,61a32.74,32.74,0,0,0-3.7-8.33" transform="translate(-38.46 -34.82)"/><path class="cls-36" d="M137,61l14.78,9.06c.22.74.41,1.5.58,2.27l-14.79-9.06c-.17-.77-.36-1.53-.57-2.27" transform="translate(-38.46 -34.82)"/><path class="cls-14" d="M137.61,63.31l14.79,9.06a43.6,43.6,0,0,1,.89,11.21c0,.16,0,.32,0,.48L138.48,75l0-.47a44,44,0,0,0-.9-11.21" transform="translate(-38.46 -34.82)"/><path class="cls-13" d="M138.48,75l14.79,9.07a29.33,29.33,0,0,1-.47,3.85L138,78.85a31.27,31.27,0,0,0,.46-3.86" transform="translate(-38.46 -34.82)"/><path class="cls-12" d="M138,78.85l14.78,9.06a29.8,29.8,0,0,1-.74,3.07l-14.79-9.06a30.5,30.5,0,0,0,.75-3.07" transform="translate(-38.46 -34.82)"/><path class="cls-11" d="M137.27,81.92,152.06,91a28.2,28.2,0,0,1-1,2.76l-14.79-9.06a28.2,28.2,0,0,0,1-2.76" transform="translate(-38.46 -34.82)"/><path class="cls-10" d="M136.31,84.68l14.79,9.06c-.35.89-.75,1.77-1.19,2.64l-14.79-9.06c.44-.87.84-1.75,1.19-2.64" transform="translate(-38.46 -34.82)"/><path class="cls-9" d="M135.12,87.32l14.79,9.06c-.46.9-.95,1.79-1.49,2.67L133.63,90c.54-.87,1-1.76,1.49-2.66" transform="translate(-38.46 -34.82)"/><path class="cls-8" d="M133.63,90l14.79,9.07c-.41.65-.83,1.29-1.28,1.93l-.57.79-14.79-9.06c.2-.26.39-.52.57-.79.45-.64.88-1.29,1.28-1.94" transform="translate(-38.46 -34.82)"/><path class="cls-7" d="M131.78,92.71l14.79,9.06c-.66.88-1.36,1.74-2.1,2.57l-14.79-9.07c.75-.83,1.45-1.68,2.1-2.56" transform="translate(-38.46 -34.82)"/><path class="cls-6" d="M129.68,95.27l14.79,9.07a38.65,38.65,0,0,1-2.79,2.79l-14.79-9.06a36.84,36.84,0,0,0,2.79-2.8" transform="translate(-38.46 -34.82)"/><path class="cls-5" d="M126.89,98.07l14.79,9.06a42.25,42.25,0,0,1-4.26,3.39l-14.79-9.06a41.15,41.15,0,0,0,4.26-3.39" transform="translate(-38.46 -34.82)"/><path class="cls-4" d="M122.63,101.46l14.79,9.06a50.13,50.13,0,0,1-5.59,3.36L117,104.82a49.24,49.24,0,0,0,5.59-3.36" transform="translate(-38.46 -34.82)"/></g></g></g><g class="cls-2"><g class="cls-54"><g class="cls-2"><path class="cls-4" d="M122.73,108.75l14.79,9.06a38.68,38.68,0,0,0-7.09-3.38l-14.78-9.07a39.27,39.27,0,0,1,7.08,3.39" transform="translate(-38.46 -34.82)"/></g></g></g><g class="cls-2"><g class="cls-55"><g class="cls-2"><path class="cls-22" d="M122.73,108.75l14.79,9.06,0,0-14.79-9.06,0,0" transform="translate(-38.46 -34.82)"/><path class="cls-23" d="M122.78,108.78l14.79,9.06c1,.59,1.87,1.21,2.74,1.87l-14.79-9.06a31.42,31.42,0,0,0-2.74-1.87" transform="translate(-38.46 -34.82)"/></g></g></g><g class="cls-2"><g class="cls-56"><g class="cls-2"><path class="cls-23" d="M122.78,108.78l14.79,9.06c1,.59,1.87,1.21,2.74,1.87l-14.79-9.06a31.42,31.42,0,0,0-2.74-1.87" transform="translate(-38.46 -34.82)"/><path class="cls-24" d="M125.52,110.65l14.79,9.06a31.78,31.78,0,0,1,2.5,2.12L128,112.76a32,32,0,0,0-2.5-2.11" transform="translate(-38.46 -34.82)"/></g></g></g><g class="cls-2"><g class="cls-57"><g class="cls-2"><path class="cls-25" d="M128,112.76l14.79,9.07a30.17,30.17,0,0,1,2.4,2.53l-14.78-9.06a28.86,28.86,0,0,0-2.41-2.54" transform="translate(-38.46 -34.82)"/></g></g></g><g class="cls-2"><g class="cls-58"><g class="cls-2"><path class="cls-9" d="M123.24,107.88,138,117l.05,0-14.79-9.06-.05,0" transform="translate(-38.46 -34.82)"/><path class="cls-10" d="M123.29,107.92,138.08,117c1,.6,1.91,1.24,2.81,1.92l-14.79-9.06a33.07,33.07,0,0,0-2.81-1.92" transform="translate(-38.46 -34.82)"/><path class="cls-11" d="M126.1,109.84l14.79,9.06a31.77,31.77,0,0,1,2.57,2.18L128.68,112a33.63,33.63,0,0,0-2.58-2.17" transform="translate(-38.46 -34.82)"/><path class="cls-12" d="M128.68,112l14.78,9.07a29.1,29.1,0,0,1,2.48,2.61l-14.78-9.06a32.28,32.28,0,0,0-2.48-2.62" transform="translate(-38.46 -34.82)"/><path class="cls-13" d="M131.16,114.63l14.78,9.06c.54.63,1,1.28,1.53,2l-14.79-9.06c-.48-.67-1-1.32-1.52-2" transform="translate(-38.46 -34.82)"/></g></g></g><g class="cls-2"><g class="cls-59"><g class="cls-2"><path class="cls-25" d="M128,112.76l14.79,9.07a30.17,30.17,0,0,1,2.4,2.53l-14.78-9.06a28.86,28.86,0,0,0-2.41-2.54" transform="translate(-38.46 -34.82)"/><path class="cls-26" d="M130.43,115.3l14.78,9.06c.52.61,1,1.24,1.48,1.89.29.41.58.83.85,1.26l-14.79-9.06c-.27-.43-.55-.85-.85-1.26q-.71-1-1.47-1.89" transform="translate(-38.46 -34.82)"/></g></g></g><g class="cls-2"><g class="cls-60"><g class="cls-2"><path class="cls-26" d="M130.43,115.3l14.78,9.06c.52.61,1,1.24,1.48,1.89.29.41.58.83.85,1.26l-14.79-9.06c-.27-.43-.55-.85-.85-1.26q-.71-1-1.47-1.89" transform="translate(-38.46 -34.82)"/><path class="cls-32" d="M132.75,118.45l14.79,9.06a27.29,27.29,0,0,1,3.1,7l-14.78-9.06a27.67,27.67,0,0,0-3.11-7" transform="translate(-38.46 -34.82)"/><path class="cls-33" d="M135.86,125.43l14.78,9.06c.2.69.38,1.39.53,2.1l-14.79-9.06c-.15-.71-.33-1.41-.52-2.1" transform="translate(-38.46 -34.82)"/><path class="cls-32" d="M136.38,127.53l14.79,9.06a37.91,37.91,0,0,1,.75,9.58c0,.24,0,.49,0,.74l-14.79-9.06c0-.25,0-.5,0-.75a37.83,37.83,0,0,0-.75-9.57" transform="translate(-38.46 -34.82)"/><path class="cls-26" d="M137.09,137.85l14.79,9.06a45.22,45.22,0,0,1-.68,5.68l-14.79-9.06a43.44,43.44,0,0,0,.68-5.68" transform="translate(-38.46 -34.82)"/><path class="cls-25" d="M136.41,143.53l14.79,9.06a41.2,41.2,0,0,1-1,4l-14.79-9.06a38.54,38.54,0,0,0,1-4.05" transform="translate(-38.46 -34.82)"/><path class="cls-24" d="M135.44,147.58l14.79,9.06c-.34,1.13-.72,2.23-1.15,3.31l-14.79-9.07c.43-1.07.82-2.18,1.15-3.3" transform="translate(-38.46 -34.82)"/><path class="cls-23" d="M134.29,150.88,149.08,160c-.4,1-.84,2-1.32,2.93L133,153.81c.48-.95.92-1.93,1.32-2.93" transform="translate(-38.46 -34.82)"/><path class="cls-22" d="M133,153.81l14.79,9.07q-.7,1.4-1.53,2.73l-14.79-9.06c.55-.89,1.06-1.8,1.53-2.74" transform="translate(-38.46 -34.82)"/><path class="cls-21" d="M131.44,156.55l14.79,9.06c-.57.92-1.17,1.81-1.82,2.68l-14.79-9.06c.65-.87,1.26-1.77,1.82-2.68" transform="translate(-38.46 -34.82)"/><path class="cls-20" d="M129.62,159.23l14.79,9.06c-.7.94-1.45,1.86-2.25,2.75L127.38,162c.79-.89,1.54-1.8,2.24-2.74" transform="translate(-38.46 -34.82)"/><path class="cls-19" d="M127.38,162,142.16,171a40.54,40.54,0,0,1-3,3L124.37,165a40.82,40.82,0,0,0,3-3" transform="translate(-38.46 -34.82)"/><path class="cls-18" d="M124.37,165l14.79,9.06c-.72.65-1.47,1.29-2.25,1.9s-1.57,1.21-2.39,1.78l-14.78-9.06c.81-.57,1.61-1.16,2.38-1.78s1.53-1.25,2.25-1.9" transform="translate(-38.46 -34.82)"/><path class="cls-17" d="M119.74,168.67l14.78,9.06c-9.15,6.37-20.74,9.71-34.5,9.92a56.6,56.6,0,0,1-24.33-4.82,43.93,43.93,0,0,1-4.92-2.59L56,171.18a45.65,45.65,0,0,0,4.92,2.59,56.64,56.64,0,0,0,24.34,4.82c13.75-.22,25.34-3.55,34.5-9.92" transform="translate(-38.46 -34.82)"/></g></g></g><path class="cls-61" d="M91.08,35.81C106,35.58,117.74,39,126,45.82s12.1,16.51,11.6,28.71a31.25,31.25,0,0,1-6,16.84,41.39,41.39,0,0,1-16,13.09l-1.06.52,1.07.38a33.58,33.58,0,0,1,16.25,11.83c3.79,5.3,5.55,12,5.23,19.91-.5,12.27-5.55,22.3-15,29.79s-21.9,11.47-36.88,11.7a56.64,56.64,0,0,1-24.34-4.82c-7.35-3.32-12.91-8-16.5-14.06a36.53,36.53,0,0,1-5-20.23L70.08,139A14.47,14.47,0,0,0,74.82,150a17.11,17.11,0,0,0,12.52,4.64c5.63-.09,10.26-1.81,13.76-5.1a17.71,17.71,0,0,0,5.61-12.59c.29-7.16-1.29-12.3-4.68-15.27s-8.17-4.41-14.28-4.31l-14.81.23.94-23.12,14.35-.22c12-.19,18.34-6.42,18.84-18.54.19-4.72-1.11-8.61-3.86-11.56s-6.79-4.41-12-4.33a18.06,18.06,0,0,0-11.31,4,12.84,12.84,0,0,0-5.16,9.27l-30.47.47a34.93,34.93,0,0,1,6.65-19A42.48,42.48,0,0,1,67.82,41,56.88,56.88,0,0,1,91.08,35.81Z" transform="translate(-38.46 -34.82)"/><path class="cls-62" d="M132.68,116.58c3.92,5.47,5.74,12.38,5.4,20.51-.51,12.58-5.69,22.87-15.4,30.57S100.4,179.33,85.2,179.57a57.44,57.44,0,0,1-24.72-4.89c-7.52-3.4-13.21-8.25-16.9-14.41A37.74,37.74,0,0,1,38.5,139l0-.49L71.08,138l0,.5a13.53,13.53,0,0,0,4.43,10.7,16.18,16.18,0,0,0,11.89,4.39c5.37-.08,9.78-1.7,13.1-4.82a16.65,16.65,0,0,0,5.27-11.87c.28-6.85-1.18-11.73-4.36-14.52s-7.8-4.18-13.68-4.09l-15.77.24,1-25.08,15.3-.23c11.53-.18,17.37-5.92,17.84-17.54.18-4.45-1-8.11-3.6-10.88s-6.39-4.12-11.33-4a17.15,17.15,0,0,0-10.71,3.8,11.84,11.84,0,0,0-4.8,9l0,.49-32.36.5,0-.49A36.07,36.07,0,0,1,50.18,54,43.66,43.66,0,0,1,67.47,40.08a57.88,57.88,0,0,1,23.65-5.25c15.15-.24,27.08,3.21,35.47,10.22S139,62,138.51,74.52a32.22,32.22,0,0,1-6.16,17.4A41.7,41.7,0,0,1,117,104.82,34.07,34.07,0,0,1,132.68,116.58Zm-10.56,50.31c9.46-7.49,14.51-17.52,15-29.79.32-7.91-1.44-14.61-5.23-19.91a33.58,33.58,0,0,0-16.25-11.83l-1.07-.38,1.06-.52a41.39,41.39,0,0,0,16-13.09,31.25,31.25,0,0,0,6-16.84c.5-12.2-3.4-21.86-11.6-28.71s-20-10.24-34.87-10A56.88,56.88,0,0,0,67.82,41,42.48,42.48,0,0,0,50.93,54.56a34.93,34.93,0,0,0-6.65,19l30.47-.47a12.84,12.84,0,0,1,5.16-9.27,18.06,18.06,0,0,1,11.31-4c5.2-.08,9.24,1.38,12,4.33s4.05,6.84,3.86,11.56c-.5,12.12-6.84,18.35-18.84,18.54l-14.35.22-.94,23.12,14.81-.23c6.11-.1,10.92,1.35,14.28,4.31s5,8.11,4.68,15.27a17.71,17.71,0,0,1-5.61,12.59c-3.5,3.29-8.13,5-13.76,5.1A17.11,17.11,0,0,1,74.82,150,14.47,14.47,0,0,1,70.08,139l-30.64.47a36.53,36.53,0,0,0,5,20.23c3.59,6,9.15,10.74,16.5,14.06a56.64,56.64,0,0,0,24.34,4.82c15-.23,27.39-4.17,36.88-11.7" transform="translate(-38.46 -34.82)"/><g class="cls-2"><g class="cls-63"><g class="cls-2"><path class="cls-13" d="M132.68,116.58l14.79,9.06c.31.44.61.88.9,1.34l-14.79-9.06c-.29-.46-.59-.9-.9-1.34" transform="translate(-38.46 -34.82)"/><path class="cls-14" d="M133.58,117.92,148.37,127a28.27,28.27,0,0,1,3.19,7.19l-14.78-9.07a28.38,28.38,0,0,0-3.2-7.18" transform="translate(-38.46 -34.82)"/><path class="cls-36" d="M136.78,125.1l14.78,9.07c.21.7.39,1.41.54,2.14l-14.78-9.06c-.16-.73-.34-1.44-.54-2.15" transform="translate(-38.46 -34.82)"/><path class="cls-14" d="M137.32,127.25l14.78,9.06a39,39,0,0,1,.77,9.84c0,.26,0,.51,0,.76l-14.78-9.06,0-.76a39.06,39.06,0,0,0-.76-9.84" transform="translate(-38.46 -34.82)"/><path class="cls-13" d="M138.05,137.85l14.78,9.06a45.55,45.55,0,0,1-.69,5.83l-14.79-9.06a47.64,47.64,0,0,0,.7-5.83" transform="translate(-38.46 -34.82)"/><path class="cls-12" d="M137.35,143.68l14.79,9.06a42.57,42.57,0,0,1-1,4.15l-14.79-9.06a42.57,42.57,0,0,0,1-4.15" transform="translate(-38.46 -34.82)"/><path class="cls-11" d="M136.35,147.83l14.79,9.06c-.35,1.16-.74,2.29-1.18,3.4l-14.79-9.07a34.77,34.77,0,0,0,1.18-3.39" transform="translate(-38.46 -34.82)"/><path class="cls-10" d="M135.17,151.22,150,160.29c-.41,1-.86,2-1.36,3l-14.78-9.06c.49-1,.94-2,1.35-3" transform="translate(-38.46 -34.82)"/><path class="cls-9" d="M133.82,154.23l14.78,9.06c-.48,1-1,1.89-1.57,2.81L132.25,157c.56-.92,1.09-1.85,1.57-2.81" transform="translate(-38.46 -34.82)"/><path class="cls-8" d="M132.25,157,147,166.1c-.58.94-1.2,1.85-1.86,2.75l-14.79-9.06c.67-.9,1.29-1.81,1.87-2.75" transform="translate(-38.46 -34.82)"/><path class="cls-7" d="M130.38,159.79l14.79,9.06q-1.08,1.46-2.31,2.82l-14.79-9.06c.82-.91,1.59-1.86,2.31-2.82" transform="translate(-38.46 -34.82)"/><path class="cls-6" d="M128.07,162.61l14.79,9.06a41.06,41.06,0,0,1-3.09,3.1L125,165.71a43,43,0,0,0,3.09-3.1" transform="translate(-38.46 -34.82)"/><path class="cls-5" d="M125,165.71l14.79,9.06q-1.11,1-2.31,1.95c-.79.63-1.6,1.23-2.43,1.81l-14.78-9.06c.83-.58,1.64-1.18,2.43-1.81s1.56-1.28,2.3-1.95" transform="translate(-38.46 -34.82)"/><path class="cls-4" d="M120.25,169.47,135,178.53c-9.32,6.49-21.08,9.89-35,10.1a57.5,57.5,0,0,1-24.72-4.89,45.57,45.57,0,0,1-5-2.64L55.47,172a44.68,44.68,0,0,0,5,2.64,57.44,57.44,0,0,0,24.72,4.89c14-.22,25.73-3.61,35.05-10.1" transform="translate(-38.46 -34.82)"/></g></g></g></g><g class="cls-2"><polygon class="cls-64" points="175.69 3.14 190.48 12.2 147.24 12.87 132.45 3.8 175.69 3.14"/><polygon class="cls-65" points="174.66 28.18 189.45 37.24 177.97 37.42 163.19 28.36 174.66 28.18"/><polygon class="cls-66" points="163.19 28.36 177.97 37.42 174.34 126.27 159.55 117.2 163.19 28.36"/><polygon class="cls-64" points="174.63 29.17 189.41 38.23 178.89 38.39 164.1 29.33 174.63 29.17"/><g class="cls-2"><g class="cls-67"><g class="cls-2"><path class="cls-68" d="M228.29,66.68l14.79,9.07c-4.14-2.54-9.22-3.78-15.17-3.69L213.13,63c6-.09,11,1.14,15.16,3.68" transform="translate(-38.46 -34.82)"/></g></g></g><g class="cls-2"><g class="cls-69"><g class="cls-2"><path class="cls-70" d="M227.77,67.54l14.79,9.06c-4-2.45-8.92-3.64-14.69-3.56L213.09,64a26.87,26.87,0,0,1,14.68,3.56" transform="translate(-38.46 -34.82)"/></g></g></g><polygon class="cls-71" points="132.45 3.8 147.24 12.87 141.55 151.7 126.77 142.64 132.45 3.8"/><polygon class="cls-64" points="126.25 143.63 141.04 152.69 140.56 152.7 125.77 143.64 126.25 143.63"/><g class="cls-2"><g class="cls-72"><g class="cls-2"><path class="cls-70" d="M246.89,46.38l14.79,9.06-1-.58c-9.23-5.39-19.92-8-31.77-7.84L214.15,38c11.86-.18,22.54,2.46,31.77,7.85l1,.58" transform="translate(-38.46 -34.82)"/></g></g></g><polygon class="cls-71" points="164.1 29.33 178.89 38.39 175.33 125.27 160.55 116.21 164.1 29.33"/><g class="cls-2"><g class="cls-73"><g class="cls-2"><path class="cls-74" d="M246.89,46.38l14.79,9.06.07.05L247,46.43l-.08,0" transform="translate(-38.46 -34.82)"/><path class="cls-75" d="M247,46.43l14.78,9.06a51.65,51.65,0,0,1,4.33,3l-14.79-9.07a52.15,52.15,0,0,0-4.32-3" transform="translate(-38.46 -34.82)"/><path class="cls-76" d="M251.29,49.38l14.79,9.07a51.1,51.1,0,0,1,4.13,3.49l-14.79-9.06a53.35,53.35,0,0,0-4.13-3.5" transform="translate(-38.46 -34.82)"/><path class="cls-77" d="M255.42,52.88l14.79,9.06a52.11,52.11,0,0,1,4.15,4.38l-14.78-9.06a50.73,50.73,0,0,0-4.16-4.38" transform="translate(-38.46 -34.82)"/><path class="cls-78" d="M259.58,57.26l14.78,9.06a53.18,53.18,0,0,1,4.53,6.19L264.1,63.45a54.29,54.29,0,0,0-4.52-6.19" transform="translate(-38.46 -34.82)"/></g></g></g><polygon class="cls-64" points="171.4 117.02 186.18 126.08 174.34 126.27 159.55 117.2 171.4 117.02"/><g class="cls-2"><g class="cls-79"><g class="cls-2"><path class="cls-80" d="M228.29,66.68l14.79,9.07h0L228.33,66.7l0,0" transform="translate(-38.46 -34.82)"/><path class="cls-81" d="M228.33,66.7l14.78,9.06A20.23,20.23,0,0,1,244.9,77l-14.78-9.06c-.58-.44-1.18-.85-1.79-1.23" transform="translate(-38.46 -34.82)"/><path class="cls-82" d="M230.12,67.93,244.9,77a22.71,22.71,0,0,1,1.76,1.49l-14.78-9.06a22.38,22.38,0,0,0-1.76-1.49" transform="translate(-38.46 -34.82)"/><path class="cls-83" d="M231.88,69.42l14.78,9.06a21.16,21.16,0,0,1,1.84,1.94l-14.79-9.07a23.94,23.94,0,0,0-1.83-1.93" transform="translate(-38.46 -34.82)"/><path class="cls-84" d="M233.71,71.35l14.79,9.07c.47.56.93,1.15,1.36,1.77.25.34.48.7.71,1.06l-14.78-9.06c-.23-.36-.47-.72-.71-1.06-.44-.62-.89-1.21-1.37-1.78" transform="translate(-38.46 -34.82)"/><path class="cls-85" d="M235.79,74.19l14.78,9.06a32.32,32.32,0,0,1,3.65,8.39l-14.78-9.07a32.94,32.94,0,0,0-3.65-8.38" transform="translate(-38.46 -34.82)"/><path class="cls-86" d="M239.44,82.57l14.78,9.07q.43,1.48.78,3.09l-14.79-9.06c-.23-1.07-.48-2.1-.77-3.1" transform="translate(-38.46 -34.82)"/><path class="cls-85" d="M240.21,85.67,255,94.73a73.51,73.51,0,0,1,1.25,18.17l-14.79-9.06a73.51,73.51,0,0,0-1.25-18.17" transform="translate(-38.46 -34.82)"/></g></g></g><polygon class="cls-71" points="203 69.03 217.78 78.09 217.53 84.13 202.75 75.07 203 69.03"/><g class="cls-2"><g class="cls-87"><g class="cls-2"><path class="cls-78" d="M259.58,57.26l14.78,9.06a53.18,53.18,0,0,1,4.53,6.19L264.1,63.45a54.29,54.29,0,0,0-4.52-6.19" transform="translate(-38.46 -34.82)"/><path class="cls-88" d="M264.1,63.45l14.79,9.06A58,58,0,0,1,282,78.05L267.19,69a60.31,60.31,0,0,0-3.09-5.54" transform="translate(-38.46 -34.82)"/></g></g></g><g class="cls-2"><g class="cls-89"><g class="cls-2"><path class="cls-80" d="M247.44,45.55l14.78,9.06.08,0L247.51,45.6l-.07-.05" transform="translate(-38.46 -34.82)"/><path class="cls-81" d="M247.51,45.6l14.79,9.06a51.55,51.55,0,0,1,4.39,3l-14.78-9.06a51.72,51.72,0,0,0-4.4-3" transform="translate(-38.46 -34.82)"/><path class="cls-82" d="M251.91,48.61l14.78,9.06a49.23,49.23,0,0,1,4.2,3.55l-14.78-9.06a52.53,52.53,0,0,0-4.2-3.55" transform="translate(-38.46 -34.82)"/><path class="cls-83" d="M256.11,52.16l14.78,9.06a51.85,51.85,0,0,1,4.21,4.43l-14.78-9.06a53.46,53.46,0,0,0-4.21-4.43" transform="translate(-38.46 -34.82)"/><path class="cls-84" d="M260.32,56.59l14.78,9.06a54.18,54.18,0,0,1,4.58,6.27L264.9,62.86a56.64,56.64,0,0,0-4.58-6.27" transform="translate(-38.46 -34.82)"/><path class="cls-85" d="M264.9,62.86l14.78,9.06a58.16,58.16,0,0,1,3.15,5.65L268,68.51a59,59,0,0,0-3.14-5.65" transform="translate(-38.46 -34.82)"/></g></g></g><polygon class="cls-65" points="170.94 141.96 185.72 151.02 141.55 151.7 126.77 142.64 170.94 141.96"/><polygon class="cls-64" points="170.9 142.94 185.69 152.01 141.04 152.69 126.25 143.63 170.9 142.94"/><g class="cls-2"><g class="cls-90"><g class="cls-2"><path class="cls-68" d="M245.05,165.32l14.79,9.07c-1.18.81-2.38,1.59-3.61,2.33a63.93,63.93,0,0,1-32.05,9.12l-14.78-9.06a63.89,63.89,0,0,0,32-9.12c1.23-.74,2.44-1.52,3.61-2.34" transform="translate(-38.46 -34.82)"/></g></g></g><g class="cls-2"><g class="cls-91"><g class="cls-2"><path class="cls-85" d="M241.21,109.89,256,119c0,.56-.05,1.12-.08,1.68l-14.79-9.06c0-.56.06-1.12.08-1.68" transform="translate(-38.46 -34.82)"/><path class="cls-84" d="M241.13,111.57l14.79,9.06a84.58,84.58,0,0,1-1.26,10.72l-14.79-9.06a84.8,84.8,0,0,0,1.26-10.72" transform="translate(-38.46 -34.82)"/><path class="cls-83" d="M239.87,122.29l14.79,9.06a62.54,62.54,0,0,1-1.45,6.09l-14.79-9.06a60.4,60.4,0,0,0,1.45-6.09" transform="translate(-38.46 -34.82)"/><path class="cls-82" d="M238.42,128.38l14.79,9.06c-.44,1.47-.92,2.88-1.46,4.21L237,132.59c.53-1.34,1-2.74,1.45-4.21" transform="translate(-38.46 -34.82)"/><path class="cls-81" d="M237,132.59l14.78,9.06c-.44,1.12-.93,2.19-1.44,3.21l-14.79-9.06c.52-1,1-2.09,1.45-3.21" transform="translate(-38.46 -34.82)"/><path class="cls-80" d="M235.52,135.8l14.79,9.06c-.46.91-.95,1.79-1.46,2.62l-14.79-9.06c.51-.83,1-1.71,1.46-2.62" transform="translate(-38.46 -34.82)"/><path class="cls-92" d="M234.06,138.42l14.79,9.06c-.49.79-1,1.54-1.53,2.26l-14.79-9.06c.53-.72,1-1.47,1.53-2.26" transform="translate(-38.46 -34.82)"/><path class="cls-93" d="M232.53,140.68l14.79,9.06-.23.31c-.49.64-1,1.25-1.52,1.83l-14.78-9.06c.52-.59,1-1.2,1.51-1.83l.23-.31" transform="translate(-38.46 -34.82)"/><path class="cls-94" d="M230.79,142.82l14.78,9.06a27.65,27.65,0,0,1-2,2l-14.79-9.06a27.77,27.77,0,0,0,2-2" transform="translate(-38.46 -34.82)"/><path class="cls-95" d="M228.76,144.85l14.79,9.06a25.16,25.16,0,0,1-2.64,2.11L226.12,147a26.52,26.52,0,0,0,2.64-2.11" transform="translate(-38.46 -34.82)"/><path class="cls-70" d="M226.12,147,240.91,156a28.59,28.59,0,0,1-16.26,4.88l-14.79-9.06A28.67,28.67,0,0,0,226.12,147" transform="translate(-38.46 -34.82)"/></g></g></g><g class="cls-2"><g class="cls-96"><g class="cls-2"><path class="cls-88" d="M267.19,69,282,78.05a63,63,0,0,1,3.94,10.22l-14.78-9.06A63.91,63.91,0,0,0,267.19,69" transform="translate(-38.46 -34.82)"/><path class="cls-97" d="M271.13,79.21l14.78,9.06c.46,1.55.85,3.13,1.19,4.73l-14.78-9.06c-.34-1.61-.74-3.18-1.19-4.73" transform="translate(-38.46 -34.82)"/><path class="cls-88" d="M272.32,83.94,287.1,93a77.07,77.07,0,0,1,1.57,19L273.88,103a77,77,0,0,0-1.56-19" transform="translate(-38.46 -34.82)"/></g></g></g><polygon class="cls-66" points="235.42 68.14 250.21 77.2 249.94 83.63 235.16 74.57 235.42 68.14"/><g class="cls-2"><g class="cls-98"><g class="cls-2"><path class="cls-88" d="M273.62,109.39l14.79,9.06c0,.48-.05,1-.07,1.45l-14.79-9.07c0-.48.05-1,.07-1.44" transform="translate(-38.46 -34.82)"/><path class="cls-78" d="M273.55,110.83l14.79,9.07a85.75,85.75,0,0,1-1.3,10.79l-14.79-9.06a83.88,83.88,0,0,0,1.3-10.8" transform="translate(-38.46 -34.82)"/><path class="cls-77" d="M272.25,121.63,287,130.69a78.37,78.37,0,0,1-1.87,7.76l-14.78-9.07a75.45,75.45,0,0,0,1.86-7.75" transform="translate(-38.46 -34.82)"/></g></g></g><g class="cls-2"><g class="cls-99"><g class="cls-2"><path class="cls-77" d="M272.25,121.63,287,130.69a78.37,78.37,0,0,1-1.87,7.76l-14.78-9.07a75.45,75.45,0,0,0,1.86-7.75" transform="translate(-38.46 -34.82)"/></g></g></g><g class="cls-2"><g class="cls-100"><g class="cls-2"><path class="cls-77" d="M272.25,121.63,287,130.69a78.37,78.37,0,0,1-1.87,7.76l-14.78-9.07a75.45,75.45,0,0,0,1.86-7.75" transform="translate(-38.46 -34.82)"/><path class="cls-76" d="M270.39,129.38l14.78,9.07q-1,3.24-2.2,6.35l-14.79-9.06c.83-2.07,1.56-4.19,2.21-6.36" transform="translate(-38.46 -34.82)"/><path class="cls-75" d="M268.18,135.74,283,144.8c-.76,1.91-1.61,3.77-2.52,5.59l-14.79-9.06q1.38-2.73,2.52-5.59" transform="translate(-38.46 -34.82)"/><path class="cls-74" d="M265.66,141.33l14.79,9.06q-.61,1.2-1.26,2.37c-.52,1-1.06,1.87-1.62,2.77l-14.79-9.06c.56-.9,1.1-1.83,1.63-2.77.43-.78.85-1.57,1.25-2.37" transform="translate(-38.46 -34.82)"/><path class="cls-101" d="M262.78,146.47l14.79,9.06c-1,1.65-2.09,3.24-3.23,4.77l-14.79-9.06q1.71-2.3,3.23-4.77" transform="translate(-38.46 -34.82)"/><path class="cls-102" d="M259.55,151.24l14.79,9.06c-1.18,1.58-2.41,3.1-3.71,4.55l-14.79-9.06q1.95-2.17,3.71-4.55" transform="translate(-38.46 -34.82)"/><path class="cls-103" d="M255.84,155.79l14.79,9.06a60.91,60.91,0,0,1-4.54,4.55l-14.78-9.06c1.58-1.44,3.09-3,4.53-4.55" transform="translate(-38.46 -34.82)"/><path class="cls-104" d="M251.31,160.34l14.78,9.06a63,63,0,0,1-6.25,5l-14.79-9.07a61.59,61.59,0,0,0,6.26-5" transform="translate(-38.46 -34.82)"/></g></g></g><path class="cls-105" d="M268,68.51c5,10.15,7.26,21.73,6.81,34.43l-.27,6.43a77.58,77.58,0,0,1-9.35,34.79,64.59,64.59,0,0,1-55.86,33.6l-44.65.69h-.48L170,37.65,214.19,37c12-.18,22.86,2.5,32.23,8A54.31,54.31,0,0,1,268,68.51Zm5.58,40.88.26-6.44c.46-12.52-1.8-24-6.69-34A53.57,53.57,0,0,0,245.92,45.8c-9.23-5.39-19.91-8-31.77-7.85l-43.24.67-5.68,138.84,44.17-.68a63.58,63.58,0,0,0,55-33.08,76.65,76.65,0,0,0,9.21-34.31" transform="translate(-38.46 -34.82)"/><path class="cls-105" d="M213.13,63c9.74-.15,17.13,3.26,22,10.13s6.93,17.15,6.38,30.71l-.25,6c-.56,13.62-3.55,24.08-8.91,31.1s-12.94,10.7-22.44,10.85L198,152l3.63-88.84Zm27.13,46.9.25-6c.54-13.34-1.55-23.48-6.22-30.13s-11.78-9.89-21.2-9.75l-10.52.16L199,151l10.89-.16c9.18-.14,16.47-3.66,21.66-10.45s8.15-17.1,8.7-30.51" transform="translate(-38.46 -34.82)"/><g class="cls-2"><g class="cls-106"><g class="cls-2"><path class="cls-85" d="M268,68.51l14.79,9.06a64.74,64.74,0,0,1,4,10.39L272.05,78.9a63.81,63.81,0,0,0-4-10.39" transform="translate(-38.46 -34.82)"/><path class="cls-86" d="M272.05,78.9,286.84,88c.45,1.57.86,3.17,1.2,4.79l-14.78-9.06q-.52-2.43-1.21-4.79" transform="translate(-38.46 -34.82)"/><path class="cls-85" d="M273.26,83.69,288,92.75A78.44,78.44,0,0,1,289.63,112l-14.78-9.06a78.93,78.93,0,0,0-1.59-19.25" transform="translate(-38.46 -34.82)"/></g></g></g><polygon class="cls-71" points="236.38 68.12 251.17 77.18 250.91 83.62 236.12 74.56 236.38 68.12"/><path class="cls-107" d="M267.19,69c4.89,10,7.15,21.44,6.69,34l-.26,6.44a76.65,76.65,0,0,1-9.21,34.31,63.58,63.58,0,0,1-55,33.08l-44.17.68,5.68-138.84L214.15,38c11.86-.18,22.54,2.46,31.77,7.85A53.57,53.57,0,0,1,267.19,69Zm-26,40.9.25-6c.55-13.56-1.59-23.89-6.38-30.71s-12.21-10.28-22-10.13l-11.48.18L198,152l11.84-.18c9.5-.15,17-3.8,22.44-10.85s8.35-17.48,8.91-31.1" transform="translate(-38.46 -34.82)"/><g class="cls-2"><g class="cls-108"><g class="cls-2"><path class="cls-85" d="M274.58,109.37l14.79,9.06c0,.49,0,1-.07,1.47l-14.79-9.07c0-.48.05-1,.07-1.46" transform="translate(-38.46 -34.82)"/><path class="cls-84" d="M274.51,110.83l14.79,9.07A85.82,85.82,0,0,1,288,130.81l-14.79-9.06a85.76,85.76,0,0,0,1.31-10.92" transform="translate(-38.46 -34.82)"/><path class="cls-83" d="M273.2,121.75,288,130.81q-.76,4-1.89,7.86l-14.79-9.06a77.61,77.61,0,0,0,1.89-7.86" transform="translate(-38.46 -34.82)"/><path class="cls-82" d="M271.31,129.61l14.79,9.06c-.66,2.2-1.4,4.35-2.24,6.45l-14.79-9.06q1.26-3.17,2.24-6.45" transform="translate(-38.46 -34.82)"/><path class="cls-81" d="M269.07,136.06l14.79,9.06c-.78,1.94-1.63,3.83-2.57,5.69l-14.78-9.07c.93-1.85,1.79-3.75,2.56-5.68" transform="translate(-38.46 -34.82)"/><path class="cls-80" d="M266.51,141.74l14.78,9.07c-.41.81-.83,1.61-1.28,2.41-.53,1-1.08,1.9-1.65,2.83L263.57,147c.57-.93,1.13-1.87,1.66-2.83.44-.8.86-1.6,1.28-2.42" transform="translate(-38.46 -34.82)"/><path class="cls-92" d="M263.57,147l14.79,9.06q-1.55,2.5-3.28,4.83l-14.78-9.06q1.72-2.32,3.27-4.83" transform="translate(-38.46 -34.82)"/><path class="cls-93" d="M260.3,151.82l14.78,9.06q-1.79,2.4-3.76,4.61l-14.79-9.06q2-2.2,3.77-4.61" transform="translate(-38.46 -34.82)"/><path class="cls-94" d="M256.53,156.43l14.79,9.06a61,61,0,0,1-4.61,4.63l-14.78-9.06a64.82,64.82,0,0,0,4.6-4.63" transform="translate(-38.46 -34.82)"/><path class="cls-95" d="M251.93,161.06l14.78,9.06a64.92,64.92,0,0,1-6.35,5.06l-14.79-9.06a63.87,63.87,0,0,0,6.36-5.06" transform="translate(-38.46 -34.82)"/><path class="cls-70" d="M245.57,166.12l14.79,9.06q-1.8,1.24-3.69,2.39a64.8,64.8,0,0,1-32.52,9.25l-14.78-9.06a64.84,64.84,0,0,0,32.52-9.26c1.26-.75,2.49-1.55,3.68-2.38" transform="translate(-38.46 -34.82)"/></g></g></g></g></svg>